<svg width="133" height="136" viewBox="0 0 133 136" fill="none" xmlns="http://www.w3.org/2000/svg">
<path opacity="0.35" fill-rule="evenodd" clip-rule="evenodd" d="M76.3896 16.5677C92.4274 19.7264 100.401 36.1852 110.954 48.6688C120.093 59.4815 132.275 69.0823 132.741 83.2328C133.216 97.6818 124.004 110.425 113.306 120.15C103.154 129.378 90.0443 133.125 76.3896 134.455C60.7546 135.979 44.255 137.292 31.5009 128.121C16.8574 117.592 6.39189 101.226 5.15457 83.2328C3.84324 64.1629 10.915 44.776 24.8716 31.7148C38.4578 19.0001 58.1326 12.9719 76.3896 16.5677Z" fill="#DBA278"/>
<path d="M29.5 14.04L39 14.54" stroke="#939676" stroke-width="3" stroke-linecap="round" stroke-linejoin="round"/>
<path d="M35.5 21.04C38.5 21.8734 44.9 23.34 46.5 22.54" stroke="#939676" stroke-width="3" stroke-linecap="round" stroke-linejoin="round"/>
<path d="M44.5 29.54C46.3333 30.04 50.3 30.94 51.5 30.54" stroke="#939676" stroke-width="3" stroke-linecap="round" stroke-linejoin="round"/>
<path d="M51 37.04C52.5 37.54 55.7 38.54 56.5 38.54" stroke="#939676" stroke-width="3" stroke-linecap="round" stroke-linejoin="round"/>
<path d="M65 27.04C65 29.04 64.9 33.24 64.5 34.04" stroke="#939676" stroke-width="3" stroke-linecap="round" stroke-linejoin="round"/>
<path d="M59.5 15.54C59.6667 18.04 59.9 23.44 59.5 25.04" stroke="#939676" stroke-width="3" stroke-linecap="round" stroke-linejoin="round"/>
<path d="M52.5 6.54004C53 9.70671 53.9 16.24 53.5 17.04" stroke="#939676" stroke-width="3" stroke-linecap="round" stroke-linejoin="round"/>
<path d="M41.5 1.54004C42.5 3.37337 44.6 7.44004 45 9.04004" stroke="#939676" stroke-width="3" stroke-linecap="round" stroke-linejoin="round"/>
<path d="M73.5 4.54004C73.5 5.04004 74.5 11.04 75.5 12.04" stroke="#939676" stroke-width="3" stroke-linecap="round" stroke-linejoin="round"/>
<path d="M66.5 11.54C67.3333 14.8734 69.3 21.64 70.5 22.04" stroke="#939676" stroke-width="3" stroke-linecap="round" stroke-linejoin="round"/>
<path d="M90.5 9.04004C89 10.7067 85.6 14.14 84 14.54" stroke="#939676" stroke-width="3" stroke-linecap="round" stroke-linejoin="round"/>
<path d="M87 19.54C84.8333 21.2067 80.2 24.64 79 25.04" stroke="#939676" stroke-width="3" stroke-linecap="round" stroke-linejoin="round"/>
<path d="M81.5005 32.04C80.3338 34.7067 78.1005 40.24 78.5005 41.04" stroke="#939676" stroke-width="3" stroke-linecap="round" stroke-linejoin="round"/>
<path d="M92 21.04C90.1667 25.2067 86.5 33.94 86.5 35.54" stroke="#939676" stroke-width="3" stroke-linecap="round" stroke-linejoin="round"/>
<path d="M102 17.54C100 20.7067 95.9 27.44 95.5 29.04" stroke="#939676" stroke-width="3" stroke-linecap="round" stroke-linejoin="round"/>
<path d="M112 16.04C109.667 18.04 105 22.44 105 24.04" stroke="#939676" stroke-width="3" stroke-linecap="round" stroke-linejoin="round"/>
<path d="M116 21.0398C117.667 19.2065 121.5 15.6398 123.5 16.0398" stroke="#939676" stroke-width="3" stroke-linecap="round" stroke-linejoin="round"/>
<path d="M119 29.04C121 29.54 125.2 30.54 126 30.54" stroke="#939676" stroke-width="3" stroke-linecap="round" stroke-linejoin="round"/>
<path d="M109 32.04C111.667 32.8734 117.2 34.54 118 34.54" stroke="#939676" stroke-width="3" stroke-linecap="round" stroke-linejoin="round"/>
<path d="M99.5 37.04C103.333 37.8734 111.1 39.54 111.5 39.54" stroke="#939676" stroke-width="3" stroke-linecap="round" stroke-linejoin="round"/>
<path d="M91 42.54C94.3333 43.2067 101.5 44.54 103.5 44.54" stroke="#939676" stroke-width="3" stroke-linecap="round" stroke-linejoin="round"/>
<path d="M84 47.54C84.5 47.54 88 48.04 89.5 48.04" stroke="#939676" stroke-width="3" stroke-linecap="round" stroke-linejoin="round"/>
<path d="M90 53.04C92.3333 52.04 97.6 50.04 100 50.04" stroke="#939676" stroke-width="3" stroke-linecap="round" stroke-linejoin="round"/>
<path d="M99.5 56.54C102 55.8734 107.6 54.54 110 54.54" stroke="#939676" stroke-width="3" stroke-linecap="round" stroke-linejoin="round"/>
<path d="M108 61.04C110.667 60.7067 116.6 60.14 119 60.54" stroke="#939676" stroke-width="3" stroke-linecap="round" stroke-linejoin="round"/>
<path d="M117 67.04C119.5 67.54 124.7 68.74 125.5 69.54" stroke="#939676" stroke-width="3" stroke-linecap="round" stroke-linejoin="round"/>
<path d="M111.5 72.54C111.334 74.3734 111.2 78.24 112 79.04" stroke="#939676" stroke-width="3" stroke-linecap="round" stroke-linejoin="round"/>
<path d="M101.5 67.04C101.5 69.7067 101.8 75.34 103 76.54" stroke="#939676" stroke-width="3" stroke-linecap="round" stroke-linejoin="round"/>
<path d="M95.0005 64.04C94.8338 65.04 94.7005 67.34 95.5005 68.54" stroke="#939676" stroke-width="3" stroke-linecap="round" stroke-linejoin="round"/>
<path d="M86.5 61.04C87.5 64.3734 89.9 71.14 91.5 71.54" stroke="#939676" stroke-width="3" stroke-linecap="round" stroke-linejoin="round"/>
<path d="M79 59.04C79.3333 61.8734 80.3 67.64 81.5 68.04" stroke="#939676" stroke-width="3" stroke-linecap="round" stroke-linejoin="round"/>
<path d="M42.5 33.04C43.5 34.7067 45.4 38.24 45 39.04" stroke="#939676" stroke-width="3" stroke-linecap="round" stroke-linejoin="round"/>
<path d="M37 49.3009C38.8078 48.587 42.4658 46.9398 42.6353 46.0615" stroke="#939676" stroke-width="3" stroke-linecap="round" stroke-linejoin="round"/>
<path d="M6.5 20.54C8.16667 21.3734 12 23.84 14 27.04" stroke="#939676" stroke-width="3" stroke-linecap="round" stroke-linejoin="round"/>
<path d="M2 34.7382C3.83317 35.0724 8.37969 35.4012 11.9003 34.0429" stroke="#939676" stroke-width="3" stroke-linecap="round" stroke-linejoin="round"/>
<path d="M17 21.54C18.6667 22.3734 22.5 24.84 24.5 28.04" stroke="#939676" stroke-width="3" stroke-linecap="round" stroke-linejoin="round"/>
<path d="M10.9971 40.2422C12.8302 40.5764 17.3768 40.9052 20.8974 39.5469" stroke="#939676" stroke-width="3" stroke-linecap="round" stroke-linejoin="round"/>
<path d="M31.4609 23.54C32.6881 24.9423 35.3022 28.6766 35.9419 32.3956" stroke="#939676" stroke-width="3" stroke-linecap="round" stroke-linejoin="round"/>
<path d="M23.7627 47.3251C25.5859 46.9404 29.9185 45.5235 32.6629 42.9334" stroke="#939676" stroke-width="3" stroke-linecap="round" stroke-linejoin="round"/>
<path d="M48 124.04L44.5 100.54H87C86.3333 107.04 84.8 120.84 84 124.04C83.2 127.24 79.3333 128.707 77.5 129.04H54C51.6 129.04 48 126.04 48 124.04Z" stroke="#939676" stroke-width="3" stroke-linejoin="round"/>
<path d="M71 55.04V98.04" stroke="#939676" stroke-width="3" stroke-linecap="round" stroke-linejoin="round"/>
<path d="M64 55.04V98.04" stroke="#939676" stroke-width="3" stroke-linecap="round" stroke-linejoin="round"/>
<path d="M71.5 52.04C84 41.2067 113.3 20.34 130.5 23.54" stroke="#939676" stroke-width="3" stroke-linecap="round" stroke-linejoin="round"/>
<path d="M74.5 55.54C82.6667 55.2067 103.1 58.74 119.5 75.54" stroke="#939676" stroke-width="3" stroke-linecap="round" stroke-linejoin="round"/>
<path d="M1.5 26.04C17.6667 30.54 52.3 41.94 61.5 51.54" stroke="#939676" stroke-width="3" stroke-linecap="round" stroke-linejoin="round"/>
<path d="M11.5 70.54C19.1667 64.8733 39.6 54.14 60 56.54" stroke="#939676" stroke-width="3" stroke-linecap="round" stroke-linejoin="round"/>
<path d="M10 60.54C12.1667 60.54 16.7 60.74 17.5 61.54" stroke="#939676" stroke-width="3" stroke-linecap="round" stroke-linejoin="round"/>
<path d="M20.5 55.04C22.6667 55.7067 27.1 57.14 27.5 57.54" stroke="#939676" stroke-width="3" stroke-linecap="round" stroke-linejoin="round"/>
<path d="M34 52.04L37 53.54" stroke="#939676" stroke-width="3" stroke-linecap="round" stroke-linejoin="round"/>
<path d="M46 50.54L48 52.54" stroke="#939676" stroke-width="3" stroke-linecap="round" stroke-linejoin="round"/>
<path d="M23 67.54C22.5 68.54 20.5 74.54 19.5 75.04" stroke="#939676" stroke-width="3" stroke-linecap="round" stroke-linejoin="round"/>
<path d="M31.5 66.04C31 68.2067 29.9 72.74 29.5 73.54" stroke="#939676" stroke-width="3" stroke-linecap="round" stroke-linejoin="round"/>
<path d="M42 62.54C41.5 64.3734 40.2 68.54 39 70.54" stroke="#939676" stroke-width="3" stroke-linecap="round" stroke-linejoin="round"/>
<path d="M51.5 61.54C50.8333 63.04 49.3 66.34 48.5 67.54" stroke="#939676" stroke-width="3" stroke-linecap="round" stroke-linejoin="round"/>
<path d="M85.0001 4.04004C79.5001 12.7067 68.7001 32.84 69.5001 44.04" stroke="#939676" stroke-width="3" stroke-linecap="round" stroke-linejoin="round"/>
<path d="M47 110.54H85" stroke="#939676" stroke-width="3" stroke-linejoin="round"/>
<path d="M32 5.04004C32.5 6.54004 58.5 17.54 66.5 53.04" stroke="#939676" stroke-width="3" stroke-linecap="round" stroke-linejoin="round"/>
</svg>
