<svg width="137" height="120" viewBox="0 0 137 120" fill="none" xmlns="http://www.w3.org/2000/svg">
<path opacity="0.35" fill-rule="evenodd" clip-rule="evenodd" d="M75.3886 1.02762C91.4265 4.18631 99.4003 20.6452 109.953 33.1288C119.092 43.9415 131.274 53.5423 131.74 67.6927C132.215 82.1418 123.003 94.8854 112.305 104.61C102.153 113.838 89.0433 117.585 75.3886 118.915C59.7537 120.439 43.254 121.752 30.4999 112.581C15.8565 102.052 5.39092 85.6864 4.15359 67.6927C2.84226 48.6229 9.91407 29.2359 23.8706 16.1748C37.4568 3.4601 57.1316 -2.56814 75.3886 1.02762Z" fill="#DBA278"/>
<path d="M22.8235 40.765C21.6707 45.5693 20.6257 50.3645 19.9954 55.1331C20.3106 55.0585 20.634 55.0253 20.9741 55.0253C21.538 55.0253 22.0854 55.1248 22.5995 55.3156C22.9561 50.5801 23.5035 45.7957 24.7143 40.9475L22.8235 40.765ZM17.8724 41.4807L14.9366 42.1716C15.2268 43.53 15.5751 44.8851 15.9732 46.2386L19.1661 50.6382C19.2988 49.8586 19.4481 49.0873 19.5974 48.3077C18.9339 46.0628 18.3202 43.7912 17.8724 41.4807ZM28.6951 42.2503C27.1277 44.3021 25.892 46.4476 24.7807 48.6395C24.6148 49.8835 24.4738 51.1192 24.3494 52.3714C24.9051 51.8821 25.4524 51.3928 25.9915 50.9035C27.0696 48.2497 28.3882 45.6025 30.4118 43.015L28.6951 42.2503ZM12.1998 43.6088L10.6489 44.8544L18.0465 56.0785C18.1543 55.9873 18.2622 55.9044 18.3783 55.8132C18.511 54.7848 18.6519 53.7564 18.8095 52.7281L12.1998 43.6088ZM33.7457 45.4855C30.785 48.6229 27.5257 51.6002 24.1587 54.5277L24.0343 56.1863C24.3909 56.5015 24.706 56.8747 24.9548 57.2894C28.5624 53.8891 32.087 50.5138 35.0146 47.014L33.7457 45.4855ZM8.02328 48.258L6.2875 50.7294C7.97601 52.1558 9.94401 53.4164 12.0422 54.6106C13.3608 55.017 14.6795 55.3902 16.0064 55.7385L13.8335 52.4295C11.7436 51.1938 9.74497 49.8669 8.02328 48.258ZM36.9635 49.4439L30.8679 53.7067C30.4035 54.1794 29.9225 54.6355 29.4498 55.1082C30.503 55.0833 31.5563 55.0336 32.6178 54.9507C34.3345 53.6652 36.1424 52.4129 38.1577 51.227L36.9635 49.4439ZM4.52684 53.5076L4.04169 55.4234C7.75541 57.1069 11.6441 58.4421 15.5834 59.6944C15.8405 59.512 16.0976 59.3378 16.3547 59.1636C16.421 58.5665 16.5952 58.0192 16.8606 57.505C12.6559 56.4351 8.51756 55.1829 4.52684 53.5076ZM39.468 55.3902C35.537 56.3356 31.6641 56.6259 27.8658 56.6176C27.0945 57.3557 26.3232 58.0855 25.5436 58.8236L25.5685 58.948C25.668 59.0144 25.7593 59.0724 25.8588 59.1305C30.6606 59.0558 35.3131 58.4919 39.891 57.6791L39.468 55.3902ZM20.9741 56.5264C19.2242 56.5264 17.8226 57.9362 17.8226 59.6944C17.8226 61.4526 19.2242 62.8541 20.9741 62.8541C22.7239 62.8541 24.1172 61.4526 24.1172 59.6944C24.1172 57.9362 22.7239 56.5264 20.9741 56.5264ZM2.91795 57.3972L2.57129 59.5783L7.51159 60.2583C8.5922 60.0759 9.66203 59.8851 10.7153 59.6778C8.95711 59.0641 7.2122 58.4172 5.49301 57.6957L2.91795 57.3972ZM33.0573 60.192C31.4982 60.3579 29.9308 60.4823 28.3551 60.5652C29.9391 61.4028 31.5977 62.1824 33.3061 62.9371L38.929 64.1645L39.1861 61.2784L33.0573 60.192ZM13.5848 60.6398C10.2426 61.3199 6.83901 61.9751 3.08133 62.4063L3.33012 65.2509L8.90735 64.0235C10.6323 62.9702 12.3325 61.8838 13.9911 60.7725C13.8584 60.7311 13.7174 60.6813 13.5848 60.6398ZM25.5271 60.673C25.3114 61.6184 24.8221 62.4644 24.1421 63.1029C28.5458 65.5412 33.812 67.2413 38.987 69.0907L39.7003 67.1998C34.7989 65.2426 29.8727 63.2854 25.5271 60.673ZM16.4791 60.8886C12.5232 63.6005 8.43463 66.188 4.05993 68.5019L5.15713 70.1522C9.18102 68.2614 12.9959 66.188 16.6367 63.9488L17.4909 62.7795C17.0182 62.2404 16.6616 61.6019 16.4791 60.8886ZM22.5083 64.0898C22.0273 64.2723 21.5048 64.3635 20.9741 64.3635C20.5926 64.3635 20.2277 64.3138 19.8876 64.2308L21.7039 78.7689L23.6528 78.4372L22.5083 64.0898ZM18.3534 64.1396L9.81131 75.9492L11.4534 77.0688L18.8095 67.7969L18.3534 64.1396ZM24.0757 64.7865L24.225 66.669C26.2071 70.2103 28.2721 73.7183 30.6108 77.1186L33.0408 75.7999C30.5196 72.549 28.3634 69.2317 26.3232 65.8895C25.5602 65.5412 24.8055 65.1763 24.0757 64.7865ZM28.7448 66.9427C29.0434 67.432 29.3586 67.913 29.6654 68.4023C31.7138 70.3264 33.7042 72.3582 35.4873 74.7135L37.544 72.8309C36.3083 71.3879 34.9897 70.0693 33.6213 68.7921C31.9875 68.2116 30.3454 67.5979 28.7448 66.9427ZM14.4141 67.0339C12.432 68.1701 10.4001 69.2565 8.31023 70.3015L6.10422 72.3333L8.16925 74.2325L11.9427 70.4342L14.4141 67.0339ZM19.0749 69.9034L16.8274 72.7314L15.94 77.7571L18.1212 78.3957L19.2905 71.6118L19.0749 69.9034ZM24.507 70.2269L24.565 70.8903L27.0696 78.2796L28.2804 77.782L27.5257 75.2028C26.4725 73.5607 25.4773 71.8938 24.507 70.2269Z" fill="#939676"/>
<path d="M117.035 40.7651C115.883 45.5694 114.838 50.3646 114.207 55.1332C114.523 55.0586 114.846 55.0254 115.186 55.0254C115.75 55.0254 116.297 55.1249 116.811 55.3157C117.168 50.5802 117.715 45.7958 118.926 40.9476L117.035 40.7651ZM112.084 41.4808L109.148 42.1717C109.439 43.5301 109.787 44.8852 110.185 46.2387L113.378 50.6383C113.511 49.8587 113.66 49.0874 113.809 48.3079C113.146 46.0629 112.532 43.7914 112.084 41.4808ZM122.907 42.2505C121.34 44.3022 120.104 46.4477 118.993 48.6396C118.827 49.8836 118.686 51.1193 118.561 52.3716C119.117 51.8823 119.664 51.393 120.203 50.9037C121.282 48.2498 122.6 45.6026 124.624 43.0151L122.907 42.2505ZM106.412 43.6089L104.861 44.8545L112.258 56.0787C112.366 55.9874 112.474 55.9045 112.59 55.8133C112.723 54.7849 112.864 53.7565 113.021 52.7282L106.412 43.6089ZM127.958 45.4857C124.997 48.623 121.738 51.6003 118.371 54.5278L118.246 56.1865C118.603 56.5016 118.918 56.8748 119.167 57.2895C122.774 53.8892 126.299 50.5139 129.226 47.0141L127.958 45.4857ZM102.235 48.2581L100.499 50.7295C102.188 52.1559 104.156 53.4165 106.254 54.6108C107.573 55.0171 108.891 55.3903 110.218 55.7386L108.045 52.4296C105.956 51.1939 103.957 49.867 102.235 48.2581ZM131.175 49.444L125.08 53.7068C124.615 54.1795 124.134 54.6356 123.662 55.1083C124.715 55.0835 125.768 55.0337 126.83 54.9508C128.546 53.6653 130.354 52.413 132.37 51.2271L131.175 49.444ZM98.7388 53.5077L98.2536 55.4235C101.967 57.107 105.856 58.4422 109.795 59.6945C110.052 59.5121 110.31 59.3379 110.567 59.1638C110.633 58.5666 110.807 58.0193 111.073 57.5051C106.868 56.4353 102.729 55.183 98.7388 53.5077ZM133.68 55.3903C129.749 56.3357 125.876 56.626 122.078 56.6177C121.306 57.3558 120.535 58.0856 119.756 58.8237L119.78 58.9481C119.88 59.0145 119.971 59.0725 120.071 59.1306C124.873 59.0559 129.525 58.492 134.103 57.6793L133.68 55.3903ZM115.186 56.5265C113.436 56.5265 112.035 57.9364 112.035 59.6945C112.035 61.4527 113.436 62.8543 115.186 62.8543C116.936 62.8543 118.329 61.4527 118.329 59.6945C118.329 57.9364 116.936 56.5265 115.186 56.5265ZM97.1299 57.3973L96.7832 59.5784L101.724 60.2585C102.804 60.076 103.874 59.8853 104.927 59.6779C103.169 59.0642 101.424 58.4174 99.7049 57.6958L97.1299 57.3973ZM127.269 60.1921C125.71 60.358 124.143 60.4824 122.567 60.5653C124.151 61.4029 125.81 62.1825 127.518 62.9372L133.141 64.1646L133.398 61.2785L127.269 60.1921ZM107.797 60.64C104.454 61.32 101.051 61.9752 97.2932 62.4064L97.542 65.251L103.119 64.0236C104.844 62.9704 106.544 61.8839 108.203 60.7726C108.07 60.7312 107.929 60.6814 107.797 60.64ZM119.739 60.6731C119.523 61.6186 119.034 62.4645 118.354 63.1031C122.758 65.5413 128.024 67.2414 133.199 69.0908L133.912 67.1999C129.011 65.2427 124.085 63.2855 119.739 60.6731ZM110.691 60.8888C106.735 63.6007 102.647 66.1882 98.2718 68.502L99.369 70.1523C103.393 68.2615 107.208 66.1882 110.849 63.949L111.703 62.7796C111.23 62.2406 110.873 61.602 110.691 60.8888ZM116.72 64.09C116.239 64.2724 115.717 64.3636 115.186 64.3636C114.804 64.3636 114.44 64.3139 114.1 64.2309L115.916 78.769L117.865 78.4373L116.72 64.09ZM112.565 64.1397L104.023 75.9493L105.665 77.0689L113.021 67.797L112.565 64.1397ZM118.288 64.7866L118.437 66.6692C120.419 70.2104 122.484 73.7184 124.823 77.1187L127.253 75.8001C124.732 72.5491 122.575 69.2318 120.535 65.8896C119.772 65.5413 119.017 65.1764 118.288 64.7866ZM122.957 66.9428C123.255 67.4321 123.57 67.9132 123.877 68.4025C125.926 70.3265 127.916 72.3583 129.699 74.7136L131.756 72.8311C130.52 71.388 129.202 70.0694 127.833 68.7922C126.199 68.2117 124.557 67.598 122.957 66.9428ZM108.626 67.0341C106.644 68.1702 104.612 69.2567 102.522 70.3016L100.316 72.3335L102.381 74.2326L106.155 70.4343L108.626 67.0341ZM113.287 69.9035L111.039 72.7315L110.152 77.7573L112.333 78.3958L113.502 71.612L113.287 69.9035ZM118.719 70.227L118.777 70.8904L121.282 78.2797L122.492 77.7821L121.738 75.2029C120.684 73.5609 119.689 71.8939 118.719 70.227Z" fill="#939676"/>
<path d="M35.8263 50.9633C37.362 50.9633 38.8347 50.3532 39.9206 49.2674C41.0065 48.1815 41.6165 46.7087 41.6165 45.1731C41.6165 43.6374 41.0065 42.1647 39.9206 41.0788C38.8347 39.9929 37.362 39.3829 35.8263 39.3829C34.2907 39.3829 32.8179 39.9929 31.732 41.0788C30.6462 42.1647 30.0361 43.6374 30.0361 45.1731C30.0361 46.7087 30.6462 48.1815 31.732 49.2674C32.8179 50.3532 34.2907 50.9633 35.8263 50.9633ZM37.7564 39.3829C37.7564 39.3829 39.6865 35.5228 39.6865 31.6626C39.6865 27.8025 35.8263 23.9424 35.8263 23.9424C35.8263 23.9424 31.9662 27.8025 31.9662 31.6626C31.9662 35.5228 33.8963 39.3829 33.8963 39.3829" fill="#F3DFD0"/>
<path d="M37.7564 39.3829C37.7564 39.3829 39.6865 35.5228 39.6865 31.6626C39.6865 27.8025 35.8263 23.9424 35.8263 23.9424C35.8263 23.9424 31.9662 27.8025 31.9662 31.6626C31.9662 35.5228 33.8963 39.3829 33.8963 39.3829M35.8263 50.9633C37.362 50.9633 38.8347 50.3532 39.9206 49.2674C41.0065 48.1815 41.6165 46.7087 41.6165 45.1731C41.6165 43.6374 41.0065 42.1647 39.9206 41.0788C38.8347 39.9929 37.362 39.3829 35.8263 39.3829C34.2907 39.3829 32.8179 39.9929 31.732 41.0788C30.6462 42.1647 30.0361 43.6374 30.0361 45.1731C30.0361 46.7087 30.6462 48.1815 31.732 49.2674C32.8179 50.3532 34.2907 50.9633 35.8263 50.9633Z" stroke="#939676" stroke-miterlimit="1.5" stroke-linecap="round" stroke-linejoin="round"/>
<path d="M30.0362 43.2432C30.0362 43.2432 26.1761 41.3132 22.316 41.3132C18.4558 41.3132 14.5957 45.1733 14.5957 45.1733C14.5957 45.1733 18.4558 49.0334 22.316 49.0334C26.1761 49.0334 30.0362 47.1034 30.0362 47.1034M37.7565 50.9635C37.7565 50.9635 39.6865 54.8236 39.6865 58.6837C39.6865 62.5439 35.8264 66.404 35.8264 66.404C35.8264 66.404 31.9663 62.5439 31.9663 58.6837C31.9663 54.8236 33.8963 50.9635 33.8963 50.9635M41.6166 43.2432C41.6166 43.2432 45.4767 41.3132 49.3369 41.3132C53.197 41.3132 57.0571 45.1733 57.0571 45.1733C57.0571 45.1733 53.197 49.0334 49.3369 49.0334C45.4767 49.0334 41.6166 47.1034 41.6166 47.1034M33.0973 39.7151C33.0973 39.7151 31.7327 35.6195 29.0017 32.8904C26.2726 30.1613 20.8144 30.1613 20.8144 30.1613C20.8144 30.1613 20.8144 35.6195 23.5435 38.3505C26.2726 41.0796 30.3682 42.4442 30.3682 42.4442M30.3682 47.9024C30.3682 47.9024 26.2726 49.267 23.5435 51.998C20.8144 54.7271 20.8144 60.1853 20.8144 60.1853C20.8144 60.1853 26.2726 60.1853 29.0017 57.4562C31.7327 54.7271 33.0973 50.6315 33.0973 50.6315M41.2866 47.9024C41.2866 47.9024 45.3783 49.267 48.1093 51.998C50.8385 54.7271 50.8385 60.1853 50.8385 60.1853C50.8385 60.1853 45.3802 60.1853 42.6511 57.4562C39.9201 54.7271 38.5555 50.6315 38.5555 50.6315M38.5555 39.7151C38.5555 39.7151 39.9201 35.6195 42.6511 32.8904C45.3802 30.1613 50.8385 30.1613 50.8385 30.1613C50.8385 30.1613 50.8385 35.6195 48.1093 38.3505C45.3802 41.0796 41.2846 42.4442 41.2846 42.4442" fill="#F3DFD0"/>
<path d="M30.0362 43.2432C30.0362 43.2432 26.1761 41.3132 22.316 41.3132C18.4558 41.3132 14.5957 45.1733 14.5957 45.1733C14.5957 45.1733 18.4558 49.0334 22.316 49.0334C26.1761 49.0334 30.0362 47.1034 30.0362 47.1034M37.7565 50.9635C37.7565 50.9635 39.6865 54.8236 39.6865 58.6837C39.6865 62.5439 35.8264 66.404 35.8264 66.404C35.8264 66.404 31.9663 62.5439 31.9663 58.6837C31.9663 54.8236 33.8963 50.9635 33.8963 50.9635M41.6166 43.2432C41.6166 43.2432 45.4767 41.3132 49.3369 41.3132C53.197 41.3132 57.0571 45.1733 57.0571 45.1733C57.0571 45.1733 53.197 49.0334 49.3369 49.0334C45.4767 49.0334 41.6166 47.1034 41.6166 47.1034M33.0973 39.7151C33.0973 39.7151 31.7327 35.6195 29.0017 32.8904C26.2726 30.1613 20.8144 30.1613 20.8144 30.1613C20.8144 30.1613 20.8144 35.6195 23.5435 38.3505C26.2726 41.0796 30.3682 42.4442 30.3682 42.4442M30.3682 47.9024C30.3682 47.9024 26.2726 49.267 23.5435 51.998C20.8144 54.7271 20.8144 60.1853 20.8144 60.1853C20.8144 60.1853 26.2726 60.1853 29.0017 57.4562C31.7327 54.7271 33.0973 50.6315 33.0973 50.6315M41.2866 47.9024C41.2866 47.9024 45.3783 49.267 48.1093 51.998C50.8385 54.7271 50.8385 60.1853 50.8385 60.1853C50.8385 60.1853 45.3802 60.1853 42.6511 57.4562C39.9201 54.7271 38.5555 50.6315 38.5555 50.6315M38.5555 39.7151C38.5555 39.7151 39.9201 35.6195 42.6511 32.8904C45.3802 30.1613 50.8385 30.1613 50.8385 30.1613C50.8385 30.1613 50.8385 35.6195 48.1093 38.3505C45.3802 41.0796 41.2846 42.4442 41.2846 42.4442" stroke="#939676" stroke-miterlimit="1.5" stroke-linecap="round" stroke-linejoin="round"/>
<path d="M99.5187 50.9633C101.054 50.9633 102.527 50.3532 103.613 49.2674C104.699 48.1815 105.309 46.7087 105.309 45.1731C105.309 43.6374 104.699 42.1647 103.613 41.0788C102.527 39.9929 101.054 39.3829 99.5187 39.3829C97.9831 39.3829 96.5103 39.9929 95.4244 41.0788C94.3386 42.1647 93.7285 43.6374 93.7285 45.1731C93.7285 46.7087 94.3386 48.1815 95.4244 49.2674C96.5103 50.3532 97.9831 50.9633 99.5187 50.9633ZM101.449 39.3829C101.449 39.3829 103.379 35.5228 103.379 31.6626C103.379 27.8025 99.5187 23.9424 99.5187 23.9424C99.5187 23.9424 95.6586 27.8025 95.6586 31.6626C95.6586 35.5228 97.5886 39.3829 97.5886 39.3829" fill="#F3DFD0"/>
<path d="M101.449 39.3829C101.449 39.3829 103.379 35.5228 103.379 31.6626C103.379 27.8025 99.5187 23.9424 99.5187 23.9424C99.5187 23.9424 95.6586 27.8025 95.6586 31.6626C95.6586 35.5228 97.5886 39.3829 97.5886 39.3829M99.5187 50.9633C101.054 50.9633 102.527 50.3532 103.613 49.2674C104.699 48.1815 105.309 46.7087 105.309 45.1731C105.309 43.6374 104.699 42.1647 103.613 41.0788C102.527 39.9929 101.054 39.3829 99.5187 39.3829C97.9831 39.3829 96.5103 39.9929 95.4244 41.0788C94.3386 42.1647 93.7285 43.6374 93.7285 45.1731C93.7285 46.7087 94.3386 48.1815 95.4244 49.2674C96.5103 50.3532 97.9831 50.9633 99.5187 50.9633Z" stroke="#939676" stroke-miterlimit="1.5" stroke-linecap="round" stroke-linejoin="round"/>
<path d="M93.7286 43.2432C93.7286 43.2432 89.8685 41.3132 86.0083 41.3132C82.1482 41.3132 78.2881 45.1733 78.2881 45.1733C78.2881 45.1733 82.1482 49.0334 86.0083 49.0334C89.8685 49.0334 93.7286 47.1034 93.7286 47.1034M101.449 50.9635C101.449 50.9635 103.379 54.8236 103.379 58.6837C103.379 62.5439 99.5188 66.404 99.5188 66.404C99.5188 66.404 95.6587 62.5439 95.6587 58.6837C95.6587 54.8236 97.5887 50.9635 97.5887 50.9635M105.309 43.2432C105.309 43.2432 109.169 41.3132 113.029 41.3132C116.889 41.3132 120.75 45.1733 120.75 45.1733C120.75 45.1733 116.889 49.0334 113.029 49.0334C109.169 49.0334 105.309 47.1034 105.309 47.1034M96.7897 39.7151C96.7897 39.7151 95.4251 35.6195 92.6941 32.8904C89.965 30.1613 84.5068 30.1613 84.5068 30.1613C84.5068 30.1613 84.5068 35.6195 87.2359 38.3505C89.965 41.0796 94.0606 42.4442 94.0606 42.4442M94.0606 47.9024C94.0606 47.9024 89.965 49.267 87.2359 51.998C84.5068 54.7271 84.5068 60.1853 84.5068 60.1853C84.5068 60.1853 89.965 60.1853 92.6941 57.4562C95.4251 54.7271 96.7897 50.6315 96.7897 50.6315M104.979 47.9024C104.979 47.9024 109.071 49.267 111.802 51.998C114.531 54.7271 114.531 60.1853 114.531 60.1853C114.531 60.1853 109.073 60.1853 106.344 57.4562C103.612 54.7271 102.248 50.6315 102.248 50.6315M102.248 39.7151C102.248 39.7151 103.612 35.6195 106.344 32.8904C109.073 30.1613 114.531 30.1613 114.531 30.1613C114.531 30.1613 114.531 35.6195 111.802 38.3505C109.073 41.0796 104.977 42.4442 104.977 42.4442" fill="#F3DFD0"/>
<path d="M93.7286 43.2432C93.7286 43.2432 89.8685 41.3132 86.0083 41.3132C82.1482 41.3132 78.2881 45.1733 78.2881 45.1733C78.2881 45.1733 82.1482 49.0334 86.0083 49.0334C89.8685 49.0334 93.7286 47.1034 93.7286 47.1034M101.449 50.9635C101.449 50.9635 103.379 54.8236 103.379 58.6837C103.379 62.5439 99.5188 66.404 99.5188 66.404C99.5188 66.404 95.6587 62.5439 95.6587 58.6837C95.6587 54.8236 97.5887 50.9635 97.5887 50.9635M105.309 43.2432C105.309 43.2432 109.169 41.3132 113.029 41.3132C116.889 41.3132 120.75 45.1733 120.75 45.1733C120.75 45.1733 116.889 49.0334 113.029 49.0334C109.169 49.0334 105.309 47.1034 105.309 47.1034M96.7897 39.7151C96.7897 39.7151 95.4251 35.6195 92.6941 32.8904C89.965 30.1613 84.5068 30.1613 84.5068 30.1613C84.5068 30.1613 84.5068 35.6195 87.2359 38.3505C89.965 41.0796 94.0606 42.4442 94.0606 42.4442M94.0606 47.9024C94.0606 47.9024 89.965 49.267 87.2359 51.998C84.5068 54.7271 84.5068 60.1853 84.5068 60.1853C84.5068 60.1853 89.965 60.1853 92.6941 57.4562C95.4251 54.7271 96.7897 50.6315 96.7897 50.6315M104.979 47.9024C104.979 47.9024 109.071 49.267 111.802 51.998C114.531 54.7271 114.531 60.1853 114.531 60.1853C114.531 60.1853 109.073 60.1853 106.344 57.4562C103.612 54.7271 102.248 50.6315 102.248 50.6315M102.248 39.7151C102.248 39.7151 103.612 35.6195 106.344 32.8904C109.073 30.1613 114.531 30.1613 114.531 30.1613C114.531 30.1613 114.531 35.6195 111.802 38.3505C109.073 41.0796 104.977 42.4442 104.977 42.4442" stroke="#939676" stroke-miterlimit="1.5" stroke-linecap="round" stroke-linejoin="round"/>
<path d="M67.674 39.0209C69.2096 39.0209 70.6824 38.4109 71.7683 37.325C72.8541 36.2391 73.4642 34.7664 73.4642 33.2307C73.4642 31.6951 72.8541 30.2223 71.7683 29.1364C70.6824 28.0506 69.2096 27.4405 67.674 27.4405C66.1383 27.4405 64.6656 28.0506 63.5797 29.1364C62.4938 30.2223 61.8838 31.6951 61.8838 33.2307C61.8838 34.7664 62.4938 36.2391 63.5797 37.325C64.6656 38.4109 66.1383 39.0209 67.674 39.0209ZM69.604 27.4405C69.604 27.4405 71.5341 23.5804 71.5341 19.7203C71.5341 15.8601 67.674 12 67.674 12C67.674 12 63.8139 15.8601 63.8139 19.7203C63.8139 23.5804 65.7439 27.4405 65.7439 27.4405" fill="#F3DFD0"/>
<path d="M69.604 27.4405C69.604 27.4405 71.5341 23.5804 71.5341 19.7203C71.5341 15.8601 67.674 12 67.674 12C67.674 12 63.8139 15.8601 63.8139 19.7203C63.8139 23.5804 65.7439 27.4405 65.7439 27.4405M67.674 39.0209C69.2096 39.0209 70.6824 38.4109 71.7683 37.325C72.8541 36.2391 73.4642 34.7664 73.4642 33.2307C73.4642 31.6951 72.8541 30.2223 71.7683 29.1364C70.6824 28.0506 69.2096 27.4405 67.674 27.4405C66.1383 27.4405 64.6656 28.0506 63.5797 29.1364C62.4938 30.2223 61.8838 31.6951 61.8838 33.2307C61.8838 34.7664 62.4938 36.2391 63.5797 37.325C64.6656 38.4109 66.1383 39.0209 67.674 39.0209Z" stroke="#939676" stroke-miterlimit="1.5" stroke-linecap="round" stroke-linejoin="round"/>
<path d="M61.8829 31.3008C61.8829 31.3008 58.0228 29.3707 54.1626 29.3707C50.3025 29.3707 46.4424 33.2309 46.4424 33.2309C46.4424 33.2309 50.3025 37.091 54.1626 37.091C58.0228 37.091 61.8829 35.1609 61.8829 35.1609M69.6032 39.021C69.6032 39.021 71.5332 42.8812 71.5332 46.7413C71.5332 50.6014 67.6731 54.4616 67.6731 54.4616C67.6731 54.4616 63.813 50.6014 63.813 46.7413C63.813 42.8812 65.743 39.021 65.743 39.021M73.4633 31.3008C73.4633 31.3008 77.3234 29.3707 81.1835 29.3707C85.0437 29.3707 88.9038 33.2309 88.9038 33.2309C88.9038 33.2309 85.0437 37.091 81.1835 37.091C77.3234 37.091 73.4633 35.1609 73.4633 35.1609M64.944 27.7726C64.944 27.7726 63.5794 23.677 60.8484 20.9479C58.1193 18.2188 52.6611 18.2188 52.6611 18.2188C52.6611 18.2188 52.6611 23.677 55.3902 26.4081C58.1193 29.1372 62.2149 30.5017 62.2149 30.5017M62.2149 35.96C62.2149 35.96 58.1193 37.3245 55.3902 40.0556C52.6611 42.7847 52.6611 48.2429 52.6611 48.2429C52.6611 48.2429 58.1193 48.2429 60.8484 45.5138C63.5794 42.7847 64.944 38.6891 64.944 38.6891M73.1332 35.96C73.1332 35.96 77.225 37.3245 79.956 40.0556C82.6851 42.7847 82.6851 48.2429 82.6851 48.2429C82.6851 48.2429 77.2269 48.2429 74.4978 45.5138C71.7668 42.7847 70.4022 38.6891 70.4022 38.6891M70.4022 27.7726C70.4022 27.7726 71.7668 23.677 74.4978 20.9479C77.2269 18.2188 82.6851 18.2188 82.6851 18.2188C82.6851 18.2188 82.6851 23.677 79.956 26.4081C77.2269 29.1372 73.1313 30.5017 73.1313 30.5017" fill="#F3DFD0"/>
<path d="M61.8829 31.3008C61.8829 31.3008 58.0228 29.3707 54.1626 29.3707C50.3025 29.3707 46.4424 33.2309 46.4424 33.2309C46.4424 33.2309 50.3025 37.091 54.1626 37.091C58.0228 37.091 61.8829 35.1609 61.8829 35.1609M69.6032 39.021C69.6032 39.021 71.5332 42.8812 71.5332 46.7413C71.5332 50.6014 67.6731 54.4616 67.6731 54.4616C67.6731 54.4616 63.813 50.6014 63.813 46.7413C63.813 42.8812 65.743 39.021 65.743 39.021M73.4633 31.3008C73.4633 31.3008 77.3234 29.3707 81.1835 29.3707C85.0437 29.3707 88.9038 33.2309 88.9038 33.2309C88.9038 33.2309 85.0437 37.091 81.1835 37.091C77.3234 37.091 73.4633 35.1609 73.4633 35.1609M64.944 27.7726C64.944 27.7726 63.5794 23.677 60.8484 20.9479C58.1193 18.2188 52.6611 18.2188 52.6611 18.2188C52.6611 18.2188 52.6611 23.677 55.3902 26.4081C58.1193 29.1372 62.2149 30.5017 62.2149 30.5017M62.2149 35.96C62.2149 35.96 58.1193 37.3245 55.3902 40.0556C52.6611 42.7847 52.6611 48.2429 52.6611 48.2429C52.6611 48.2429 58.1193 48.2429 60.8484 45.5138C63.5794 42.7847 64.944 38.6891 64.944 38.6891M73.1332 35.96C73.1332 35.96 77.225 37.3245 79.956 40.0556C82.6851 42.7847 82.6851 48.2429 82.6851 48.2429C82.6851 48.2429 77.2269 48.2429 74.4978 45.5138C71.7668 42.7847 70.4022 38.6891 70.4022 38.6891M70.4022 27.7726C70.4022 27.7726 71.7668 23.677 74.4978 20.9479C77.2269 18.2188 82.6851 18.2188 82.6851 18.2188C82.6851 18.2188 82.6851 23.677 79.956 26.4081C77.2269 29.1372 73.1313 30.5017 73.1313 30.5017" stroke="#939676" stroke-miterlimit="1.5" stroke-linecap="round" stroke-linejoin="round"/>
</svg>
