<svg width="128" height="146" viewBox="0 0 128 146" fill="none" xmlns="http://www.w3.org/2000/svg">
<path opacity="0.35" fill-rule="evenodd" clip-rule="evenodd" d="M71.3896 26.5677C87.4274 29.7264 95.4013 46.1852 105.954 58.6688C115.093 69.4815 127.275 79.0823 127.741 93.2328C128.216 107.682 119.004 120.425 108.306 130.15C98.1543 139.378 85.0443 143.125 71.3896 144.455C55.7546 145.979 39.255 147.292 26.5009 138.121C11.8574 127.592 1.39189 111.226 0.154567 93.2328C-1.15676 74.1629 5.91505 54.776 19.8716 41.7148C33.4578 29.0001 53.1325 22.9719 71.3896 26.5677Z" fill="#DBA278"/>
<path d="M19.9998 66.0798C24.7998 85.2798 49.3331 85.4131 60.9998 83.0798L94 74.0798L101 55.5798C102.167 54.7465 103.8 49.5798 101 35.5798C98.2 21.5798 85.5 18.0798 79.5 18.0798C79.5 12.2465 75.4 0.779813 59 1.57981C42.6 2.37981 38.4999 22.5798 38.4998 32.5798C30.3331 35.7465 15.1998 46.8798 19.9998 66.0798Z" stroke="#939676" stroke-width="3" stroke-linejoin="round"/>
<path d="M60 33.0801V133.58" stroke="#939676" stroke-width="3" stroke-linecap="round" stroke-linejoin="round"/>
<path d="M28 135.58H94.5" stroke="#939676" stroke-width="3" stroke-linecap="round" stroke-linejoin="round"/>
<path d="M43.5 52.0801L59.5 67.5801" stroke="#939676" stroke-width="3" stroke-linecap="round" stroke-linejoin="round"/>
<path d="M65.0003 96.0798C70.6003 106.48 86.0003 104.413 93.0003 102.08C98.5002 105.247 111.1 108.48 117.5 96.0798C123.9 83.6798 117.167 74.9132 113 72.0798C115.333 68.9132 117.3 61.1798 106.5 55.5798C95.7 49.9798 86.3335 61.2465 83.0003 67.5798C59.5003 66.0798 58.0003 83.0798 65.0003 96.0798Z" fill="#F3DFD0" stroke="#939676" stroke-width="3" stroke-linejoin="round"/>
<path d="M60.5 109.08L90.5 89.0801" stroke="#939676" stroke-width="3" stroke-linecap="round" stroke-linejoin="round"/>
<path d="M51.763 26.7426C51.2736 25.519 49.7239 26.09 49.0713 26.4979C48.0926 25.5189 46.6904 25.7637 46.3792 26.7426C45.0101 31.0503 47.6845 31.2293 49.0713 30.9029C52.2527 31.6371 52.2525 27.9663 51.763 26.7426Z" stroke="#939676" stroke-linejoin="round"/>
<path d="M48.3369 24.54C48.6632 24.8663 49.2669 25.6658 49.0711 26.2531" stroke="#939676" stroke-linecap="round" stroke-linejoin="round"/>
<path d="M63.763 15.7426C63.2736 14.519 61.7239 15.09 61.0713 15.4979C60.0926 14.5189 58.6904 14.7637 58.3792 15.7426C57.0101 20.0503 59.6845 20.2293 61.0713 19.9029C64.2527 20.6371 64.2525 16.9663 63.763 15.7426Z" stroke="#939676" stroke-linejoin="round"/>
<path d="M60.3369 13.54C60.6632 13.8663 61.2669 14.6658 61.0711 15.2531" stroke="#939676" stroke-linecap="round" stroke-linejoin="round"/>
<path d="M71.763 30.7426C71.2736 29.519 69.7239 30.09 69.0713 30.4979C68.0926 29.5189 66.6904 29.7637 66.3792 30.7426C65.0101 35.0503 67.6845 35.2293 69.0713 34.9029C72.2527 35.6371 72.2525 31.9663 71.763 30.7426Z" stroke="#939676" stroke-linejoin="round"/>
<path d="M68.3369 28.54C68.6632 28.8663 69.2669 29.6658 69.0711 30.2531" stroke="#939676" stroke-linecap="round" stroke-linejoin="round"/>
<path d="M90.763 25.7426C90.2736 24.519 88.7239 25.09 88.0713 25.4979C87.0926 24.5189 85.6904 24.7637 85.3792 25.7426C84.0101 30.0503 86.6845 30.2293 88.0713 29.9029C91.2527 30.6371 91.2525 26.9663 90.763 25.7426Z" stroke="#939676" stroke-linejoin="round"/>
<path d="M87.3369 23.54C87.6632 23.8663 88.2669 24.6658 88.0711 25.2531" stroke="#939676" stroke-linecap="round" stroke-linejoin="round"/>
<path d="M95.763 42.7426C95.2736 41.519 93.7239 42.09 93.0713 42.4979C92.0926 41.5189 90.6904 41.7637 90.3792 42.7426C89.0101 47.0503 91.6845 47.2293 93.0713 46.9029C96.2527 47.6371 96.2525 43.9663 95.763 42.7426Z" stroke="#939676" stroke-linejoin="round"/>
<path d="M92.3369 40.54C92.6632 40.8663 93.2669 41.6658 93.0711 42.2531" stroke="#939676" stroke-linecap="round" stroke-linejoin="round"/>
<path d="M78.763 48.7426C78.2736 47.519 76.7239 48.09 76.0713 48.4979C75.0926 47.5189 73.6904 47.7637 73.3792 48.7426C72.0101 53.0503 74.6845 53.2293 76.0713 52.9029C79.2527 53.6371 79.2525 49.9663 78.763 48.7426Z" stroke="#939676" stroke-linejoin="round"/>
<path d="M75.3369 46.54C75.6632 46.8663 76.2669 47.6658 76.0711 48.2531" stroke="#939676" stroke-linecap="round" stroke-linejoin="round"/>
<path d="M70.763 59.7426C70.2736 58.519 68.7239 59.09 68.0713 59.4979C67.0926 58.5189 65.6904 58.7637 65.3792 59.7426C64.0101 64.0503 66.6845 64.2293 68.0713 63.9029C71.2527 64.6371 71.2525 60.9663 70.763 59.7426Z" stroke="#939676" stroke-linejoin="round"/>
<path d="M67.3369 57.54C67.6632 57.8663 68.2669 58.6658 68.0711 59.2531" stroke="#939676" stroke-linecap="round" stroke-linejoin="round"/>
<path d="M54.763 47.7426C54.2736 46.519 52.7239 47.09 52.0713 47.4979C51.0926 46.5189 49.6904 46.7637 49.3792 47.7426C48.0101 52.0503 50.6845 52.2293 52.0713 51.9029C55.2527 52.6371 55.2525 48.9663 54.763 47.7426Z" stroke="#939676" stroke-linejoin="round"/>
<path d="M51.3369 45.54C51.6632 45.8663 52.2669 46.6658 52.0711 47.2531" stroke="#939676" stroke-linecap="round" stroke-linejoin="round"/>
<path d="M35.763 43.7426C35.2736 42.519 33.7239 43.09 33.0713 43.4979C32.0926 42.5189 30.6904 42.7637 30.3792 43.7426C29.0101 48.0503 31.6845 48.2293 33.0713 47.9029C36.2527 48.6371 36.2525 44.9663 35.763 43.7426Z" stroke="#939676" stroke-linejoin="round"/>
<path d="M32.3369 41.54C32.6632 41.8663 33.2669 42.6658 33.0711 43.2531" stroke="#939676" stroke-linecap="round" stroke-linejoin="round"/>
<path d="M29.763 61.7426C29.2736 60.519 27.7239 61.09 27.0713 61.4979C26.0926 60.5189 24.6904 60.7637 24.3792 61.7426C23.0101 66.0503 25.6845 66.2293 27.0713 65.9029C30.2527 66.6371 30.2525 62.9663 29.763 61.7426Z" stroke="#939676" stroke-linejoin="round"/>
<path d="M26.3369 59.54C26.6632 59.8663 27.2669 60.6658 27.0711 61.2531" stroke="#939676" stroke-linecap="round" stroke-linejoin="round"/>
<path d="M55.763 74.7426C55.2736 73.519 53.7239 74.09 53.0713 74.4979C52.0926 73.5189 50.6904 73.7637 50.3792 74.7426C49.0101 79.0503 51.6845 79.2293 53.0713 78.9029C56.2527 79.6371 56.2525 75.9663 55.763 74.7426Z" stroke="#939676" stroke-linejoin="round"/>
<path d="M52.3369 72.54C52.6632 72.8663 53.2669 73.6658 53.0711 74.2531" stroke="#939676" stroke-linecap="round" stroke-linejoin="round"/>
<path d="M43.763 62.7426C43.2736 61.519 41.7239 62.09 41.0713 62.4979C40.0926 61.5189 38.6904 61.7637 38.3792 62.7426C37.0101 67.0503 39.6845 67.2293 41.0713 66.9029C44.2527 67.6371 44.2525 63.9663 43.763 62.7426Z" stroke="#939676" stroke-linejoin="round"/>
<path d="M40.3369 60.54C40.6632 60.8663 41.2669 61.6658 41.0711 62.2531" stroke="#939676" stroke-linecap="round" stroke-linejoin="round"/>
<path d="M103.763 62.7426C103.274 61.519 101.724 62.09 101.071 62.4979C100.093 61.5189 98.6904 61.7637 98.3792 62.7426C97.0101 67.0503 99.6845 67.2293 101.071 66.9029C104.253 67.6371 104.252 63.9663 103.763 62.7426Z" stroke="#939676" stroke-linejoin="round"/>
<path d="M100.337 60.54C100.663 60.8663 101.267 61.6658 101.071 62.2531" stroke="#939676" stroke-linecap="round" stroke-linejoin="round"/>
<path d="M91.763 71.7426C91.2736 70.519 89.7239 71.09 89.0713 71.4979C88.0926 70.5189 86.6904 70.7637 86.3792 71.7426C85.0101 76.0503 87.6845 76.2293 89.0713 75.9029C92.2527 76.6371 92.2525 72.9663 91.763 71.7426Z" stroke="#939676" stroke-linejoin="round"/>
<path d="M88.3369 69.54C88.6632 69.8663 89.2669 70.6658 89.0711 71.2531" stroke="#939676" stroke-linecap="round" stroke-linejoin="round"/>
<path d="M72.763 77.7426C72.2736 76.519 70.7239 77.09 70.0713 77.4979C69.0926 76.5189 67.6904 76.7637 67.3792 77.7426C66.0101 82.0503 68.6845 82.2293 70.0713 81.9029C73.2527 82.6371 73.2525 78.9663 72.763 77.7426Z" stroke="#939676" stroke-linejoin="round"/>
<path d="M69.3369 75.54C69.6632 75.8663 70.2669 76.6658 70.0711 77.2531" stroke="#939676" stroke-linecap="round" stroke-linejoin="round"/>
<path d="M83.763 85.7426C83.2736 84.519 81.7239 85.09 81.0713 85.4979C80.0926 84.5189 78.6904 84.7637 78.3792 85.7426C77.0101 90.0503 79.6845 90.2293 81.0713 89.9029C84.2527 90.6371 84.2525 86.9663 83.763 85.7426Z" stroke="#939676" stroke-linejoin="round"/>
<path d="M80.3369 83.54C80.6632 83.8663 81.2669 84.6658 81.0711 85.2531" stroke="#939676" stroke-linecap="round" stroke-linejoin="round"/>
<path d="M102.763 95.7426C102.274 94.519 100.724 95.09 100.071 95.4979C99.0926 94.5189 97.6904 94.7637 97.3792 95.7426C96.0101 100.05 98.6845 100.229 100.071 99.9029C103.253 100.637 103.252 96.9663 102.763 95.7426Z" stroke="#939676" stroke-linejoin="round"/>
<path d="M99.3369 93.54C99.6632 93.8663 100.267 94.6658 100.071 95.2531" stroke="#939676" stroke-linecap="round" stroke-linejoin="round"/>
<path d="M116.763 85.7426C116.274 84.519 114.724 85.09 114.071 85.4979C113.093 84.5189 111.69 84.7637 111.379 85.7426C110.01 90.0503 112.684 90.2293 114.071 89.9029C117.253 90.6371 117.252 86.9663 116.763 85.7426Z" stroke="#939676" stroke-linejoin="round"/>
<path d="M113.337 83.54C113.663 83.8663 114.267 84.6658 114.071 85.2531" stroke="#939676" stroke-linecap="round" stroke-linejoin="round"/>
<path d="M103.763 80.7426C103.274 79.519 101.724 80.09 101.071 80.4979C100.093 79.5189 98.6904 79.7637 98.3792 80.7426C97.0101 85.0503 99.6845 85.2293 101.071 84.9029C104.253 85.6371 104.252 81.9663 103.763 80.7426Z" stroke="#939676" stroke-linejoin="round"/>
<path d="M100.337 78.54C100.663 78.8663 101.267 79.6658 101.071 80.2531" stroke="#939676" stroke-linecap="round" stroke-linejoin="round"/>
</svg>
