<svg width="129" height="120" viewBox="0 0 129 120" fill="none" xmlns="http://www.w3.org/2000/svg">
<path opacity="0.35" fill-rule="evenodd" clip-rule="evenodd" d="M72.1493 1.02762C88.1872 4.18631 96.161 20.6452 106.713 33.1288C115.853 43.9415 128.035 53.5423 128.501 67.6927C128.976 82.1418 119.764 94.8854 109.066 104.61C98.914 113.838 85.804 117.585 72.1493 118.915C56.5144 120.439 40.0147 121.752 27.2607 112.581C12.6172 102.052 2.15166 85.6864 0.914333 67.6927C-0.396995 48.6229 6.67481 29.2359 20.6313 16.1748C34.2176 3.4601 53.8923 -2.56814 72.1493 1.02762Z" fill="#DBA278"/>
<path d="M41.3232 64.1889C48.4279 59.7485 67.6696 53.532 87.7994 64.1889" stroke="#939676" stroke-width="4" stroke-linecap="round"/>
<path d="M35.4033 71.4414C46.3069 72.9709 73.2058 75.1122 93.5725 71.4414" stroke="#939676" stroke-width="4" stroke-linecap="round"/>
<path d="M39.8438 54.2715C42.0146 55.1103 46.593 57.5871 47.5405 60.7842" stroke="#939676" stroke-width="4" stroke-linecap="round"/>
<path d="M89.1309 54.2715C86.9601 55.1103 82.3816 57.5871 81.4342 60.7842" stroke="#939676" stroke-width="4" stroke-linecap="round"/>
<path d="M26.6625 90.6133C36.3033 91.5913 77.8201 91.8833 97.3816 91.9998C99.742 91.9998 102.075 91.8693 110.177 90.0949C120.54 87.8255 118.835 77.243 117.658 65.1136C116.511 53.2874 107.723 47.0832 101.939 45.3776C94.2245 43.1026 90.4121 36.1209 84.8232 29.1347C77.3235 19.7602 58.0943 14.9316 46.923 27.5627C33.6221 42.6019 30.9705 42.4741 24.2681 46.0348C11.4773 52.8299 12.1664 60.7473 11.1185 74.0211C10.0705 87.2948 14.6116 89.3907 26.6625 90.6133Z" stroke="#939676" stroke-width="4"/>
</svg>
