<svg width="132" height="121" viewBox="0 0 132 121" fill="none" xmlns="http://www.w3.org/2000/svg">
<path opacity="0.35" fill-rule="evenodd" clip-rule="evenodd" d="M75.3896 2.02762C91.4274 5.18631 99.4013 21.6452 109.954 34.1288C119.093 44.9415 131.275 54.5423 131.741 68.6927C132.216 83.1418 123.004 95.8854 112.306 105.61C102.154 114.838 89.0443 118.585 75.3896 119.915C59.7546 121.439 43.255 122.752 30.5009 113.581C15.8574 103.052 5.39189 86.6864 4.15457 68.6927C2.84324 49.6229 9.91505 30.2359 23.8716 17.1748C37.4578 4.4601 57.1325 -1.56814 75.3896 2.02762Z" fill="#DBA278"/>
<path d="M96.3042 18.5946L91.6226 14.3811L83.1956 22.3399L87.7602 26.7875C87.37 29.0893 87.292 34.4186 90.101 37.3213C92.91 40.2239 99.0742 40.8715 101.805 40.8325C108.079 48.3232 117.216 51.2102 121 51.7174C120.064 45.5376 113.197 36.2679 109.881 32.4055C111.286 29.9476 110.349 24.5637 106.838 21.4036C104.109 18.9479 98.8791 18.3215 96.3042 18.5946Z" stroke="#939676" stroke-width="2" stroke-linejoin="round"/>
<path d="M111.168 92.5652L45.6248 26.5537L24.3232 46.4508L34.3888 47.5042L39.4216 56.1652L48.902 58.0379L54.4029 66.9331H63.064L68.0968 76.4134L77.3431 77.8179L82.3759 86.8301L91.9733 88.5858L96.889 96.7787L105.784 98.1832L111.168 92.5652Z" stroke="#939676" stroke-width="2" stroke-linejoin="round"/>
<rect x="1.41421" y="29.5483" width="39.3899" height="28.1686" rx="3" transform="rotate(-45 1.41421 29.5483)" stroke="#939676" stroke-width="2"/>
<rect x="15.4035" y="32.7979" width="24.6449" height="10.4669" rx="1" transform="rotate(-45 15.4035 32.7979)" stroke="#939676" stroke-width="2"/>
<rect x="70.1388" y="15.9426" width="20.5462" height="13.5514" rx="1" transform="rotate(-45 70.1388 15.9426)" stroke="#939676" stroke-width="2"/>
<path d="M31.234 96.6987C29.325 94.7897 29.325 91.6947 31.234 89.7857L86.9356 34.0841L93.8485 40.9971L38.147 96.6987C36.238 98.6076 33.1429 98.6076 31.234 96.6987Z" fill="#F3DFD0" stroke="#939676" stroke-width="2"/>
</svg>
