<svg width="128" height="170" viewBox="0 0 128 170" fill="none" xmlns="http://www.w3.org/2000/svg">
<path opacity="0.35" fill-rule="evenodd" clip-rule="evenodd" d="M71.3896 26.5677C87.4274 29.7264 95.4013 46.1852 105.954 58.6688C115.093 69.4815 127.275 79.0823 127.741 93.2328C128.216 107.682 119.004 120.425 108.306 130.15C98.1543 139.378 85.0443 143.125 71.3896 144.455C55.7546 145.979 39.255 147.292 26.5009 138.121C11.8574 127.592 1.39189 111.226 0.154567 93.2328C-1.15676 74.1629 5.91505 54.776 19.8716 41.7148C33.4578 29.0001 53.1326 22.9719 71.3896 26.5677Z" fill="#DBA278"/>
<path d="M102.34 100.984C106.023 102.037 113.6 105.615 114.442 111.508C110.758 110.981 103.182 108.14 102.34 100.984Z" fill="#F3DFD0" stroke="#939676" stroke-width="2" stroke-linecap="round" stroke-linejoin="round"/>
<path d="M102.866 134.132C106.549 135.185 114.126 138.763 114.968 144.656C111.285 144.129 103.708 141.288 102.866 134.132Z" fill="#F3DFD0" stroke="#939676" stroke-width="2" stroke-linecap="round" stroke-linejoin="round"/>
<path d="M68.1396 141.818C71.6529 140.292 79.7778 138.244 84.1706 142.261C80.9915 144.194 73.3345 146.811 68.1396 141.818Z" fill="#F3DFD0" stroke="#939676" stroke-width="2" stroke-linecap="round" stroke-linejoin="round"/>
<path d="M46.9998 107.553C50.758 108.293 58.6076 111.224 59.9397 117.026C56.2255 116.81 48.4375 114.613 46.9998 107.553Z" fill="#F3DFD0" stroke="#939676" stroke-width="2" stroke-linecap="round" stroke-linejoin="round"/>
<path d="M24.9941 106.732C28.7524 107.473 36.602 110.404 37.9341 116.206C34.2198 115.99 26.4319 113.793 24.9941 106.732Z" fill="#F3DFD0" stroke="#939676" stroke-width="2" stroke-linecap="round" stroke-linejoin="round"/>
<path d="M20.7852 128.831C24.5434 129.571 32.393 132.503 33.7251 138.305C30.0109 138.088 22.2229 135.891 20.7852 128.831Z" fill="#F3DFD0" stroke="#939676" stroke-width="2" stroke-linecap="round" stroke-linejoin="round"/>
<path d="M103.392 115.19C99.7085 116.243 92.1318 119.821 91.2899 125.714C94.973 125.187 102.55 122.346 103.392 115.19Z" fill="#F3DFD0" stroke="#939676" stroke-width="2" stroke-linecap="round" stroke-linejoin="round"/>
<path d="M62.7529 129.923C60.1262 132.711 55.4453 139.661 57.7359 145.155C60.6317 142.82 65.6893 136.503 62.7529 129.923Z" fill="#F3DFD0" stroke="#939676" stroke-width="2" stroke-linecap="round" stroke-linejoin="round"/>
<path d="M21.3103 119.403C17.5148 118.887 9.13896 119.118 6.00005 124.176C9.58416 125.174 17.664 125.617 21.3103 119.403Z" fill="#F3DFD0" stroke="#939676" stroke-width="2" stroke-linecap="round" stroke-linejoin="round"/>
<path d="M21.3105 146.403C17.515 145.887 9.13921 146.118 6.0003 151.176C9.58441 152.174 17.6642 152.617 21.3105 146.403Z" fill="#F3DFD0" stroke="#939676" stroke-width="2" stroke-linecap="round" stroke-linejoin="round"/>
<path d="M28.7288 93.7455C24.9332 93.2291 16.5574 93.4608 13.4185 98.5188C17.0026 99.517 25.0824 99.9598 28.7288 93.7455Z" fill="#F3DFD0" stroke="#939676" stroke-width="2" stroke-linecap="round" stroke-linejoin="round"/>
<path d="M48.8633 95.1484C45.0334 95.2193 36.7919 96.7308 34.4644 102.21C38.1591 102.647 46.2115 101.848 48.8633 95.1484Z" fill="#F3DFD0" stroke="#939676" stroke-width="2" stroke-linecap="round" stroke-linejoin="round"/>
<path d="M75.7507 94.6232C72.0378 93.6815 63.6894 92.9659 59.9994 97.6371C63.4479 99.0337 71.426 100.386 75.7507 94.6232Z" fill="#F3DFD0" stroke="#939676" stroke-width="2" stroke-linecap="round" stroke-linejoin="round"/>
<path d="M99.1829 147.813C95.4997 148.865 87.923 152.443 87.0812 158.336C90.7643 157.81 98.341 154.968 99.1829 147.813Z" fill="#F3DFD0" stroke="#939676" stroke-width="2" stroke-linecap="round" stroke-linejoin="round"/>
<path d="M31.834 72.5715L61.299 14.6938" stroke="#939676" stroke-width="2" stroke-linecap="round" stroke-linejoin="round"/>
<path d="M92.3431 72.0455L62.8781 15.2202C62.1766 14.694 61.0892 13.0103 62.352 10.4848C63.9304 7.3278 65.5088 6.80164 65.5088 5.22316C65.5088 3.64468 64.4565 1.54004 62.3519 1.54004C60.2472 1.54004 58.6687 2.59236 58.1426 5.22316" stroke="#939676" stroke-width="2" stroke-linecap="round" stroke-linejoin="round"/>
<path d="M78.073 153.54C75.5903 156.457 71.2661 163.634 73.8309 169.006C76.6052 166.527 81.3377 159.963 78.073 153.54Z" fill="#F3DFD0" stroke="#939676" stroke-width="2" stroke-linecap="round" stroke-linejoin="round"/>
<path d="M36.0435 72.5717C28.8527 91.1626 15.839 131.923 21.311 146.234" stroke="#939676" stroke-width="2" stroke-linecap="round" stroke-linejoin="round"/>
<path d="M58.142 73.0978C52.0035 83.4457 41.3049 109.403 47.6188 130.449" stroke="#939676" stroke-width="2" stroke-linecap="round" stroke-linejoin="round"/>
<path d="M92.3428 73.0978C99.709 84.8488 111.179 116.874 98.1305 150.97" stroke="#939676" stroke-width="2" stroke-linecap="round" stroke-linejoin="round"/>
<path d="M84.4503 72.5718C86.7303 75.378 87.3968 84.6735 71.8224 99.4059C52.3545 117.822 66.0347 145.182 78.1363 153.6" stroke="#939676" stroke-width="2" stroke-linecap="round" stroke-linejoin="round"/>
<path d="M80.7675 120.978C95.079 106.667 95.5 82.7441 93.9215 72.5717H30.7823C25.3102 88.146 35.8685 111.332 41.8316 120.978H80.7675Z" stroke="#939676" stroke-width="2" stroke-linecap="round" stroke-linejoin="round"/>
<path d="M47.8308 130.54C44.4517 132.344 37.7978 137.436 38.2151 143.375C41.705 142.085 48.514 137.713 47.8308 130.54Z" fill="#F3DFD0" stroke="#939676" stroke-width="2" stroke-linecap="round" stroke-linejoin="round"/>
<path d="M100.235 93.0918C96.5522 94.1441 88.9755 97.722 88.1337 103.615C91.8168 103.089 99.3935 100.248 100.235 93.0918Z" fill="#F3DFD0" stroke="#939676" stroke-width="2" stroke-linecap="round" stroke-linejoin="round"/>
<path d="M63.9297 114.099C67.688 114.839 75.5375 117.77 76.8696 123.572C73.1554 123.356 65.3675 121.159 63.9297 114.099Z" fill="#F3DFD0" stroke="#939676" stroke-width="2" stroke-linecap="round" stroke-linejoin="round"/>
</svg>
