<svg width="148" height="121" viewBox="0 0 148 121" fill="none" xmlns="http://www.w3.org/2000/svg">
<path opacity="0.35" fill-rule="evenodd" clip-rule="evenodd" d="M75.3896 1.56766C91.4274 4.72635 99.4013 21.1852 109.954 33.6688C119.093 44.4815 131.275 54.0823 131.741 68.2328C132.216 82.6818 123.004 95.4254 112.306 105.15C102.154 114.378 89.0443 118.125 75.3896 119.455C59.7546 120.979 43.255 122.292 30.5009 113.121C15.8574 102.592 5.39189 86.2265 4.15457 68.2328C2.84324 49.1629 9.91505 29.776 23.8716 16.7148C37.4578 4.00014 57.1325 -2.0281 75.3896 1.56766Z" fill="#DBA278"/>
<path d="M130.869 79.5307L139.215 23.7456H63.2246L71.1312 79.5307H130.869Z" stroke="#939676" stroke-width="3" stroke-linejoin="round"/>
<rect x="55.5" y="5.04004" width="91" height="18.0841" rx="2.5" stroke="#939676" stroke-width="3"/>
<path d="M87.5 100.04L97 36.54H10.5L19.5 100.04H87.5Z" fill="#F3DFD0" stroke="#939676" stroke-width="3" stroke-linejoin="round"/>
<rect x="1.5" y="15.04" width="104" height="21" rx="2.5" fill="#F3DFD0" stroke="#939676" stroke-width="3"/>
</svg>
