<svg width="128" height="120" viewBox="0 0 128 120" fill="none" xmlns="http://www.w3.org/2000/svg">
<path opacity="0.35" fill-rule="evenodd" clip-rule="evenodd" d="M71.3896 1.02762C87.4274 4.18631 95.4013 20.6452 105.954 33.1288C115.093 43.9415 127.275 53.5423 127.741 67.6927C128.216 82.1418 119.004 94.8854 108.306 104.61C98.1543 113.838 85.0443 117.585 71.3896 118.915C55.7546 120.439 39.255 121.752 26.5009 112.581C11.8574 102.052 1.39189 85.6864 0.154567 67.6927C-1.15676 48.6229 5.91505 29.2359 19.8716 16.1748C33.4578 3.4601 53.1325 -2.56814 71.3896 1.02762Z" fill="#DBA278"/>
<path d="M59.2197 8.59924L63.3877 2L67.5556 8.59924" stroke="#939676" stroke-width="2" stroke-linejoin="round"/>
<path d="M62.3454 37.7185C65.2985 37.95 67.2513 37.566 69.292 37.0802C71.3759 36.5013 76.2385 30.1449 76.2385 22.8397C76.2385 17.9771 72.5337 7.55728 70.334 6.16797C68.5973 8.59927 65.8187 10.6832 62.7072 13.8092M62.3454 37.7185C58.2616 37.3985 54.2576 35.9016 52.9676 31.8703C50.189 23.1871 54.0096 12.0725 56.4409 6.86263C58.169 8.59069 60.4718 11.0776 62.7072 13.8092M62.3454 37.7185C65.9146 38.3569 69.292 34.9962 70.334 28.397C70.8783 24.9501 66.9119 18.947 62.7072 13.8092" stroke="#939676" stroke-width="2" stroke-linejoin="round"/>
<path d="M102.864 31.887L104.7 24.3006L97.0609 25.9032" stroke="#939676" stroke-width="2" stroke-linejoin="round"/>
<path d="M79.7852 49.9162C77.5631 47.9575 76.4791 46.2884 75.4072 44.4853C74.3718 42.5863 75.5493 34.6703 80.7932 29.5844C84.2838 26.199 94.3428 21.604 96.8716 22.2158C96.3354 25.1552 96.774 28.6006 96.6963 33.0105M79.7852 49.9162C82.8582 52.6249 86.7203 54.4569 90.5123 52.5763C98.6799 48.5255 103.998 38.0449 106.046 32.6724C103.602 32.635 100.213 32.7134 96.6963 33.0105M79.7852 49.9162C76.8421 47.7985 76.9031 43.0344 80.9148 37.6919C83.0101 34.9015 90.0809 33.5692 96.6963 33.0105" stroke="#939676" stroke-width="2" stroke-linejoin="round"/>
<path d="M64.1523 72.5077C72.4882 72.2761 91.8691 67.5756 102.706 50.626C92.8648 53.0573 71.3768 60.8374 64.1523 72.5077Z" stroke="#939676" stroke-width="2" stroke-linejoin="round"/>
<path d="M25.7743 32.5814L23.9389 24.995L31.5778 26.5976" stroke="#939676" stroke-width="2" stroke-linejoin="round"/>
<path d="M48.8534 50.6106C51.0756 48.6519 52.1595 46.9828 53.2315 45.1797C54.2668 43.2808 53.0894 35.3648 47.8455 30.2789C44.3549 26.8935 34.2959 22.2985 31.7671 22.9102C32.3032 25.8496 31.8647 29.2951 31.9424 33.7049M48.8534 50.6106C45.7805 53.3193 41.9184 55.1514 38.1264 53.2707C29.9588 49.22 24.6403 38.7393 22.5932 33.3668C25.0367 33.3295 28.4252 33.4079 31.9424 33.7049M48.8534 50.6106C51.7965 48.493 51.7355 43.7288 47.7239 38.3863C45.6285 35.5959 38.5578 34.2636 31.9424 33.7049" stroke="#939676" stroke-width="2" stroke-linejoin="round"/>
<path d="M63.791 72.5077C55.4551 72.2761 36.0742 67.5756 25.2376 50.626C35.0785 53.0573 56.5666 60.8374 63.791 72.5077Z" stroke="#939676" stroke-width="2" stroke-linejoin="round"/>
<path d="M67.9732 93L64.1526 72.5076L59.29 93H67.9732Z" stroke="#939676" stroke-width="2" stroke-linejoin="round"/>
<path d="M63.8056 31.8701L59.6377 38.4694L61.027 40.5533L63.4583 43.3319L66.5843 39.8587L67.9072 38.3642L63.8056 31.8701Z" fill="#F3DFD0"/>
<path d="M67.9736 38.4694L67.9072 38.3642M67.9072 38.3642L63.8056 31.8701L59.6377 38.4694L61.027 40.5533L63.4583 43.3319L66.5843 39.8587L67.9072 38.3642Z" stroke="#939676" stroke-width="2" stroke-linejoin="round"/>
<path d="M62.7634 67.5887C65.7165 67.8201 67.6693 67.4362 69.7099 66.9504C71.7939 66.3715 76.6565 60.015 76.6565 52.7099C76.6565 47.8473 72.9517 37.4275 70.752 36.0381C69.0153 38.4694 66.2366 40.5534 63.1252 43.6794M62.7634 67.5887C58.6795 67.2687 54.6756 65.7718 53.3856 61.7404C50.6069 53.0572 54.4276 41.9427 56.8589 36.7328C58.5869 38.4609 60.8897 40.9478 63.1252 43.6794M62.7634 67.5887C66.3325 68.227 69.7099 64.8664 70.752 58.2672C71.2963 54.8203 67.3299 48.8171 63.1252 43.6794" stroke="#939676" stroke-width="2" stroke-linejoin="round"/>
<path d="M64.1523 72.8552C70.0569 75.8654 85.2699 78.8987 98.8852 66.9506C90.6651 65.0982 72.2104 63.6857 64.1523 72.8552Z" fill="#F3DFD0" stroke="#939676" stroke-width="2" stroke-linejoin="round"/>
<path d="M63.791 72.8549C57.8864 75.8651 42.6735 78.8985 29.0582 66.9504C37.2783 65.0979 55.733 63.6855 63.791 72.8549Z" fill="#F3DFD0" stroke="#939676" stroke-width="2" stroke-linejoin="round"/>
</svg>
