<svg width="128" height="150" viewBox="0 0 128 150" fill="none" xmlns="http://www.w3.org/2000/svg">
<path opacity="0.35" fill-rule="evenodd" clip-rule="evenodd" d="M71.3896 30.5677C87.4274 33.7264 95.4013 50.1852 105.954 62.6688C115.093 73.4815 127.275 83.0823 127.741 97.2328C128.216 111.682 119.004 124.425 108.306 134.15C98.1543 143.378 85.0443 147.125 71.3896 148.455C55.7546 149.979 39.255 151.292 26.5009 142.121C11.8574 131.592 1.39189 115.226 0.154567 97.2328C-1.15676 78.1629 5.91505 58.776 19.8716 45.7148C33.4578 33.0001 53.1325 26.9719 71.3896 30.5677Z" fill="#DBA278"/>
<path d="M117.5 2.54004H64.4999C68 22.04 68 33.54 68 44.54C68 55.54 57.4999 62.04 55.9999 88.54C54.7999 109.74 69.4999 125.04 76.9999 130.04L72.4999 147.04H108L105 130.04C119.5 121.54 124 105.569 124 88.54C124 71.5107 114.5 58.04 113.5 45.04C112.7 34.64 115.833 12.3734 117.5 2.54004Z" stroke="#939676" stroke-width="4" stroke-linejoin="round"/>
<path d="M47.9997 80.04C43.5997 67.64 48.4997 51.54 51.4997 45.04H21.5C28.5 68.04 27 75.04 25.5 80.04C22.0518 91.534 2.99947 94.54 2.49947 115.04C2.09947 131.44 16.3328 139.54 23.4995 141.54V147.04H52.4995V141.54C58.4995 139.873 70.4995 132.24 70.4995 115.04C70.4995 93.54 53.4997 95.54 47.9997 80.04Z" fill="#F3DFD0" stroke="#939676" stroke-width="4" stroke-linejoin="round"/>
</svg>
