<svg width="137" height="121" viewBox="0 0 137 121" fill="none" xmlns="http://www.w3.org/2000/svg">
<path opacity="0.35" fill-rule="evenodd" clip-rule="evenodd" d="M76.3896 1.56766C92.4274 4.72635 100.401 21.1852 110.954 33.6688C120.093 44.4815 132.275 54.0823 132.741 68.2328C133.216 82.6818 124.004 95.4254 113.306 105.15C103.154 114.378 90.0443 118.125 76.3896 119.455C60.7546 120.979 44.255 122.292 31.5009 113.121C16.8574 102.592 6.39189 86.2265 5.15457 68.2328C3.84324 49.1629 10.915 29.776 24.8716 16.7148C38.4578 4.00014 58.1325 -2.0281 76.3896 1.56766Z" fill="#DBA278"/>
<path d="M48.5286 66.237L48.487 66.2244L48.4447 66.2142C44.4483 65.2521 38.452 62.7097 33.5946 58.2598C28.7739 53.8435 25.112 47.5946 25.533 39.0934C25.7361 34.993 27.3509 32.2726 29.7733 30.4488C32.2602 28.5765 35.7305 27.5535 39.7514 27.1921C47.7586 26.4724 57.3345 28.4279 63.7654 30.4981C68.3192 32.6622 74.7843 36.6262 79.495 41.4949C84.2889 46.4495 86.8657 51.8866 84.7469 57.1983C81.899 64.3376 76.5265 67.6365 70.0283 68.6708C63.4328 69.7206 55.7158 68.4149 48.5286 66.237Z" stroke="#939676" stroke-width="3"/>
<path d="M91.5897 51.3461C91.5049 44.0507 85.9981 32.7197 66.2912 24.0784C68.2487 21.5025 71.1897 18.6677 74.618 17.1487C76.6423 16.2518 78.7981 15.8293 81.0205 16.1431C83.2356 16.4559 85.6326 17.5161 88.1236 19.773C94.6411 25.678 97.3648 31.0608 98.1982 35.4327C99.0324 39.8091 98.0005 43.3157 96.7585 45.5254C95.4665 47.8241 93.3888 49.8796 91.5897 51.3461Z" stroke="#939676" stroke-width="3"/>
<path d="M90.1261 61.3119L90.7647 60.0245C92.662 59.1388 95.2889 57.5017 97.7186 55.1557C100.23 52.7308 102.601 49.4792 103.675 45.4381C107.128 43.9593 112.412 42.6353 117.731 43.1553C123.324 43.7021 128.929 46.2719 132.634 52.9106C137.296 61.2655 135.627 68.7654 132.188 74.2592C130.456 77.026 128.281 79.2648 126.263 80.8008C125.254 81.5685 124.306 82.1443 123.495 82.5221C123.123 82.6952 122.802 82.8165 122.533 82.898C119.007 77.3583 108.731 67.2902 90.1261 61.3119Z" stroke="#939676" stroke-width="3"/>
<path d="M54.6465 87.22C54.0311 82.4044 55.4135 77.8897 57.546 75.4574C60.7082 75.5819 65.5371 75.3232 70.6872 74.1878C75.959 73.0255 81.6854 70.9186 86.3044 67.2559C89.4651 68.507 94.2552 70.6348 99.2259 73.3039C104.658 76.2207 110.211 79.7339 114.097 83.4005C116.495 85.6622 117.681 87.5873 118.184 89.1529C118.677 90.6887 118.541 91.9611 118.133 93.0201C117.274 95.2523 115.152 96.7011 114.295 97.2716C113.622 97.7203 106.801 101.425 97.2453 103.554C87.7096 105.679 75.648 106.19 64.3202 100.532C58.0999 97.4249 55.2894 92.2512 54.6465 87.22Z" stroke="#939676" stroke-width="3"/>
<path d="M14.5034 53.9068C16.4455 52.7693 18.5149 52.0141 21.6545 51.2831C24.5253 57.8936 33.7452 69.4226 52.2172 73.5981C51.2206 77.506 48.6804 82.7423 43.9056 87.0557C38.5699 91.8759 30.3639 95.6167 18.1733 94.9664C12.3279 94.6547 8.44191 92.6668 5.90819 89.9099C3.34953 87.1258 2.03166 83.4058 1.63268 79.4119C1.23383 75.4193 1.76576 71.2517 2.80638 67.7153C3.86217 64.1274 5.37491 61.4103 6.76172 60.1445C10.1445 57.057 12.2768 55.211 14.5034 53.9068Z" stroke="#939676" stroke-width="3"/>
</svg>
