<svg width="128" height="130" viewBox="0 0 128 130" fill="none" xmlns="http://www.w3.org/2000/svg">
<path opacity="0.35" fill-rule="evenodd" clip-rule="evenodd" d="M71.3896 10.9778C87.4274 14.1365 95.4013 30.5954 105.954 43.079C115.093 53.8917 127.275 63.4925 127.741 77.6429C128.216 92.092 119.004 104.836 108.306 114.56C98.1543 123.788 85.0443 127.535 71.3896 128.865C55.7546 130.389 39.255 131.703 26.5009 122.532C11.8574 112.002 1.39189 95.6366 0.154567 77.6429C-1.15676 58.5731 5.91505 39.1861 19.8716 26.1249C33.4578 13.4103 53.1325 7.38205 71.3896 10.9778Z" fill="#DBA278"/>
<path d="M102.59 94.6626H32.4224L11.533 66.0059C10.9973 65.0686 9.25629 63.542 6.57811 64.9347C3.89994 66.3274 4.92622 69.086 5.77413 70.2912L28.8068 102.831H102.59C104.568 102.831 111.435 103.4 111.435 98.6017C111.435 94.2998 105.313 94.6626 102.59 94.6626Z" stroke="#939676" stroke-width="4"/>
<path d="M61.624 116.891C61.624 117.996 62.5195 118.891 63.624 118.891C64.7286 118.891 65.624 117.996 65.624 116.891H61.624ZM61.624 102.965V116.891H65.624V102.965H61.624Z" fill="#939676"/>
<path d="M28.8076 102.831C27.8432 104.224 26.4416 112.517 25.8613 116.49" stroke="#939676" stroke-width="4" stroke-linecap="round"/>
<path d="M109.257 116.602C109.417 117.695 108.66 118.71 107.567 118.87C106.474 119.03 105.459 118.273 105.299 117.18L109.257 116.602ZM105.976 102.094C106.253 102.494 106.451 102.982 106.595 103.382C106.752 103.821 106.904 104.333 107.05 104.88C107.342 105.976 107.636 107.315 107.911 108.706C108.463 111.492 108.964 114.593 109.257 116.602L105.299 117.18C105.012 115.216 104.522 112.184 103.987 109.483C103.719 108.129 103.445 106.886 103.185 105.911C103.055 105.422 102.935 105.027 102.829 104.731C102.708 104.394 102.652 104.319 102.688 104.371L105.976 102.094Z" fill="#939676"/>
<path d="M63.4971 2C18.4348 2.00003 13.4816 43.341 12.5586 44.8174C27.0278 33.5962 41.2266 40.1419 46.5174 44.8174C59.6579 34.3344 74.3856 40.4495 80.1069 44.8174C93.3947 35.5156 108.036 40.9417 113.696 44.8174C111.974 29.9913 98.009 1.99998 63.4971 2Z" stroke="#939676" stroke-width="4" stroke-linejoin="round"/>
<path d="M63.6816 2C64.604 2.7383 78.8142 8.09027 80.4756 44.0791" stroke="#939676" stroke-width="4"/>
<path d="M63.6816 2C62.7592 2.7383 48.5491 8.09027 46.8877 44.0791" stroke="#939676" stroke-width="4"/>
<path d="M63.3125 39.2812V94.2793" stroke="#939676" stroke-width="4"/>
<path d="M45.9473 83.1465L54.5176 94.7966" stroke="#939676" stroke-width="4"/>
<path d="M52.9111 84.3428C54.0157 84.3428 54.9111 83.4473 54.9111 82.3428C54.9111 81.2382 54.0157 80.3428 52.9111 80.3428V84.3428ZM24.1201 84.3428H52.9111V80.3428H24.1201V84.3428Z" fill="#939676"/>
</svg>
