<svg width="130" height="121" viewBox="0 0 130 121" fill="none" xmlns="http://www.w3.org/2000/svg">
<path opacity="0.35" fill-rule="evenodd" clip-rule="evenodd" d="M73.3896 1.56766C89.4274 4.72635 97.4013 21.1852 107.954 33.6688C117.093 44.4815 129.275 54.0823 129.741 68.2328C130.216 82.6818 121.004 95.4254 110.306 105.15C100.154 114.378 87.0443 118.125 73.3896 119.455C57.7546 120.979 41.255 122.292 28.5009 113.121C13.8574 102.592 3.39189 86.2265 2.15457 68.2328C0.843239 49.1629 7.91505 29.776 21.8716 16.7148C35.4578 4.00014 55.1325 -2.0281 73.3896 1.56766Z" fill="#DBA278"/>
<path d="M62.5855 76.0402C41.9815 78.1144 1.02219 76.7869 2.01783 54.883C3.01346 32.9791 6.58115 23.078 8.24054 20.8655C12.1124 11.8772 29.9785 -0.291695 70.4676 22.9398" stroke="#939676" stroke-width="3"/>
<path d="M11.5588 52.8088C13.9096 50.458 20.6855 46.1712 28.9824 47.8306C37.2794 49.49 42.3958 45.7564 43.9169 43.6821" stroke="#939676" stroke-width="3" stroke-linecap="round" stroke-linejoin="round"/>
<path d="M80.0083 31.6515C79.1786 28.7475 83.327 24.1842 84.1567 22.11L71.2967 23.3545C68.5311 40.0867 62.9168 74.0489 62.585 76.0401C62.2531 78.0314 70.4671 80.4652 74.6155 81.4332C74.0624 77.9761 72.9561 70.5642 72.9561 68.5729C72.9561 66.0838 76.2749 66.0838 77.9343 61.9353C79.5937 57.7869 76.2749 54.8829 76.2749 51.1493C76.2749 47.4157 78.764 47.0008 80.0083 42.0227C81.2525 37.0445 80.8379 34.5554 80.0083 31.6515Z" stroke="#939676" stroke-width="3" stroke-linejoin="round"/>
<path d="M99.8048 52.5953C99.3168 53.0106 98.3942 53.2171 97.0007 52.7471C95.6401 52.2882 94.0899 51.2467 92.7509 49.6734C91.4119 48.1 90.6317 46.4032 90.3963 44.9868C90.1552 43.5359 90.5065 42.6582 90.9945 42.2429C91.4825 41.8276 92.4051 41.6212 93.7987 42.0912C95.1593 42.5501 96.7095 43.5915 98.0485 45.1649C99.3875 46.7383 100.168 48.435 100.403 49.8515C100.644 51.3023 100.293 52.18 99.8048 52.5953Z" stroke="#939676" stroke-width="3"/>
<path d="M105.674 77.9831C105.061 78.1696 104.133 77.9914 103.042 77.005C101.977 76.0421 100.97 74.4693 100.368 72.4927C99.7671 70.5161 99.7276 68.649 100.076 67.256C100.433 65.8293 101.105 65.1642 101.718 64.9777C102.331 64.7912 103.259 64.9694 104.35 65.9557C105.415 66.9187 106.422 68.4915 107.024 70.4681C107.625 72.4447 107.665 74.3118 107.316 75.7048C106.959 77.1315 106.287 77.7966 105.674 77.9831Z" stroke="#939676" stroke-width="3"/>
<path d="M103.692 101.211C103.052 101.195 102.227 100.733 101.502 99.4534C100.794 98.2039 100.334 96.394 100.386 94.3286C100.438 92.2633 100.989 90.4787 101.758 89.2665C102.547 88.0248 103.394 87.6053 104.034 87.6214C104.675 87.6375 105.5 88.0992 106.225 89.379C106.932 90.6284 107.392 92.4384 107.34 94.5037C107.288 96.5691 106.738 98.3536 105.968 99.5659C105.18 100.808 104.333 101.227 103.692 101.211Z" stroke="#939676" stroke-width="3"/>
<path d="M87.5579 87.8455C86.9258 87.9509 86.0284 87.6537 85.0746 86.5341C84.1435 85.4411 83.3492 83.7509 83.0094 81.713C82.6697 79.6751 82.8727 77.8187 83.399 76.4827C83.938 75.1143 84.6905 74.542 85.3226 74.4367C85.9547 74.3313 86.8521 74.6285 87.8059 75.748C88.737 76.8411 89.5313 78.5313 89.8711 80.5691C90.2108 82.607 90.0078 84.4635 89.4815 85.7995C88.9425 87.1679 88.19 87.7401 87.5579 87.8455Z" stroke="#939676" stroke-width="3"/>
<path d="M30.6413 35.3852C21.6806 36.7127 19.4404 44.7884 19.4404 48.6603C23.1741 54.0533 33.1304 62.8481 43.0867 54.883C55.5321 44.9267 53.8728 35.3852 53.8728 32.0664C43.0867 39.1188 41.8422 33.7258 30.6413 35.3852Z" stroke="#939676" stroke-width="3" stroke-linejoin="round"/>
</svg>
