<svg width="128" height="120" viewBox="0 0 128 120" fill="none" xmlns="http://www.w3.org/2000/svg">
<path opacity="0.35" fill-rule="evenodd" clip-rule="evenodd" d="M71.3896 1.02762C87.4274 4.18631 95.4013 20.6452 105.954 33.1288C115.093 43.9415 127.275 53.5423 127.741 67.6927C128.216 82.1418 119.004 94.8854 108.306 104.61C98.1543 113.838 85.0443 117.585 71.3896 118.915C55.7546 120.439 39.255 121.752 26.5009 112.581C11.8574 102.052 1.39189 85.6864 0.154567 67.6927C-1.15676 48.6229 5.91505 29.2359 19.8716 16.1748C33.4578 3.4601 53.1325 -2.56814 71.3896 1.02762Z" fill="#DBA278"/>
<path d="M91.0393 80.4223L72.6374 72.1878C71.924 71.8791 71.1449 71.753 70.3706 71.8211C69.5963 71.8891 68.8511 72.1491 68.2025 72.5775C68.1507 72.6104 68.1012 72.6469 68.0545 72.6867L58.3897 80.9251C58.1746 81.0562 57.9305 81.1323 57.679 81.1466C57.4275 81.1609 57.1763 81.1129 56.9478 81.0069C50.619 77.9516 44.068 71.4513 41.0127 65.1965C40.9046 64.9697 40.8545 64.7196 40.8667 64.4687C40.8789 64.2177 40.9532 63.9737 41.0828 63.7585L49.3446 53.934C49.3836 53.8872 49.4187 53.8365 49.4537 53.7859C49.8808 53.1382 50.1401 52.3944 50.2081 51.6216C50.2761 50.8488 50.1508 50.0711 49.8435 49.3588L41.5934 30.988C41.1951 30.0576 40.5057 29.2815 39.6287 28.7762C38.7517 28.271 37.7345 28.0639 36.7298 28.186C31.8256 28.8326 27.3245 31.2424 24.0672 34.9651C20.8099 38.6879 19.0191 43.4691 19.0293 48.4157C19.0293 78.5011 43.5029 102.975 73.5883 102.975C78.5349 102.985 83.3161 101.194 87.0389 97.9368C90.7616 94.6795 93.1714 90.1784 93.818 85.2742C93.9392 84.2741 93.7343 83.2615 93.2336 82.3873C92.7329 81.513 91.9633 80.8239 91.0393 80.4223ZM90.7354 84.8845C90.1851 89.0378 88.1409 92.8484 84.9851 95.604C81.8293 98.3596 77.7778 99.8715 73.5883 99.857C45.2254 99.857 22.147 76.7786 22.147 48.4157C22.1325 44.2262 23.6444 40.1747 26.4 37.0189C29.1556 33.8631 32.9662 31.8189 37.1195 31.2686C37.1818 31.2648 37.2443 31.2648 37.3066 31.2686C37.6141 31.2712 37.914 31.3648 38.1685 31.5374C38.423 31.7101 38.6207 31.9542 38.7368 32.239L46.9635 50.6098C47.0595 50.8343 47.1014 51.0782 47.0858 51.3219C47.0703 51.5656 46.9977 51.8022 46.8739 52.0127L38.616 61.8333C38.577 61.884 38.5381 61.9307 38.503 61.9853C38.063 62.6581 37.8039 63.4329 37.7507 64.235C37.6974 65.0371 37.8519 65.8393 38.199 66.5644C41.5856 73.4972 48.5691 80.4301 55.5799 83.8167C56.3099 84.1616 57.1167 84.3116 57.9219 84.2522C58.7271 84.1928 59.5031 83.926 60.1746 83.4776L60.3188 83.3685L69.9952 75.1379C70.2022 75.0115 70.4363 74.936 70.6781 74.9177C70.92 74.8994 71.1628 74.9388 71.3864 75.0327L89.7845 83.2789C90.095 83.4081 90.3553 83.6343 90.5267 83.9237C90.6981 84.2131 90.7713 84.5501 90.7354 84.8845Z" fill="#939676"/>
<path d="M81.5516 37.5138C81.131 36.4769 80.3629 35.6184 79.3789 35.0855C78.3949 34.5526 77.2562 34.3784 76.1579 34.5927C75.0596 34.8071 74.0699 35.3966 73.3585 36.2604C72.6471 37.1242 72.2581 38.2085 72.2582 39.3275C72.2582 39.8229 72.1565 40.313 71.9593 40.7675C71.7621 41.2219 71.4737 41.631 71.1119 41.9695C70.7501 42.3079 70.3227 42.5684 69.8561 42.7348C69.3895 42.9013 68.8937 42.9701 68.3994 42.9371C69.1944 44.3182 70.4231 45.3982 71.8947 46.0094C73.3664 46.6206 74.9987 46.7289 76.5382 46.3175C78.0777 45.906 79.4383 44.9978 80.4088 43.7339C81.3793 42.47 81.9053 40.921 81.9053 39.3275C81.9053 38.686 81.7799 38.0734 81.5516 37.5138ZM81.5516 37.5138C83.4634 36.8625 85.2917 35.9882 86.999 34.9091M78.8906 34.8689C79.5421 32.9531 80.4175 31.1209 81.4985 29.4103M86.9974 34.9091C90.0464 32.9827 92.6562 30.4365 94.6572 27.4359L100.889 18.0878C101.128 17.7318 101.236 17.3039 101.194 16.8773C101.152 16.4506 100.964 16.0517 100.661 15.7486C100.358 15.4455 99.9586 15.257 99.532 15.2153C99.1054 15.1736 98.6775 15.2814 98.3214 15.5201L88.9734 21.7537C85.9724 23.7541 83.4256 26.3633 81.4985 29.4119C83.9455 30.506 85.9033 32.4638 86.9974 34.9107" stroke="#939676" stroke-width="1.5" stroke-linecap="round" stroke-linejoin="round"/>
<path d="M52.2395 29.5105C50.5756 45.0399 65.416 53.04 73.8866 55.8635C73.8866 60.3811 67.6121 64.3341 64.4748 65.7459C78.4042 67.2517 86.5925 61.04 88.9454 57.7458C115.298 56.8047 123.196 41.6811 122.357 29.5105C121.706 20.0628 112.945 4.09864 88.9454 5.03982C64.9454 5.981 53.6513 16.334 52.2395 29.5105Z" stroke="#939676" stroke-width="2" stroke-linejoin="round"/>
</svg>
