<svg width="129" height="121" viewBox="0 0 129 121" fill="none" xmlns="http://www.w3.org/2000/svg">
<path opacity="0.35" fill-rule="evenodd" clip-rule="evenodd" d="M72.1484 1.28445C88.1862 4.44315 96.1601 20.902 106.712 33.3856C115.852 44.1983 128.034 53.7991 128.5 67.9496C128.975 82.3986 119.763 95.1422 109.065 104.866C98.913 114.094 85.8031 117.841 72.1484 119.172C56.5134 120.696 40.0138 122.009 27.2597 112.838C12.6162 102.309 2.15068 85.9433 0.913357 67.9496C-0.397972 48.8797 6.67384 29.4928 20.6304 16.4316C34.2166 3.71694 53.8913 -2.31131 72.1484 1.28445Z" fill="#DBA278"/>
<path d="M27.3852 42.9521H103.194C107.56 42.9521 111.364 45.9274 112.415 50.1645L122.31 90.0478C123.797 96.0396 119.263 101.835 113.09 101.835H15.5109C9.15552 101.835 4.59241 95.7158 6.4059 89.6247L18.2802 49.7414C19.4794 45.7135 23.1826 42.9521 27.3852 42.9521Z" stroke="#939676" stroke-width="3"/>
<path d="M6.55469 86.3984H121.412" stroke="#939676" stroke-width="3"/>
</svg>
