<svg width="129" height="128" viewBox="0 0 129 128" fill="none" xmlns="http://www.w3.org/2000/svg">
<path opacity="0.35" fill-rule="evenodd" clip-rule="evenodd" d="M71.9071 8.97098C87.945 12.1297 95.9188 28.5885 106.471 41.0721C115.611 51.8849 127.793 61.4857 128.258 75.6361C128.734 90.0851 119.522 102.829 108.824 112.553C98.6718 121.781 85.5618 125.528 71.9071 126.859C56.2722 128.382 39.7725 129.696 27.0185 120.525C12.375 109.995 1.90947 93.6298 0.672146 75.6361C-0.639183 56.5662 6.43262 37.1793 20.3892 24.1181C33.9754 11.4035 53.6501 5.37522 71.9071 8.97098Z" fill="#DBA278"/>
<path d="M6.43164 62.0349V45.168H122.516V62.0349H115.571L105.401 52.6093H24.0426L13.3767 62.0349H6.43164Z" stroke="#939676" stroke-width="4" stroke-linejoin="round"/>
<path d="M22.291 107.923C22.291 109.028 23.1864 109.923 24.291 109.923C25.3956 109.923 26.291 109.028 26.291 107.923H22.291ZM22.291 53.3535V107.923H26.291V53.3535H22.291Z" fill="#939676"/>
<path d="M102.161 107.923C102.161 109.028 103.057 109.923 104.161 109.923C105.266 109.923 106.161 109.028 106.161 107.923H102.161ZM102.161 53.3535V107.923H106.161V53.3535H102.161Z" fill="#939676"/>
<path d="M120.516 116.605C120.516 117.709 121.411 118.605 122.516 118.605C123.62 118.605 124.516 117.709 124.516 116.605H120.516ZM120.516 62.0352V116.605H124.516V62.0352H120.516Z" fill="#939676"/>
<path d="M4.43164 116.605C4.43164 117.709 5.32707 118.605 6.43164 118.605C7.53621 118.605 8.43164 117.709 8.43164 116.605H4.43164ZM4.43164 62.0352V116.605H8.43164V62.0352H4.43164Z" fill="#939676"/>
<path d="M6.43164 45.1684H122.516C84.9689 32.8654 68.0933 11.4344 64.3489 2.25684C54.1634 23.8862 21.4934 39.8768 6.43164 45.1684Z" stroke="#939676" stroke-width="4" stroke-linejoin="round"/>
</svg>
