<svg width="128" height="147" viewBox="0 0 128 147" fill="none" xmlns="http://www.w3.org/2000/svg">
<path opacity="0.35" fill-rule="evenodd" clip-rule="evenodd" d="M71.3896 27.5674C87.4274 30.7261 95.4013 47.185 105.954 59.6686C115.093 70.4813 127.275 80.0821 127.741 94.2325C128.216 108.682 119.004 121.425 108.306 131.149C98.1543 140.377 85.0443 144.124 71.3896 145.455C55.7546 146.979 39.255 148.292 26.5009 139.121C11.8574 128.592 1.39189 112.226 0.154567 94.2325C-1.15676 75.1627 5.91505 55.7757 19.8716 42.7145C33.4578 29.9999 53.1325 23.9717 71.3896 27.5674Z" fill="#DBA278"/>
<path d="M19.9998 66.5398C24.7998 85.7398 49.3331 85.8731 60.9998 83.5398L94 74.5398L101 56.0398C102.167 55.2065 103.8 50.0398 101 36.0398C98.2 22.0398 85.5 18.5398 79.5 18.5398C79.5 12.7064 75.4 1.23977 59 2.03977C42.6 2.83977 38.4999 23.0398 38.4998 33.0398C30.3331 36.2064 15.1998 47.3398 19.9998 66.5398Z" stroke="#939676" stroke-width="3" stroke-linejoin="round"/>
<path d="M60 33.54V134.04" stroke="#939676" stroke-width="3" stroke-linecap="round" stroke-linejoin="round"/>
<path d="M28 136.04H94.5" stroke="#939676" stroke-width="3" stroke-linecap="round" stroke-linejoin="round"/>
<path d="M43.5 52.54L59.5 68.04" stroke="#939676" stroke-width="3" stroke-linecap="round" stroke-linejoin="round"/>
<path d="M65.0003 96.5398C70.6003 106.94 86.0003 104.873 93.0003 102.54C98.5002 105.706 111.1 108.94 117.5 96.5398C123.9 84.1398 117.167 75.3731 113 72.5398C115.333 69.3731 117.3 61.6398 106.5 56.0398C95.7 50.4398 86.3335 61.7065 83.0003 68.0398C59.5003 66.5398 58.0003 83.5398 65.0003 96.5398Z" fill="#F3DFD0" stroke="#939676" stroke-width="3" stroke-linejoin="round"/>
<path d="M60.5 109.54L90.5 89.54" stroke="#939676" stroke-width="3" stroke-linecap="round" stroke-linejoin="round"/>
</svg>
