<svg width="128" height="133" viewBox="0 0 128 133" fill="none" xmlns="http://www.w3.org/2000/svg">
<path opacity="0.35" fill-rule="evenodd" clip-rule="evenodd" d="M71.3896 14.0276C87.4274 17.1863 95.4013 33.6452 105.954 46.1288C115.093 56.9415 127.275 66.5423 127.741 80.6927C128.216 95.1418 119.004 107.885 108.306 117.61C98.1543 126.838 85.0443 130.585 71.3896 131.915C55.7546 133.439 39.255 134.752 26.5009 125.581C11.8574 115.052 1.39189 98.6864 0.154567 80.6927C-1.15676 61.6229 5.91505 42.2359 19.8716 29.1748C33.4578 16.4601 53.1325 10.4319 71.3896 14.0276Z" fill="#DBA278"/>
<mask id="path-2-inside-1_483_6062" fill="white">
<path d="M26.6812 43.5283C26.6812 23.4778 42.9353 7.22363 62.9858 7.22363V7.22363C83.0363 7.22363 99.2905 23.4778 99.2905 43.5283V103.345H26.6812V43.5283Z"/>
</mask>
<path d="M23.6812 43.5283C23.6812 21.8209 41.2784 4.22363 62.9858 4.22363C84.6932 4.22363 102.29 21.8209 102.29 43.5283H96.2905C96.2905 25.1346 81.3795 10.2236 62.9858 10.2236C44.5922 10.2236 29.6812 25.1346 29.6812 43.5283H23.6812ZM99.2905 103.345H26.6812H99.2905ZM23.6812 103.345V43.5283C23.6812 21.8209 41.2784 4.22363 62.9858 4.22363V10.2236C44.5922 10.2236 29.6812 25.1346 29.6812 43.5283V103.345H23.6812ZM62.9858 4.22363C84.6932 4.22363 102.29 21.8209 102.29 43.5283V103.345H96.2905V43.5283C96.2905 25.1346 81.3795 10.2236 62.9858 10.2236V4.22363Z" fill="#939676" mask="url(#path-2-inside-1_483_6062)"/>
<path d="M25.9112 29.8865C25.9112 29.8865 26.4809 28.747 26.4809 27.6076C26.4809 26.4682 25.3415 25.3287 25.3415 25.3287C25.3415 25.3287 24.202 26.4682 24.202 27.6076C24.202 28.747 24.7718 29.8865 24.7718 29.8865M25.3415 33.3048C25.7948 33.3048 26.2295 33.1247 26.55 32.8042C26.8705 32.4836 27.0506 32.0489 27.0506 31.5956C27.0506 31.1423 26.8705 30.7076 26.55 30.3871C26.2295 30.0665 25.7948 29.8865 25.3415 29.8865C24.8882 29.8865 24.4534 30.0665 24.1329 30.3871C23.8124 30.7076 23.6323 31.1423 23.6323 31.5956C23.6323 32.0489 23.8124 32.4836 24.1329 32.8042C24.4534 33.1247 24.8882 33.3048 25.3415 33.3048Z" stroke="#939676" stroke-miterlimit="1.5" stroke-linecap="round" stroke-linejoin="round"/>
<path d="M23.6324 31.0259C23.6324 31.0259 22.493 30.4562 21.3536 30.4562C20.2141 30.4562 19.0747 31.5956 19.0747 31.5956C19.0747 31.5956 20.2141 32.735 21.3536 32.735C22.493 32.735 23.6324 32.1653 23.6324 32.1653M25.9113 33.3048C25.9113 33.3048 26.481 34.4442 26.481 35.5836C26.481 36.7231 25.3416 37.8625 25.3416 37.8625C25.3416 37.8625 24.2021 36.7231 24.2021 35.5836C24.2021 34.4442 24.7719 33.3048 24.7719 33.3048M27.0507 31.0259C27.0507 31.0259 28.1902 30.4562 29.3296 30.4562C30.469 30.4562 31.6085 31.5956 31.6085 31.5956C31.6085 31.5956 30.469 32.735 29.3296 32.735C28.1902 32.735 27.0507 32.1653 27.0507 32.1653M24.536 29.9845C24.536 29.9845 24.1332 28.7755 23.3271 27.9699C22.5215 27.1644 20.9103 27.1644 20.9103 27.1644C20.9103 27.1644 20.9103 28.7755 21.7159 29.5817C22.5215 30.3873 23.7304 30.79 23.7304 30.79M23.7304 32.4012C23.7304 32.4012 22.5215 32.804 21.7159 33.6101C20.9103 34.4157 20.9103 36.0269 20.9103 36.0269C20.9103 36.0269 22.5215 36.0269 23.3271 35.2213C24.1332 34.4157 24.536 33.2068 24.536 33.2068M26.9533 32.4012C26.9533 32.4012 28.1611 32.804 28.9673 33.6101C29.7728 34.4157 29.7728 36.0269 29.7728 36.0269C29.7728 36.0269 28.1617 36.0269 27.3561 35.2213C26.5499 34.4157 26.1472 33.2068 26.1472 33.2068M26.1472 29.9845C26.1472 29.9845 26.5499 28.7755 27.3561 27.9699C28.1617 27.1644 29.7728 27.1644 29.7728 27.1644C29.7728 27.1644 29.7728 28.7755 28.9673 29.5817C28.1617 30.3873 26.9527 30.79 26.9527 30.79" stroke="#939676" stroke-miterlimit="1.5" stroke-linecap="round" stroke-linejoin="round"/>
<path d="M23.8365 39.4421C23.8365 39.4421 24.4062 38.3027 24.4062 37.1633C24.4062 36.0238 23.2668 34.8844 23.2668 34.8844C23.2668 34.8844 22.1273 36.0238 22.1273 37.1633C22.1273 38.3027 22.697 39.4421 22.697 39.4421M23.2668 42.8604C23.7201 42.8604 24.1548 42.6804 24.4753 42.3598C24.7958 42.0393 24.9759 41.6046 24.9759 41.1513C24.9759 40.698 24.7958 40.2633 24.4753 39.9427C24.1548 39.6222 23.7201 39.4421 23.2668 39.4421C22.8135 39.4421 22.3787 39.6222 22.0582 39.9427C21.7377 40.2633 21.5576 40.698 21.5576 41.1513C21.5576 41.6046 21.7377 42.0393 22.0582 42.3598C22.3787 42.6804 22.8135 42.8604 23.2668 42.8604Z" stroke="#939676" stroke-miterlimit="1.5" stroke-linecap="round" stroke-linejoin="round"/>
<path d="M21.5577 40.5816C21.5577 40.5816 20.4183 40.0118 19.2789 40.0118C18.1394 40.0118 17 41.1513 17 41.1513C17 41.1513 18.1394 42.2907 19.2789 42.2907C20.4183 42.2907 21.5577 41.721 21.5577 41.721M23.8366 42.8604C23.8366 42.8604 24.4063 43.9999 24.4063 45.1393C24.4063 46.2787 23.2669 47.4182 23.2669 47.4182C23.2669 47.4182 22.1274 46.2787 22.1274 45.1393C22.1274 43.9999 22.6972 42.8604 22.6972 42.8604M24.976 40.5816C24.976 40.5816 26.1155 40.0118 27.2549 40.0118C28.3943 40.0118 29.5337 41.1513 29.5337 41.1513C29.5337 41.1513 28.3943 42.2907 27.2549 42.2907C26.1155 42.2907 24.976 41.721 24.976 41.721M22.4613 39.5401C22.4613 39.5401 22.0585 38.3312 21.2524 37.5256C20.4468 36.72 18.8356 36.72 18.8356 36.72C18.8356 36.72 18.8356 38.3312 19.6412 39.1373C20.4468 39.9429 21.6557 40.3457 21.6557 40.3457M21.6557 41.9569C21.6557 41.9569 20.4468 42.3596 19.6412 43.1658C18.8356 43.9714 18.8356 45.5825 18.8356 45.5825C18.8356 45.5825 20.4468 45.5825 21.2524 44.777C22.0585 43.9714 22.4613 42.7624 22.4613 42.7624M24.8786 41.9569C24.8786 41.9569 26.0864 42.3596 26.8925 43.1658C27.6981 43.9714 27.6981 45.5825 27.6981 45.5825C27.6981 45.5825 26.087 45.5825 25.2814 44.777C24.4752 43.9714 24.0725 42.7624 24.0725 42.7624M24.0725 39.5401C24.0725 39.5401 24.4752 38.3312 25.2814 37.5256C26.087 36.72 27.6981 36.72 27.6981 36.72C27.6981 36.72 27.6981 38.3312 26.8925 39.1373C26.087 39.9429 24.878 40.3457 24.878 40.3457" stroke="#939676" stroke-miterlimit="1.5" stroke-linecap="round" stroke-linejoin="round"/>
<path d="M32.1348 40.8251C32.1348 40.8251 32.7045 39.6857 32.7045 38.5463C32.7045 37.4068 31.5651 36.2674 31.5651 36.2674C31.5651 36.2674 30.4257 37.4068 30.4257 38.5463C30.4257 39.6857 30.9954 40.8251 30.9954 40.8251M31.5651 44.2434C32.0184 44.2434 32.4531 44.0633 32.7737 43.7428C33.0942 43.4223 33.2743 42.9876 33.2743 42.5343C33.2743 42.081 33.0942 41.6462 32.7737 41.3257C32.4531 41.0052 32.0184 40.8251 31.5651 40.8251C31.1118 40.8251 30.6771 41.0052 30.3566 41.3257C30.036 41.6462 29.856 42.081 29.856 42.5343C29.856 42.9876 30.036 43.4223 30.3566 43.7428C30.6771 44.0633 31.1118 44.2434 31.5651 44.2434Z" stroke="#939676" stroke-miterlimit="1.5" stroke-linecap="round" stroke-linejoin="round"/>
<path d="M29.8561 41.9646C29.8561 41.9646 28.7166 41.3949 27.5772 41.3949C26.4378 41.3949 25.2983 42.5343 25.2983 42.5343C25.2983 42.5343 26.4378 43.6738 27.5772 43.6738C28.7166 43.6738 29.8561 43.1041 29.8561 43.1041M32.1349 44.2435C32.1349 44.2435 32.7046 45.3829 32.7046 46.5223C32.7046 47.6618 31.5652 48.8012 31.5652 48.8012C31.5652 48.8012 30.4258 47.6618 30.4258 46.5223C30.4258 45.3829 30.9955 44.2435 30.9955 44.2435M33.2744 41.9646C33.2744 41.9646 34.4138 41.3949 35.5532 41.3949C36.6927 41.3949 37.8321 42.5343 37.8321 42.5343C37.8321 42.5343 36.6927 43.6738 35.5532 43.6738C34.4138 43.6738 33.2744 43.1041 33.2744 43.1041M30.7596 40.9232C30.7596 40.9232 30.3568 39.7142 29.5507 38.9087C28.7451 38.1031 27.134 38.1031 27.134 38.1031C27.134 38.1031 27.134 39.7142 27.9395 40.5204C28.7451 41.326 29.9541 41.7288 29.9541 41.7288M29.9541 43.3399C29.9541 43.3399 28.7451 43.7427 27.9395 44.5489C27.134 45.3544 27.134 46.9656 27.134 46.9656C27.134 46.9656 28.7451 46.9656 29.5507 46.16C30.3568 45.3544 30.7596 44.1455 30.7596 44.1455M33.1769 43.3399C33.1769 43.3399 34.3847 43.7427 35.1909 44.5489C35.9965 45.3544 35.9965 46.9656 35.9965 46.9656C35.9965 46.9656 34.3853 46.9656 33.5797 46.16C32.7736 45.3544 32.3708 44.1455 32.3708 44.1455M32.3708 40.9232C32.3708 40.9232 32.7736 39.7142 33.5797 38.9087C34.3853 38.1031 35.9965 38.1031 35.9965 38.1031C35.9965 38.1031 35.9965 39.7142 35.1909 40.5204C34.3853 41.326 33.1764 41.7288 33.1764 41.7288" stroke="#939676" stroke-miterlimit="1.5" stroke-linecap="round" stroke-linejoin="round"/>
<path d="M34.1153 30.7981C34.1153 30.7981 34.685 29.6587 34.685 28.5192C34.685 27.3798 33.5456 26.2404 33.5456 26.2404C33.5456 26.2404 32.4061 27.3798 32.4061 28.5192C32.4061 29.6587 32.9759 30.7981 32.9759 30.7981M33.5456 34.2164C33.9989 34.2164 34.4336 34.0363 34.7541 33.7158C35.0747 33.3953 35.2547 32.9605 35.2547 32.5072C35.2547 32.0539 35.0747 31.6192 34.7541 31.2987C34.4336 30.9782 33.9989 30.7981 33.5456 30.7981C33.0923 30.7981 32.6576 30.9782 32.337 31.2987C32.0165 31.6192 31.8364 32.0539 31.8364 32.5072C31.8364 32.9605 32.0165 33.3953 32.337 33.7158C32.6576 34.0363 33.0923 34.2164 33.5456 34.2164Z" stroke="#939676" stroke-miterlimit="1.5" stroke-linecap="round" stroke-linejoin="round"/>
<path d="M31.8365 31.9376C31.8365 31.9376 30.6971 31.3679 29.5577 31.3679C28.4182 31.3679 27.2788 32.5073 27.2788 32.5073C27.2788 32.5073 28.4182 33.6467 29.5577 33.6467C30.6971 33.6467 31.8365 33.077 31.8365 33.077M34.1154 34.2164C34.1154 34.2164 34.6851 35.3559 34.6851 36.4953C34.6851 37.6347 33.5457 38.7742 33.5457 38.7742C33.5457 38.7742 32.4063 37.6347 32.4063 36.4953C32.4063 35.3559 32.976 34.2164 32.976 34.2164M35.2548 31.9376C35.2548 31.9376 36.3943 31.3679 37.5337 31.3679C38.6731 31.3679 39.8126 32.5073 39.8126 32.5073C39.8126 32.5073 38.6731 33.6467 37.5337 33.6467C36.3943 33.6467 35.2548 33.077 35.2548 33.077M32.7401 30.8961C32.7401 30.8961 32.3373 29.6872 31.5312 28.8816C30.7256 28.076 29.1144 28.076 29.1144 28.076C29.1144 28.076 29.1144 29.6872 29.92 30.4934C30.7256 31.2989 31.9345 31.7017 31.9345 31.7017M31.9345 33.3129C31.9345 33.3129 30.7256 33.7157 29.92 34.5218C29.1144 35.3274 29.1144 36.9385 29.1144 36.9385C29.1144 36.9385 30.7256 36.9385 31.5312 36.133C32.3373 35.3274 32.7401 34.1185 32.7401 34.1185M35.1574 33.3129C35.1574 33.3129 36.3652 33.7157 37.1714 34.5218C37.9769 35.3274 37.9769 36.9385 37.9769 36.9385C37.9769 36.9385 36.3658 36.9385 35.5602 36.133C34.754 35.3274 34.3513 34.1185 34.3513 34.1185M34.3513 30.8961C34.3513 30.8961 34.754 29.6872 35.5602 28.8816C36.3658 28.076 37.9769 28.076 37.9769 28.076C37.9769 28.076 37.9769 29.6872 37.1714 30.4934C36.3658 31.2989 35.1568 31.7017 35.1568 31.7017" stroke="#939676" stroke-miterlimit="1.5" stroke-linecap="round" stroke-linejoin="round"/>
<path d="M29.5577 20.7711C29.5577 20.7711 30.1274 19.6317 30.1274 18.4922C30.1274 17.3528 28.988 16.2134 28.988 16.2134C28.988 16.2134 27.8485 17.3528 27.8485 18.4922C27.8485 19.6317 28.4182 20.7711 28.4182 20.7711M28.988 24.1894C29.4413 24.1894 29.876 24.0093 30.1965 23.6888C30.517 23.3683 30.6971 22.9335 30.6971 22.4803C30.6971 22.027 30.517 21.5922 30.1965 21.2717C29.876 20.9512 29.4413 20.7711 28.988 20.7711C28.5347 20.7711 28.0999 20.9512 27.7794 21.2717C27.4589 21.5922 27.2788 22.027 27.2788 22.4803C27.2788 22.9335 27.4589 23.3683 27.7794 23.6888C28.0999 24.0093 28.5347 24.1894 28.988 24.1894Z" stroke="#939676" stroke-miterlimit="1.5" stroke-linecap="round" stroke-linejoin="round"/>
<path d="M27.2789 21.9105C27.2789 21.9105 26.1395 21.3408 25.0001 21.3408C23.8606 21.3408 22.7212 22.4803 22.7212 22.4803C22.7212 22.4803 23.8606 23.6197 25.0001 23.6197C26.1395 23.6197 27.2789 23.05 27.2789 23.05M29.5578 24.1894C29.5578 24.1894 30.1275 25.3288 30.1275 26.4683C30.1275 27.6077 28.9881 28.7471 28.9881 28.7471C28.9881 28.7471 27.8486 27.6077 27.8486 26.4683C27.8486 25.3288 28.4183 24.1894 28.4183 24.1894M30.6972 21.9105C30.6972 21.9105 31.8366 21.3408 32.9761 21.3408C34.1155 21.3408 35.2549 22.4803 35.2549 22.4803C35.2549 22.4803 34.1155 23.6197 32.9761 23.6197C31.8366 23.6197 30.6972 23.05 30.6972 23.05M28.1825 20.8691C28.1825 20.8691 27.7797 19.6602 26.9735 18.8546C26.168 18.049 24.5568 18.049 24.5568 18.049C24.5568 18.049 24.5568 19.6602 25.3624 20.4663C26.168 21.2719 27.3769 21.6747 27.3769 21.6747M27.3769 23.2858C27.3769 23.2858 26.168 23.6886 25.3624 24.4948C24.5568 25.3004 24.5568 26.9115 24.5568 26.9115C24.5568 26.9115 26.168 26.9115 26.9735 26.1059C27.7797 25.3004 28.1825 24.0914 28.1825 24.0914M30.5998 23.2858C30.5998 23.2858 31.8076 23.6886 32.6137 24.4948C33.4193 25.3004 33.4193 26.9115 33.4193 26.9115C33.4193 26.9115 31.8082 26.9115 31.0026 26.1059C30.1964 25.3004 29.7936 24.0914 29.7936 24.0914M29.7936 20.8691C29.7936 20.8691 30.1964 19.6602 31.0026 18.8546C31.8082 18.049 33.4193 18.049 33.4193 18.049C33.4193 18.049 33.4193 19.6602 32.6137 20.4663C31.8082 21.2719 30.5992 21.6747 30.5992 21.6747" stroke="#939676" stroke-miterlimit="1.5" stroke-linecap="round" stroke-linejoin="round"/>
<path d="M37.7608 20.7711C37.7608 20.7711 38.3305 19.6317 38.3305 18.4922C38.3305 17.3528 37.1911 16.2134 37.1911 16.2134C37.1911 16.2134 36.0516 17.3528 36.0516 18.4922C36.0516 19.6317 36.6214 20.7711 36.6214 20.7711M37.1911 24.1894C37.6444 24.1894 38.0791 24.0093 38.3996 23.6888C38.7202 23.3683 38.9002 22.9335 38.9002 22.4803C38.9002 22.027 38.7202 21.5922 38.3996 21.2717C38.0791 20.9512 37.6444 20.7711 37.1911 20.7711C36.7378 20.7711 36.3031 20.9512 35.9825 21.2717C35.662 21.5922 35.4819 22.027 35.4819 22.4803C35.4819 22.9335 35.662 23.3683 35.9825 23.6888C36.3031 24.0093 36.7378 24.1894 37.1911 24.1894Z" stroke="#939676" stroke-miterlimit="1.5" stroke-linecap="round" stroke-linejoin="round"/>
<path d="M35.482 21.9105C35.482 21.9105 34.3426 21.3408 33.2032 21.3408C32.0637 21.3408 30.9243 22.4803 30.9243 22.4803C30.9243 22.4803 32.0637 23.6197 33.2032 23.6197C34.3426 23.6197 35.482 23.05 35.482 23.05M37.7609 24.1894C37.7609 24.1894 38.3306 25.3288 38.3306 26.4683C38.3306 27.6077 37.1912 28.7471 37.1912 28.7471C37.1912 28.7471 36.0518 27.6077 36.0518 26.4683C36.0518 25.3288 36.6215 24.1894 36.6215 24.1894M38.9003 21.9105C38.9003 21.9105 40.0398 21.3408 41.1792 21.3408C42.3186 21.3408 43.4581 22.4803 43.4581 22.4803C43.4581 22.4803 42.3186 23.6197 41.1792 23.6197C40.0398 23.6197 38.9003 23.05 38.9003 23.05M36.3856 20.8691C36.3856 20.8691 35.9828 19.6602 35.1767 18.8546C34.3711 18.049 32.7599 18.049 32.7599 18.049C32.7599 18.049 32.7599 19.6602 33.5655 20.4663C34.3711 21.2719 35.58 21.6747 35.58 21.6747M35.58 23.2858C35.58 23.2858 34.3711 23.6886 33.5655 24.4948C32.7599 25.3004 32.7599 26.9115 32.7599 26.9115C32.7599 26.9115 34.3711 26.9115 35.1767 26.1059C35.9828 25.3004 36.3856 24.0914 36.3856 24.0914M38.8029 23.2858C38.8029 23.2858 40.0107 23.6886 40.8169 24.4948C41.6224 25.3004 41.6224 26.9115 41.6224 26.9115C41.6224 26.9115 40.0113 26.9115 39.2057 26.1059C38.3996 25.3004 37.9968 24.0914 37.9968 24.0914M37.9968 20.8691C37.9968 20.8691 38.3996 19.6602 39.2057 18.8546C40.0113 18.049 41.6224 18.049 41.6224 18.049C41.6224 18.049 41.6224 19.6602 40.8169 20.4663C40.0113 21.2719 38.8023 21.6747 38.8023 21.6747" stroke="#939676" stroke-miterlimit="1.5" stroke-linecap="round" stroke-linejoin="round"/>
<path d="M36.8502 13.4787C36.8502 13.4787 37.4199 12.3393 37.4199 11.1999C37.4199 10.0605 36.2804 8.92102 36.2804 8.92102C36.2804 8.92102 35.141 10.0605 35.141 11.1999C35.141 12.3393 35.7107 13.4787 35.7107 13.4787M36.2804 16.897C36.7337 16.897 37.1685 16.717 37.489 16.3964C37.8095 16.0759 37.9896 15.6412 37.9896 15.1879C37.9896 14.7346 37.8095 14.2999 37.489 13.9793C37.1685 13.6588 36.7337 13.4787 36.2804 13.4787C35.8271 13.4787 35.3924 13.6588 35.0719 13.9793C34.7514 14.2999 34.5713 14.7346 34.5713 15.1879C34.5713 15.6412 34.7514 16.0759 35.0719 16.3964C35.3924 16.717 35.8271 16.897 36.2804 16.897Z" stroke="#939676" stroke-miterlimit="1.5" stroke-linecap="round" stroke-linejoin="round"/>
<path d="M34.5709 14.6182C34.5709 14.6182 33.4315 14.0485 32.292 14.0485C31.1526 14.0485 30.0132 15.1879 30.0132 15.1879C30.0132 15.1879 31.1526 16.3273 32.292 16.3273C33.4315 16.3273 34.5709 15.7576 34.5709 15.7576M36.8498 16.8971C36.8498 16.8971 37.4195 18.0365 37.4195 19.1759C37.4195 20.3153 36.2801 21.4548 36.2801 21.4548C36.2801 21.4548 35.1406 20.3153 35.1406 19.1759C35.1406 18.0365 35.7103 16.8971 35.7103 16.8971M37.9892 14.6182C37.9892 14.6182 39.1286 14.0485 40.2681 14.0485C41.4075 14.0485 42.5469 15.1879 42.5469 15.1879C42.5469 15.1879 41.4075 16.3273 40.2681 16.3273C39.1286 16.3273 37.9892 15.7576 37.9892 15.7576M35.4745 13.5767C35.4745 13.5767 35.0717 12.3678 34.2655 11.5622C33.46 10.7567 31.8488 10.7567 31.8488 10.7567C31.8488 10.7567 31.8488 12.3678 32.6544 13.174C33.46 13.9795 34.6689 14.3823 34.6689 14.3823M34.6689 15.9935C34.6689 15.9935 33.46 16.3963 32.6544 17.2024C31.8488 18.008 31.8488 19.6192 31.8488 19.6192C31.8488 19.6192 33.46 19.6192 34.2655 18.8136C35.0717 18.008 35.4745 16.7991 35.4745 16.7991M37.8918 15.9935C37.8918 15.9935 39.0996 16.3963 39.9057 17.2024C40.7113 18.008 40.7113 19.6192 40.7113 19.6192C40.7113 19.6192 39.1002 19.6192 38.2946 18.8136C37.4884 18.008 37.0856 16.7991 37.0856 16.7991M37.0856 13.5767C37.0856 13.5767 37.4884 12.3678 38.2946 11.5622C39.1002 10.7567 40.7113 10.7567 40.7113 10.7567C40.7113 10.7567 40.7113 12.3678 39.9057 13.174C39.1002 13.9795 37.8912 14.3823 37.8912 14.3823" stroke="#939676" stroke-miterlimit="1.5" stroke-linecap="round" stroke-linejoin="round"/>
<path d="M46.8765 16.2134C46.8765 16.2134 47.4462 15.074 47.4462 13.9346C47.4462 12.7951 46.3068 11.6557 46.3068 11.6557C46.3068 11.6557 45.1674 12.7951 45.1674 13.9346C45.1674 15.074 45.7371 16.2134 45.7371 16.2134M46.3068 19.6317C46.7601 19.6317 47.1948 19.4517 47.5154 19.1311C47.8359 18.8106 48.016 18.3759 48.016 17.9226C48.016 17.4693 47.8359 17.0346 47.5154 16.714C47.1948 16.3935 46.7601 16.2134 46.3068 16.2134C45.8535 16.2134 45.4188 16.3935 45.0983 16.714C44.7777 17.0346 44.5977 17.4693 44.5977 17.9226C44.5977 18.3759 44.7777 18.8106 45.0983 19.1311C45.4188 19.4517 45.8535 19.6317 46.3068 19.6317Z" stroke="#939676" stroke-miterlimit="1.5" stroke-linecap="round" stroke-linejoin="round"/>
<path d="M44.5983 17.3529C44.5983 17.3529 43.4588 16.7832 42.3194 16.7832C41.18 16.7832 40.0405 17.9226 40.0405 17.9226C40.0405 17.9226 41.18 19.0621 42.3194 19.0621C43.4588 19.0621 44.5983 18.4924 44.5983 18.4924M46.8771 19.6318C46.8771 19.6318 47.4468 20.7712 47.4468 21.9107C47.4468 23.0501 46.3074 24.1895 46.3074 24.1895C46.3074 24.1895 45.168 23.0501 45.168 21.9107C45.168 20.7712 45.7377 19.6318 45.7377 19.6318M48.0165 17.3529C48.0165 17.3529 49.156 16.7832 50.2954 16.7832C51.4348 16.7832 52.5743 17.9226 52.5743 17.9226C52.5743 17.9226 51.4348 19.0621 50.2954 19.0621C49.156 19.0621 48.0165 18.4924 48.0165 18.4924M45.5018 16.3115C45.5018 16.3115 45.099 15.1026 44.2929 14.297C43.4873 13.4914 41.8762 13.4914 41.8762 13.4914C41.8762 13.4914 41.8762 15.1026 42.6817 15.9087C43.4873 16.7143 44.6962 17.1171 44.6962 17.1171M44.6962 18.7282C44.6962 18.7282 43.4873 19.131 42.6817 19.9372C41.8762 20.7427 41.8762 22.3539 41.8762 22.3539C41.8762 22.3539 43.4873 22.3539 44.2929 21.5483C45.099 20.7427 45.5018 19.5338 45.5018 19.5338M47.9191 18.7282C47.9191 18.7282 49.1269 19.131 49.9331 19.9372C50.7387 20.7427 50.7387 22.3539 50.7387 22.3539C50.7387 22.3539 49.1275 22.3539 48.3219 21.5483C47.5158 20.7427 47.113 19.5338 47.113 19.5338M47.113 16.3115C47.113 16.3115 47.5158 15.1026 48.3219 14.297C49.1275 13.4914 50.7387 13.4914 50.7387 13.4914C50.7387 13.4914 50.7387 15.1026 49.9331 15.9087C49.1275 16.7143 47.9186 17.1171 47.9186 17.1171" stroke="#939676" stroke-miterlimit="1.5" stroke-linecap="round" stroke-linejoin="round"/>
<path d="M56.9039 13.4787C56.9039 13.4787 57.4736 12.3393 57.4736 11.1999C57.4736 10.0605 56.3341 8.92102 56.3341 8.92102C56.3341 8.92102 55.1947 10.0605 55.1947 11.1999C55.1947 12.3393 55.7644 13.4787 55.7644 13.4787M56.3341 16.897C56.7874 16.897 57.2222 16.717 57.5427 16.3964C57.8632 16.0759 58.0433 15.6412 58.0433 15.1879C58.0433 14.7346 57.8632 14.2999 57.5427 13.9793C57.2222 13.6588 56.7874 13.4787 56.3341 13.4787C55.8809 13.4787 55.4461 13.6588 55.1256 13.9793C54.8051 14.2999 54.625 14.7346 54.625 15.1879C54.625 15.6412 54.8051 16.0759 55.1256 16.3964C55.4461 16.717 55.8809 16.897 56.3341 16.897Z" stroke="#939676" stroke-miterlimit="1.5" stroke-linecap="round" stroke-linejoin="round"/>
<path d="M54.6251 14.6182C54.6251 14.6182 53.4857 14.0485 52.3462 14.0485C51.2068 14.0485 50.0674 15.1879 50.0674 15.1879C50.0674 15.1879 51.2068 16.3273 52.3462 16.3273C53.4857 16.3273 54.6251 15.7576 54.6251 15.7576M56.904 16.8971C56.904 16.8971 57.4737 18.0365 57.4737 19.1759C57.4737 20.3153 56.3343 21.4548 56.3343 21.4548C56.3343 21.4548 55.1948 20.3153 55.1948 19.1759C55.1948 18.0365 55.7645 16.8971 55.7645 16.8971M58.0434 14.6182C58.0434 14.6182 59.1828 14.0485 60.3223 14.0485C61.4617 14.0485 62.6011 15.1879 62.6011 15.1879C62.6011 15.1879 61.4617 16.3273 60.3223 16.3273C59.1828 16.3273 58.0434 15.7576 58.0434 15.7576M55.5287 13.5767C55.5287 13.5767 55.1259 12.3678 54.3197 11.5622C53.5142 10.7567 51.903 10.7567 51.903 10.7567C51.903 10.7567 51.903 12.3678 52.7086 13.174C53.5142 13.9795 54.7231 14.3823 54.7231 14.3823M54.7231 15.9935C54.7231 15.9935 53.5142 16.3963 52.7086 17.2024C51.903 18.008 51.903 19.6192 51.903 19.6192C51.903 19.6192 53.5142 19.6192 54.3197 18.8136C55.1259 18.008 55.5287 16.7991 55.5287 16.7991M57.946 15.9935C57.946 15.9935 59.1538 16.3963 59.9599 17.2024C60.7655 18.008 60.7655 19.6192 60.7655 19.6192C60.7655 19.6192 59.1543 19.6192 58.3488 18.8136C57.5426 18.008 57.1398 16.7991 57.1398 16.7991M57.1398 13.5767C57.1398 13.5767 57.5426 12.3678 58.3488 11.5622C59.1543 10.7567 60.7655 10.7567 60.7655 10.7567C60.7655 10.7567 60.7655 12.3678 59.9599 13.174C59.1543 13.9795 57.9454 14.3823 57.9454 14.3823" stroke="#939676" stroke-miterlimit="1.5" stroke-linecap="round" stroke-linejoin="round"/>
<path d="M45.2735 7.63231C45.2735 7.63231 45.8432 6.49288 45.8432 5.35345C45.8432 4.21402 44.7038 3.07458 44.7038 3.07458C44.7038 3.07458 43.5643 4.21402 43.5643 5.35345C43.5643 6.49288 44.1341 7.63231 44.1341 7.63231M44.7038 11.0506C45.1571 11.0506 45.5918 10.8705 45.9123 10.55C46.2329 10.2295 46.4129 9.79475 46.4129 9.34146C46.4129 8.88816 46.2329 8.45344 45.9123 8.13291C45.5918 7.81238 45.1571 7.63231 44.7038 7.63231C44.2505 7.63231 43.8158 7.81238 43.4952 8.13291C43.1747 8.45344 42.9946 8.88816 42.9946 9.34146C42.9946 9.79475 43.1747 10.2295 43.4952 10.55C43.8158 10.8705 44.2505 11.0506 44.7038 11.0506Z" stroke="#939676" stroke-miterlimit="1.5" stroke-linecap="round" stroke-linejoin="round"/>
<path d="M42.9947 8.77181C42.9947 8.77181 41.8553 8.2021 40.7159 8.2021C39.5764 8.2021 38.437 9.34153 38.437 9.34153C38.437 9.34153 39.5764 10.481 40.7159 10.481C41.8553 10.481 42.9947 9.91124 42.9947 9.91124M45.2736 11.0507C45.2736 11.0507 45.8433 12.1901 45.8433 13.3295C45.8433 14.469 44.7039 15.6084 44.7039 15.6084C44.7039 15.6084 43.5645 14.469 43.5645 13.3295C43.5645 12.1901 44.1342 11.0507 44.1342 11.0507M46.413 8.77181C46.413 8.77181 47.5525 8.2021 48.6919 8.2021C49.8313 8.2021 50.9708 9.34153 50.9708 9.34153C50.9708 9.34153 49.8313 10.481 48.6919 10.481C47.5525 10.481 46.413 9.91124 46.413 9.91124M43.8983 7.73037C43.8983 7.73037 43.4955 6.52143 42.6894 5.71586C41.8838 4.91028 40.2726 4.91028 40.2726 4.91028C40.2726 4.91028 40.2726 6.52143 41.0782 7.32758C41.8838 8.13316 43.0927 8.53595 43.0927 8.53595M43.0927 10.1471C43.0927 10.1471 41.8838 10.5499 41.0782 11.356C40.2726 12.1616 40.2726 13.7728 40.2726 13.7728C40.2726 13.7728 41.8838 13.7728 42.6894 12.9672C43.4955 12.1616 43.8983 10.9527 43.8983 10.9527M46.3156 10.1471C46.3156 10.1471 47.5234 10.5499 48.3296 11.356C49.1351 12.1616 49.1351 13.7728 49.1351 13.7728C49.1351 13.7728 47.524 13.7728 46.7184 12.9672C45.9123 12.1616 45.5095 10.9527 45.5095 10.9527M45.5095 7.73037C45.5095 7.73037 45.9123 6.52143 46.7184 5.71586C47.524 4.91028 49.1351 4.91028 49.1351 4.91028C49.1351 4.91028 49.1351 6.52143 48.3296 7.32758C47.524 8.13316 46.315 8.53595 46.315 8.53595" stroke="#939676" stroke-miterlimit="1.5" stroke-linecap="round" stroke-linejoin="round"/>
<path d="M54.9551 5.55773C54.9551 5.55773 55.5248 4.41829 55.5248 3.27886C55.5248 2.13943 54.3854 1 54.3854 1C54.3854 1 53.246 2.13943 53.246 3.27886C53.246 4.41829 53.8157 5.55773 53.8157 5.55773M54.3854 8.97602C54.8387 8.97602 55.2734 8.79595 55.594 8.47542C55.9145 8.1549 56.0946 7.72017 56.0946 7.26687C56.0946 6.81358 55.9145 6.37885 55.594 6.05832C55.2734 5.7378 54.8387 5.55773 54.3854 5.55773C53.9321 5.55773 53.4974 5.7378 53.1769 6.05832C52.8563 6.37885 52.6763 6.81358 52.6763 7.26687C52.6763 7.72017 52.8563 8.1549 53.1769 8.47542C53.4974 8.79595 53.9321 8.97602 54.3854 8.97602Z" stroke="#939676" stroke-miterlimit="1.5" stroke-linecap="round" stroke-linejoin="round"/>
<path d="M52.6759 6.69723C52.6759 6.69723 51.5365 6.12751 50.397 6.12751C49.2576 6.12751 48.1182 7.26694 48.1182 7.26694C48.1182 7.26694 49.2576 8.40637 50.397 8.40637C51.5365 8.40637 52.6759 7.83666 52.6759 7.83666M54.9548 8.97609C54.9548 8.97609 55.5245 10.1155 55.5245 11.255C55.5245 12.3944 54.385 13.5338 54.385 13.5338C54.385 13.5338 53.2456 12.3944 53.2456 11.255C53.2456 10.1155 53.8153 8.97609 53.8153 8.97609M56.0942 6.69723C56.0942 6.69723 57.2336 6.12751 58.373 6.12751C59.5125 6.12751 60.6519 7.26694 60.6519 7.26694C60.6519 7.26694 59.5125 8.40637 58.373 8.40637C57.2336 8.40637 56.0942 7.83666 56.0942 7.83666M53.5795 5.65579C53.5795 5.65579 53.1767 4.44685 52.3705 3.64127C51.5649 2.83569 49.9538 2.83569 49.9538 2.83569C49.9538 2.83569 49.9538 4.44685 50.7594 5.253C51.5649 6.05858 52.7739 6.46137 52.7739 6.46137M52.7739 8.07252C52.7739 8.07252 51.5649 8.47531 50.7594 9.28146C49.9538 10.087 49.9538 11.6982 49.9538 11.6982C49.9538 11.6982 51.5649 11.6982 52.3705 10.8926C53.1767 10.087 53.5795 8.8781 53.5795 8.8781M55.9968 8.07252C55.9968 8.07252 57.2046 8.47531 58.0107 9.28146C58.8163 10.087 58.8163 11.6982 58.8163 11.6982C58.8163 11.6982 57.2051 11.6982 56.3996 10.8926C55.5934 10.087 55.1906 8.8781 55.1906 8.8781M55.1906 5.65579C55.1906 5.65579 55.5934 4.44685 56.3996 3.64127C57.2051 2.83569 58.8163 2.83569 58.8163 2.83569C58.8163 2.83569 58.8163 4.44685 58.0107 5.253C57.2051 6.05858 55.9962 6.46137 55.9962 6.46137" stroke="#939676" stroke-miterlimit="1.5" stroke-linecap="round" stroke-linejoin="round"/>
</svg>
