<svg width="130" height="120" viewBox="0 0 130 120" fill="none" xmlns="http://www.w3.org/2000/svg">
<path opacity="0.35" fill-rule="evenodd" clip-rule="evenodd" d="M72.3905 1.02762C88.4284 4.18631 96.4022 20.6452 106.954 33.1288C116.094 43.9415 128.276 53.5423 128.742 67.6927C129.217 82.1418 120.005 94.8854 109.307 104.61C99.1552 113.838 86.0452 117.585 72.3905 118.915C56.7556 120.439 40.2559 121.752 27.5019 112.581C12.8584 102.052 2.39287 85.6864 1.15554 67.6927C-0.155784 48.6229 6.91602 29.2359 20.8726 16.1748C34.4588 3.4601 54.1335 -2.56814 72.3905 1.02762Z" fill="#DBA278"/>
<path d="M30.6831 6.32422C30.1193 18.3874 27.0219 46.0663 19.1436 60.2763" stroke="#939676" stroke-width="4" stroke-linejoin="round"/>
<path d="M99.8003 6.3252C100.364 18.3884 103.462 46.0673 111.34 60.2773" stroke="#939676" stroke-width="4" stroke-linejoin="round"/>
<path d="M15.8809 105.65V6.14355H53.1579C51.9496 41.0886 34.3684 58.122 25.7288 62.2706C31.8671 68.699 34.4086 93.8686 34.9121 105.65H15.8809Z" stroke="#939676" stroke-width="4" stroke-linejoin="round"/>
<path d="M114.602 105.65V6.14355H77.3245C78.5328 41.0886 96.1141 58.122 104.754 62.2706C98.6153 68.699 96.0738 93.8686 95.5703 105.65H114.602Z" stroke="#939676" stroke-width="4" stroke-linejoin="round"/>
<path d="M42.5863 6.32422C43.1904 16.011 37.7892 40.1817 20.5342 60.8201C21.9842 67.9694 26.745 87.053 25.005 104.743" stroke="#939676" stroke-width="4" stroke-linejoin="round"/>
<path d="M87.8962 6.32422C87.292 16.011 92.6932 40.1817 109.948 60.8201C108.498 67.9694 103.737 87.053 105.477 104.743" stroke="#939676" stroke-width="4" stroke-linejoin="round"/>
<path d="M0.333333 5C0.333333 6.47276 1.52724 7.66667 3 7.66667C4.47276 7.66667 5.66667 6.47276 5.66667 5C5.66667 3.52724 4.47276 2.33333 3 2.33333C1.52724 2.33333 0.333333 3.52724 0.333333 5ZM124.333 5C124.333 6.47276 125.527 7.66667 127 7.66667C128.473 7.66667 129.667 6.47276 129.667 5C129.667 3.52724 128.473 2.33333 127 2.33333C125.527 2.33333 124.333 3.52724 124.333 5ZM3 5.5H127V4.5H3V5.5Z" fill="#939676"/>
<rect x="13.3867" y="3" width="103.715" height="3.08984" fill="#939676"/>
</svg>
