<svg width="128" height="125" viewBox="0 0 128 125" fill="none" xmlns="http://www.w3.org/2000/svg">
<path opacity="0.35" fill-rule="evenodd" clip-rule="evenodd" d="M71.3896 5.56766C87.4274 8.72635 95.4013 25.1852 105.954 37.6688C115.093 48.4815 127.275 58.0823 127.741 72.2328C128.216 86.6818 119.004 99.4254 108.306 109.15C98.1543 118.378 85.0443 122.125 71.3896 123.455C55.7546 124.979 39.255 126.292 26.5009 117.121C11.8574 106.592 1.39189 90.2265 0.154567 72.2328C-1.15676 53.1629 5.91505 33.776 19.8716 20.7148C33.4578 8.00014 53.1325 1.9719 71.3896 5.56766Z" fill="#DBA278"/>
<path d="M83.9998 33.54C83.9998 36.04 79.9998 60.54 86.4998 68.54C91.6998 74.94 95.3333 78.2067 96.5 79.04" stroke="#939676" stroke-width="3" stroke-linecap="round" stroke-linejoin="round"/>
<path d="M44 113.54C44 111.14 44 87.8734 44 76.54" stroke="#939676" stroke-width="3" stroke-linecap="round" stroke-linejoin="round"/>
<path d="M39.0003 33.54C38.2003 35.14 38.667 50.54 39.0003 58.04L46.5 70.04L56.5 61.54V37.54" stroke="#939676" stroke-width="3" stroke-linecap="round" stroke-linejoin="round"/>
<path d="M70 38.54C70 40.04 71 60.54 70 63.04C69 65.54 59 74.04 59 78.04C59 81.24 59 95.04 59 101.54" stroke="#939676" stroke-width="3" stroke-linecap="round" stroke-linejoin="round"/>
<path d="M70.5 115.54V82.54L81 74.04L82 113.04" stroke="#939676" stroke-width="3" stroke-linecap="round" stroke-linejoin="round"/>
<path d="M94 53.54V22.54C94 16.54 87.9 4.13996 63.5 2.53996C39.1 0.939959 28.6667 13.54 26.5 20.04L28.5 108.04C33.8333 112.04 48 119.54 63.5 118.54C78.6737 117.561 90.1667 110.373 94 106.04V94.54C94 93.04 95.5 87.04 98.5 86.54C100.9 86.14 106.5 90.04 109 92.04L117.5 78.54C109.667 70.7066 94 54.74 94 53.54Z" stroke="#939676" stroke-width="3" stroke-linejoin="round"/>
<path d="M26.5 19.54C26.5 21.04 31 37.54 62 37.04C86.8 36.64 93.5 25.7067 93.5 19.54" stroke="#939676" stroke-width="3" stroke-linejoin="round"/>
<path d="M82.5 20.54C82.5 21.0291 82.2253 21.6999 81.2666 22.5058C80.3155 23.3054 78.8499 24.0929 76.9074 24.7836C73.0356 26.1602 67.5884 27.04 61.5 27.04C55.4116 27.04 49.9644 26.1602 46.0926 24.7836C44.1501 24.0929 42.6845 23.3054 41.7334 22.5058C40.7747 21.6999 40.5 21.0291 40.5 20.54C40.5 20.051 40.7747 19.3802 41.7334 18.5743C42.6845 17.7747 44.1501 16.9872 46.0926 16.2965C49.9644 14.9199 55.4116 14.04 61.5 14.04C67.5884 14.04 73.0356 14.9199 76.9074 16.2965C78.8499 16.9872 80.3155 17.7747 81.2666 18.5743C82.2253 19.3802 82.5 20.051 82.5 20.54Z" stroke="#939676" stroke-width="3"/>
</svg>
