<svg width="128" height="124" viewBox="0 0 128 124" fill="none" xmlns="http://www.w3.org/2000/svg">
<path opacity="0.35" fill-rule="evenodd" clip-rule="evenodd" d="M71.3896 5.02762C87.4274 8.18631 95.4013 24.6452 105.954 37.1288C115.093 47.9415 127.275 57.5423 127.741 71.6927C128.216 86.1418 119.004 98.8854 108.306 108.61C98.1543 117.838 85.0443 121.585 71.3896 122.915C55.7546 124.439 39.255 125.752 26.5009 116.581C11.8574 106.052 1.39189 89.6864 0.154567 71.6927C-1.15676 52.6229 5.91505 33.2359 19.8716 20.1748C33.4578 7.4601 53.1325 1.43186 71.3896 5.02762Z" fill="#DBA278"/>
<path d="M49.0234 78.0453H79.4136" stroke="#939676" stroke-width="2" stroke-linejoin="round"/>
<path d="M79.6605 51.0757C81.2582 47.6438 85.2253 39.6973 89.2993 37.6145" stroke="#939676" stroke-width="2" stroke-linejoin="round"/>
<path d="M76.2939 49.6381C77.6671 46.1105 80.3619 37.6035 79.0479 33.2207" stroke="#939676" stroke-width="2" stroke-linejoin="round"/>
<path d="M83.5347 36.4068C69.526 30.4267 77.507 12.601 83.2486 4.43564C85.4402 3.7787 87.5291 5.59936 88.2996 6.59182C89.4044 5.86909 92.5568 4.82616 96.3286 6.43626C100.1 8.04635 102.458 11.9724 103.166 13.7341C104.973 13.2315 107.029 14.3216 107.831 14.9294C105.569 24.5802 97.5434 42.3868 83.5347 36.4068Z" stroke="#939676" stroke-width="2" stroke-linejoin="round"/>
<path d="M87.9634 6.44812C88.6231 8.3222 89.8949 12.3685 89.7043 13.5611" stroke="#939676" stroke-width="2" stroke-linecap="round" stroke-linejoin="round"/>
<path d="M102.413 13.7581C98.9044 14.5164 91.3698 17.2451 89.2998 22.0943" stroke="#939676" stroke-width="2" stroke-linecap="round" stroke-linejoin="round"/>
<path d="M49.0994 51.0759C47.5018 47.6441 43.5778 39.6974 39.5038 37.6147" stroke="#939676" stroke-width="2" stroke-linejoin="round"/>
<path d="M52.467 49.6383C51.0938 46.1107 48.4421 37.6037 49.7561 33.2209" stroke="#939676" stroke-width="2" stroke-linejoin="round"/>
<path d="M45.226 36.4068C59.2347 30.4267 51.2537 12.601 45.5121 4.43564C43.3205 3.7787 41.2316 5.59936 40.4611 6.59182C39.3564 5.86909 36.2039 4.82616 32.4322 6.43626C28.6604 8.04635 26.3025 11.9724 25.595 13.7341C23.788 13.2315 21.7319 14.3216 20.9297 14.9294C23.1915 24.5802 31.2173 42.3868 45.226 36.4068Z" stroke="#939676" stroke-width="2" stroke-linejoin="round"/>
<path d="M40.7974 6.44812C40.1376 8.3222 38.8658 12.3685 39.0564 13.5611" stroke="#939676" stroke-width="2" stroke-linecap="round" stroke-linejoin="round"/>
<path d="M26.3224 13.7583C29.8309 14.5165 37.3656 17.2452 39.4356 22.0944" stroke="#939676" stroke-width="2" stroke-linecap="round" stroke-linejoin="round"/>
<path d="M51.9521 85.3682H76.8501" stroke="#939676" stroke-width="2" stroke-linejoin="round"/>
<rect x="34.6455" y="47.1904" width="59.5127" height="14.1105" rx="7.05523" fill="#F3DFD0" stroke="#939676" stroke-width="2"/>
<path d="M77.2165 87.9314C76.6307 81.1943 84.2954 67.5492 88.2009 61.5688H40.6016C44.5071 68.4036 52.245 83.2447 51.9521 87.9314C51.6592 92.6181 48.9009 99.404 47.5584 102.211H82.3423C80.8778 100.258 77.8024 94.6685 77.2165 87.9314Z" stroke="#939676" stroke-width="2" stroke-linejoin="round"/>
<path d="M66.2324 49.1196C66.3545 45.3361 66.5986 36.3696 69.5277 32.8546" stroke="#939676" stroke-width="2" stroke-linejoin="round"/>
<path d="M62.5713 49.1197C62.4492 45.3362 61.4728 36.3697 58.5437 32.8547" stroke="#939676" stroke-width="2" stroke-linejoin="round"/>
<path d="M64.036 34.1076C48.8043 34.1076 49.1461 14.5798 51.2209 4.8159C52.9786 3.35127 55.6146 4.20564 56.7129 4.8159C57.4452 3.71748 59.935 1.52063 64.036 1.52063C68.1371 1.52063 71.8471 4.20567 73.1895 5.54819C74.6541 4.37652 76.973 4.5718 77.9494 4.8159C79.6581 14.5798 79.2678 34.1076 64.036 34.1076Z" fill="#F3DFD0" stroke="#939676" stroke-width="2" stroke-linejoin="round"/>
<path d="M56.3467 4.81598C57.6892 6.28057 60.4475 9.50266 60.7404 10.6743" stroke="#939676" stroke-width="2" stroke-linecap="round" stroke-linejoin="round"/>
<path d="M73.1899 5.18225C70.2607 7.25708 64.4023 12.7249 64.4023 17.9974" stroke="#939676" stroke-width="2" stroke-linecap="round" stroke-linejoin="round"/>
</svg>
