<svg width="138" height="133" viewBox="0 0 138 133" fill="none" xmlns="http://www.w3.org/2000/svg">
<path opacity="0.35" fill-rule="evenodd" clip-rule="evenodd" d="M71.3896 14.0276C87.4274 17.1863 95.4013 33.6452 105.954 46.1288C115.093 56.9415 127.275 66.5423 127.741 80.6927C128.216 95.1418 119.004 107.885 108.306 117.61C98.1543 126.838 85.0443 130.585 71.3896 131.915C55.7546 133.439 39.255 134.752 26.5009 125.581C11.8574 115.052 1.39189 98.6864 0.154567 80.6927C-1.15676 61.6229 5.91505 42.2359 19.8716 29.1748C33.4578 16.4601 53.1325 10.4319 71.3896 14.0276Z" fill="#DBA278"/>
<rect x="81.1758" y="1" width="55.8235" height="72.5686" rx="5" stroke="#939676" stroke-width="2"/>
<rect x="86.2646" y="7.28418" width="45.647" height="61.196" rx="1.5" stroke="#939676"/>
<path d="M82.3046 56.6127L74.5635 55.5745L79.1171 73.6856C79.9139 73.4934 81.6671 73.1319 82.3046 73.2242C82.9421 73.3165 84.7711 71.34 85.6059 70.3402L84.4675 62.2652L82.3046 56.6127Z" fill="#F3DFD0"/>
<path d="M87.5773 72.2583V66.2144C87.5773 62.9183 86.268 59.7572 83.9373 57.4265C81.6066 55.0958 78.4455 53.7864 75.1493 53.7864H43.7523C40.4562 53.7864 37.2951 55.0958 34.9644 57.4265C32.6337 59.7572 31.3243 62.9183 31.3243 66.2144V72.2583C28.4047 72.7243 25.7469 74.2159 23.8281 76.4653C21.9093 78.7146 20.8552 81.5744 20.8552 84.5309C20.8552 87.4875 21.9093 90.3472 23.8281 92.5966C25.7469 94.8459 28.4047 96.3376 31.3243 96.8036V108.077C31.3243 109.291 31.8067 110.456 32.6654 111.315C33.5241 112.173 34.6887 112.656 35.9031 112.656H82.9986C84.213 112.656 85.3776 112.173 86.2363 111.315C87.0949 110.456 87.5773 109.291 87.5773 108.077V96.8036C90.4863 96.327 93.1312 94.8319 95.0396 92.5853C96.9481 90.3387 97.9959 87.4869 97.9959 84.5391C97.9959 81.5913 96.9481 78.7395 95.0396 76.4929C93.1312 74.2464 90.4863 72.7513 87.5773 72.2746V72.2583ZM43.7523 57.711H75.1493C77.4046 57.711 79.5674 58.6069 81.1621 60.2016C82.7568 61.7963 83.6527 63.9591 83.6527 66.2144V72.2583C80.7354 72.7281 78.0805 74.2207 76.163 76.469C74.2455 78.7172 73.1906 81.5744 73.187 84.5293V85.1834H45.7146V84.5293C45.7111 81.5744 44.6562 78.7172 42.7387 76.469C40.8212 74.2207 38.1663 72.7281 35.249 72.2583V66.2144C35.249 63.9591 36.1448 61.7963 37.7395 60.2016C39.3342 58.6069 41.4971 57.711 43.7523 57.711ZM85.7295 93.0327H85.615C85.0946 93.0327 84.5955 93.2394 84.2275 93.6074C83.8594 93.9754 83.6527 94.4745 83.6527 94.995V108.077C83.6527 108.251 83.5838 108.417 83.4611 108.54C83.3385 108.662 83.1721 108.731 82.9986 108.731H35.9031C35.7296 108.731 35.5632 108.662 35.4405 108.54C35.3179 108.417 35.249 108.251 35.249 108.077V94.995C35.249 94.4745 35.0422 93.9754 34.6742 93.6074C34.3062 93.2394 33.8071 93.0327 33.2866 93.0327H33.1722C31.4954 93.0101 29.8628 92.4922 28.4796 91.5443C27.0963 90.5963 26.0243 89.2605 25.3982 87.7049C24.7721 86.1492 24.6199 84.4432 24.9609 82.8013C25.3018 81.1594 26.1205 79.655 27.3142 78.4772C28.5078 77.2994 30.0231 76.5008 31.6694 76.1819C33.3157 75.863 35.0195 76.0379 36.5666 76.6848C38.1138 77.3316 39.4351 78.4214 40.3645 79.8172C41.2939 81.213 41.7899 82.8524 41.79 84.5293V97.6114C41.79 98.1318 41.9967 98.6309 42.3647 98.999C42.7328 99.367 43.2319 99.5737 43.7523 99.5737C44.2728 99.5737 44.7719 99.367 45.1399 98.999C45.5079 98.6309 45.7146 98.1318 45.7146 97.6114V89.108H73.187V97.6114C73.187 98.1318 73.3938 98.6309 73.7618 98.999C74.1298 99.367 74.6289 99.5737 75.1493 99.5737C75.6698 99.5737 76.1689 99.367 76.5369 98.999C76.9049 98.6309 77.1117 98.1318 77.1117 97.6114V84.5293C77.1118 82.8524 77.6078 81.213 78.5372 79.8172C79.4666 78.4214 80.7879 77.3316 82.335 76.6848C83.8822 76.0379 85.586 75.863 87.2323 76.1819C88.8786 76.5008 90.3938 77.2994 91.5875 78.4772C92.7811 79.655 93.5999 81.1594 93.9408 82.8013C94.2817 84.4432 94.1296 86.1492 93.5035 87.7049C92.8774 89.2605 91.8053 90.5963 90.4221 91.5443C89.0389 92.4922 87.4062 93.0101 85.7295 93.0327Z" fill="#939676"/>
</svg>
