<svg width="129" height="141" viewBox="0 0 129 141" fill="none" xmlns="http://www.w3.org/2000/svg">
<path opacity="0.35" fill-rule="evenodd" clip-rule="evenodd" d="M72.3896 21.5677C88.4274 24.7264 96.4013 41.1852 106.954 53.6688C116.093 64.4815 128.275 74.0823 128.741 88.2328C129.216 102.682 120.004 115.425 109.306 125.15C99.1543 134.378 86.0443 138.125 72.3896 139.455C56.7546 140.979 40.255 142.292 27.5009 133.121C12.8574 122.592 2.39189 106.226 1.15457 88.2328C-0.156761 69.1629 6.91505 49.776 20.8716 36.7148C34.4578 24.0001 54.1325 17.9719 72.3896 21.5677Z" fill="#DBA278"/>
<path d="M112.853 24.933C108.6 29.8951 99.1006 39.8194 95.1309 39.8194" stroke="#939676" stroke-width="3" stroke-linecap="round" stroke-linejoin="round"/>
<path d="M21.4072 21.3885C23.5339 25.8781 29.2049 35.2825 34.8759 36.9838" stroke="#939676" stroke-width="3" stroke-linecap="round" stroke-linejoin="round"/>
<path d="M34.1672 93.2763C35.585 87.6053 40.8307 75.6961 50.4714 73.4277" stroke="#939676" stroke-width="2" stroke-linecap="round" stroke-linejoin="round"/>
<path d="M34.1672 65.6301V92.5674" stroke="#939676" stroke-width="2" stroke-linecap="round" stroke-linejoin="round"/>
<path d="M34.1672 78.3899C29.6776 73.664 23.3922 61.0933 34.1672 48.6171C38.6568 53.3429 44.9422 65.9137 34.1672 78.3899Z" stroke="#939676" stroke-width="2" stroke-linecap="round" stroke-linejoin="round"/>
<path d="M40.4922 80.8195C41.6876 74.4116 48.1844 61.9488 64.6089 63.3606C63.4135 69.7685 56.9167 82.2314 40.4922 80.8195Z" stroke="#939676" stroke-width="2" stroke-linecap="round" stroke-linejoin="round"/>
<path d="M17.8624 24.933C17.2953 22.6646 19.989 21.1523 21.4068 20.6797L17.8624 12.8821V1.54004H49.7621C56.8509 1.54004 65.3574 2.95779 69.6107 3.66667C73.0133 4.23377 83.7882 2.48521 88.7504 1.54004H117.105V17.1353L112.852 24.933C116.255 27.2014 110.489 79.2802 107.181 105.036C114.553 102.768 118.287 108.344 119.232 111.416C114.979 112.597 105.763 115.386 102.928 117.087C100.092 118.788 89.4593 118.741 84.4971 118.505H21.4068V73.1366C21.4068 67.4656 18.5713 27.7685 17.8624 24.933Z" stroke="#939676" stroke-width="3" stroke-linecap="round" stroke-linejoin="round"/>
<path d="M5.81215 115.252C4.67795 119.221 8.64766 119.741 10.7743 119.505H58.9774C60.1589 119.505 62.3801 118.654 61.8129 115.252C61.2458 111.849 57.3234 109.58 55.4331 108.872C53.7318 100.365 47.6354 99.1836 44.7999 99.6562C43.6184 97.5296 39.8378 93.2764 34.1667 93.2764C28.4957 93.2764 24.7151 97.5296 23.5336 99.6562C15.0271 98.522 12.4279 105.327 12.1916 108.872C10.5377 109.344 6.94635 111.282 5.81215 115.252Z" fill="#F3DFD0" stroke="#939676" stroke-width="2" stroke-linecap="round" stroke-linejoin="round"/>
<path d="M17.8633 12.1732L46.2184 11.4644C51.4168 12.4095 63.5149 14.2999 70.3202 14.2999C78.8267 14.2999 90.8776 12.1732 92.2953 12.1732C93.4296 12.1732 107.785 11.7006 117 11.4644" stroke="#939676" stroke-width="3" stroke-linecap="round" stroke-linejoin="round"/>
<path d="M29.9139 100.365C29.8404 101.926 31.0385 104.602 34.1672 104.619C37.2958 104.635 38.1276 101.547 38.4203 100.365" stroke="#939676" stroke-width="2" stroke-linecap="round" stroke-linejoin="round"/>
<path d="M38.0534 115.382C38.1268 113.821 36.9288 111.145 33.8001 111.129C30.6715 111.113 29.8397 114.201 29.547 115.382" stroke="#939676" stroke-width="2" stroke-linecap="round" stroke-linejoin="round"/>
<path d="M27.747 80.8193C26.5517 74.4114 20.0548 61.9486 3.63041 63.3605C4.82574 69.7684 11.3225 82.2312 27.747 80.8193Z" fill="#F3DFD0" stroke="#939676" stroke-width="2" stroke-linecap="round" stroke-linejoin="round"/>
<path d="M17.1541 113.834C18.5718 114.543 21.8326 115.393 23.5339 113.125C25.2352 110.856 23.7702 108.872 22.8251 108.163" stroke="#939676" stroke-width="2" stroke-linecap="round" stroke-linejoin="round"/>
<path d="M51.2539 113.834C49.8362 114.542 46.5753 115.393 44.874 113.125C43.1727 110.856 44.6377 108.871 45.5829 108.163" stroke="#939676" stroke-width="2" stroke-linecap="round" stroke-linejoin="round"/>
<path d="M17.8633 73.4277C22.5891 76.2632 32.4661 84.0609 34.1674 92.5674" stroke="#939676" stroke-width="2" stroke-linecap="round" stroke-linejoin="round"/>
</svg>
