<svg width="129" height="121" viewBox="0 0 129 121" fill="none" xmlns="http://www.w3.org/2000/svg">
<path opacity="0.35" fill-rule="evenodd" clip-rule="evenodd" d="M72.3896 1.02762C88.4274 4.18631 96.4013 20.6452 106.954 33.1288C116.093 43.9415 128.275 53.5423 128.741 67.6927C129.216 82.1418 120.004 94.8854 109.306 104.61C99.1543 113.838 86.0443 117.585 72.3896 118.915C56.7546 120.439 40.255 121.752 27.5009 112.581C12.8574 102.052 2.39189 85.6864 1.15457 67.6927C-0.156761 48.6229 6.91505 29.2359 20.8716 16.1748C34.4578 3.4601 54.1325 -2.56814 72.3896 1.02762Z" fill="#DBA278"/>
<path d="M2.83105 70.1123C7.47109 68.0975 19.2421 65.2769 29.206 70.1123C41.6608 76.1565 46.2398 74.325 49.903 74.325C53.5661 74.325 63.0904 73.0429 69.6842 78.5376C76.2779 84.0324 83.2379 86.2303 94.9601 81.8345C106.682 77.4387 109.063 71.5776 126.464 74.325" stroke="#939676" stroke-linecap="round"/>
<path d="M94.649 21.7206C95.9304 20.6156 97.5648 20.0053 99.2569 20C102.706 20 105.569 22.5642 105.88 25.8708C107.921 26.1593 109.514 27.8683 109.514 29.9659C109.514 32.2686 107.593 34.1033 105.266 34.1033H93.8477C91.1899 34.1033 89 32.0083 89 29.3825C89 27.1221 90.6232 25.2503 92.772 24.7759C92.9553 23.6694 93.6669 22.5668 94.649 21.7206ZM95.4862 22.6912C94.5157 23.5284 94.0079 24.5374 94.0079 25.3272V25.9016L93.4374 25.9644C91.6463 26.1606 90.2821 27.6311 90.2821 29.3825C90.2821 31.2634 91.8591 32.8211 93.8477 32.8211H105.266C106.924 32.8211 108.232 31.5236 108.232 29.9659C108.232 28.4068 106.924 27.1093 105.266 27.1093H104.625V26.4683C104.626 23.622 102.242 21.2821 99.2569 21.2821C97.8721 21.2876 96.5348 21.7865 95.4862 22.6912Z" fill="#939676"/>
<path d="M1 62.314C7.65478 56.4529 23.2355 45.3901 32.3202 48.0276C43.6761 51.3245 48.2551 67.2593 56.1309 66.3435C64.0068 65.4277 76.2784 52.2403 80.1248 48.0276C83.9711 43.8149 90.5648 48.3939 94.0449 50.775C97.5249 53.156 116.207 69.2742 127.563 67.8088" stroke="#939676" stroke-linejoin="round"/>
<path d="M96.9752 74.7688L101.737 72.7541L107.232 74.7688H113.826L120.969 71.8383L125.914 62.8635L124.083 53.156L117.306 47.6613L116.207 46.0128L109.796 39.2359L100.638 37.2212L92.3962 41.4339L88.5499 47.6613L83.9709 50.4087L79.9414 56.8192L81.0404 67.6256L88.5499 74.7688H96.9752Z" fill="#F3DFD0"/>
<path d="M54.949 68.175L57.9467 66.8973L61.4056 68.175H65.5562L70.0527 66.3166L73.1657 60.6252L72.0128 54.4693L67.7468 50.9848L67.0551 49.9394L63.0197 45.6419L57.2549 44.3643L52.0667 47.0357L49.6454 50.9848L46.7631 52.727L44.2266 56.7923L44.9183 63.6451L49.6454 68.175H54.949Z" fill="#F3DFD0"/>
<path d="M68.2399 50.2844C68.1764 50.2557 68.1255 50.2048 68.0968 50.1413C67.2907 48.2157 65.9334 46.5713 64.1956 45.4148C62.4577 44.2584 60.4168 43.6414 58.3293 43.6414C56.2418 43.6414 54.2008 44.2584 52.463 45.4148C50.7251 46.5713 49.3678 48.2157 48.5617 50.1413C48.5331 50.2048 48.4822 50.2557 48.4186 50.2844C46.6857 51.0865 45.2172 52.3656 44.1848 53.9719C43.1524 55.5783 42.5989 57.4455 42.589 59.355C42.5747 64.7554 46.9519 69.2571 52.348 69.4002C54.1378 69.4499 55.9079 69.0148 57.4707 68.1409V74.2653C57.4707 74.493 57.5612 74.7114 57.7222 74.8724C57.8832 75.0334 58.1016 75.1239 58.3293 75.1239C58.557 75.1239 58.7753 75.0334 58.9364 74.8724C59.0974 74.7114 59.1878 74.493 59.1878 74.2653V68.1381C60.6748 68.9682 62.35 69.4027 64.053 69.4002H64.312C69.7066 69.2571 74.0838 64.7582 74.0695 59.3579C74.0599 57.448 73.5065 55.5803 72.4741 53.9734C71.4417 52.3666 69.973 51.087 68.2399 50.2844ZM64.2676 67.683C62.5549 67.731 60.8697 67.2439 59.4468 66.2893C59.3639 66.2356 59.2774 66.1878 59.1878 66.1462V59.9217L65.5812 56.725C65.785 56.6233 65.9401 56.4448 66.0123 56.2287C66.0844 56.0127 66.0679 55.7769 65.9661 55.5731C65.8644 55.3693 65.6859 55.2142 65.4699 55.142C65.2539 55.0699 65.018 55.0864 64.8142 55.1882L59.1878 57.9942V53.6599C59.1878 53.4322 59.0974 53.2138 58.9364 53.0528C58.7753 52.8918 58.557 52.8014 58.3293 52.8014C58.1016 52.8014 57.8832 52.8918 57.7222 53.0528C57.5612 53.2138 57.4707 53.4322 57.4707 53.6599V61.4284L51.8443 58.6152C51.6405 58.5135 51.4046 58.4969 51.1886 58.5691C50.9726 58.6413 50.7941 58.7964 50.6924 59.0002C50.5907 59.2039 50.5741 59.4398 50.6463 59.6558C50.7185 59.8718 50.8735 60.0503 51.0773 60.1521L57.4707 63.3488V66.1391C57.3811 66.1807 57.2946 66.2285 57.2117 66.2822C55.7899 67.2398 54.1045 67.7296 52.3909 67.683C50.5163 67.6357 48.7129 66.9549 47.2747 65.7516C45.8364 64.5482 44.8481 62.8933 44.4707 61.0564C44.0934 59.2195 44.3492 57.309 45.1965 55.6361C46.0439 53.9632 47.4328 52.6266 49.137 51.8441C49.5923 51.6339 49.9523 51.2607 50.1458 50.7981C50.8212 49.1848 51.9584 47.8072 53.4144 46.8383C54.8704 45.8694 56.5803 45.3525 58.3293 45.3525C60.0782 45.3525 61.7881 45.8694 63.2441 46.8383C64.7002 47.8072 65.8373 49.1848 66.5128 50.7981C66.7068 51.2596 67.0668 51.6318 67.5216 51.8412C69.2273 52.6229 70.6179 53.9594 71.4664 55.6329C72.3149 57.3064 72.5713 59.218 72.1938 61.056C71.8163 62.8939 70.8271 64.5497 69.3876 65.7532C67.9482 66.9568 66.1434 67.637 64.2676 67.683Z" fill="#939676"/>
<path d="M118.114 46.6538C118.015 46.6091 117.935 46.5297 117.891 46.4306C116.633 43.4267 114.516 40.8615 111.805 39.0574C109.094 37.2533 105.91 36.2908 102.653 36.2908C99.3967 36.2908 96.2129 37.2533 93.5018 39.0574C90.7907 40.8615 88.6734 43.4267 87.4159 46.4306C87.3711 46.5297 87.2918 46.6091 87.1926 46.6538C84.4893 47.9051 82.1983 49.9005 80.5878 52.4065C78.9772 54.9124 78.1138 57.8253 78.0984 60.8041C78.0761 69.2286 84.9046 76.2513 93.3224 76.4745C96.1146 76.5521 98.8759 75.8734 101.314 74.5101V84.0642C101.314 84.4194 101.455 84.76 101.706 85.0112C101.957 85.2624 102.298 85.4035 102.653 85.4035C103.008 85.4035 103.349 85.2624 103.6 85.0112C103.851 84.76 103.993 84.4194 103.993 84.0642V74.5057C106.312 75.8006 108.926 76.4785 111.582 76.4745H111.986C120.402 76.2513 127.23 69.2331 127.208 60.8086C127.193 57.8291 126.33 54.9155 124.719 52.4088C123.109 49.9021 120.817 47.9059 118.114 46.6538ZM111.917 73.7958C109.245 73.8707 106.616 73.1107 104.397 71.6216C104.267 71.5378 104.132 71.4632 103.993 71.3984V61.6881L113.966 56.7012C114.284 56.5425 114.526 56.2641 114.639 55.9271C114.751 55.5901 114.725 55.2222 114.567 54.9042C114.408 54.5863 114.13 54.3445 113.793 54.2318C113.456 54.1192 113.088 54.1451 112.77 54.3038L103.993 58.6812V51.9197C103.993 51.5645 103.851 51.2238 103.6 50.9727C103.349 50.7215 103.008 50.5804 102.653 50.5804C102.298 50.5804 101.957 50.7215 101.706 50.9727C101.455 51.2238 101.314 51.5645 101.314 51.9197V64.0386L92.5367 59.65C92.2187 59.4914 91.8508 59.4655 91.5138 59.5781C91.1768 59.6907 90.8984 59.9326 90.7397 60.2505C90.581 60.5684 90.5552 60.9363 90.6678 61.2733C90.7804 61.6103 91.0222 61.8888 91.3402 62.0475L101.314 67.0343V71.3872C101.174 71.4521 101.039 71.5267 100.91 71.6104C98.6918 73.1044 96.0626 73.8684 93.3894 73.7958C90.4649 73.722 87.6517 72.6599 85.408 70.7827C83.1644 68.9055 81.6226 66.3238 81.0339 63.4583C80.4452 60.5927 80.8443 57.6123 82.1662 55.0026C83.488 52.3929 85.6547 50.3078 88.3132 49.087C89.0236 48.7592 89.5851 48.1769 89.887 47.4552C90.9406 44.9386 92.7146 42.7894 94.986 41.278C97.2574 39.7665 99.9249 38.9601 102.653 38.9601C105.382 38.9601 108.049 39.7665 110.32 41.278C112.592 42.7894 114.366 44.9386 115.419 47.4552C115.722 48.1753 116.284 48.7558 116.993 49.0825C119.654 50.3019 121.823 52.387 123.147 54.9976C124.471 57.6083 124.871 60.5904 124.282 63.4576C123.693 66.3248 122.15 68.9078 119.904 70.7853C117.659 72.6628 114.843 73.724 111.917 73.7958Z" fill="#939676"/>
<path d="M18.07 9.458C19.9006 7.87941 22.2355 7.00758 24.6527 7C29.5797 7 33.6697 10.6632 34.1147 15.3869C37.0306 15.799 39.3055 18.2405 39.3055 21.237C39.3055 24.5265 36.5617 27.1475 33.2374 27.1475H16.9252C13.1284 27.1475 10 24.1547 10 20.4036C10 17.1745 12.3188 14.5004 15.3885 13.8227C15.6505 12.242 16.667 10.6668 18.07 9.458ZM19.266 10.8445C17.8795 12.0405 17.1542 13.482 17.1542 14.6103V15.4308L16.3391 15.5206C13.7804 15.8008 11.8316 17.9016 11.8316 20.4036C11.8316 23.0905 14.0845 25.3159 16.9252 25.3159H33.2374C35.6057 25.3159 37.4739 23.4623 37.4739 21.237C37.4739 19.0097 35.6057 17.1562 33.2374 17.1562H32.3216V16.2404C32.3234 12.1742 28.9167 8.83159 24.6527 8.83159C22.6744 8.83949 20.764 9.5522 19.266 10.8445Z" fill="#939676"/>
<path d="M81.0403 84.1099C81.5287 87.0404 82.6155 93.4876 72.7981 103.891C67.6129 109.386 62.5412 110.118 55.2148 120.375" stroke="#939676" stroke-linecap="round" stroke-linejoin="round"/>
<path d="M87.2683 84.6597C86.7799 88.445 86.0961 96.8947 87.2683 100.411C88.7336 104.807 89.283 112.5 88.9167 114.515" stroke="#939676" stroke-linecap="round" stroke-linejoin="round"/>
<path d="M22.6464 72.9373L27.1619 71.011L32.3721 72.9373H38.6244L45.3976 70.1354L50.0868 61.5546L48.35 52.2734L41.9241 47.0198L40.8821 45.4438L34.8035 38.9644L26.1199 37.0381L18.3046 41.0658L14.6575 47.0198L10.3157 49.6466L6.49487 55.7757L7.53691 66.1077L14.6575 72.9373H22.6464Z" fill="#F3DFD0"/>
<path d="M42.9586 45.9166C42.8646 45.8741 42.7892 45.7988 42.7468 45.7048C41.5538 42.855 39.545 40.4213 36.973 38.7097C34.4009 36.9981 31.3803 36.085 28.2909 36.085C25.2014 36.085 22.1808 36.9981 19.6087 38.7097C17.0367 40.4213 15.0279 42.855 13.8349 45.7048C13.7925 45.7988 13.7171 45.8741 13.6231 45.9166C11.0584 47.1037 8.88493 48.9968 7.35698 51.3742C5.82903 53.7517 5.00984 56.5151 4.99529 59.3412C4.97411 67.3337 11.4524 73.9962 19.4385 74.208C22.0876 74.2816 24.7072 73.6377 27.0202 72.3443V81.4084C27.0202 81.7454 27.1541 82.0686 27.3924 82.3069C27.6307 82.5452 27.9538 82.6791 28.2909 82.6791C28.6279 82.6791 28.9511 82.5452 29.1894 82.3069C29.4276 82.0686 29.5615 81.7454 29.5615 81.4084V72.3401C31.7623 73.5686 34.2415 74.2118 36.762 74.208H37.1453C45.1293 73.9962 51.6076 67.3379 51.5864 59.3454C51.5722 56.5187 50.7531 53.7546 49.2252 51.3764C47.6973 48.9983 45.5236 47.1044 42.9586 45.9166ZM37.0796 71.6667C34.5447 71.7377 32.0508 71.0167 29.9448 69.6039C29.8222 69.5245 29.6941 69.4537 29.5615 69.3922V60.1798L39.0238 55.4487C39.3254 55.2982 39.5548 55.034 39.6617 54.7143C39.7685 54.3946 39.744 54.0455 39.5934 53.7439C39.4429 53.4423 39.1787 53.2128 38.859 53.106C38.5393 52.9991 38.1902 53.0237 37.8886 53.1742L29.5615 57.3272V50.9124C29.5615 50.5754 29.4276 50.2522 29.1894 50.0139C28.9511 49.7756 28.6279 49.6418 28.2909 49.6418C27.9538 49.6418 27.6307 49.7756 27.3924 50.0139C27.1541 50.2522 27.0202 50.5754 27.0202 50.9124V62.4098L18.6931 58.2463C18.3915 58.0958 18.0424 58.0712 17.7227 58.1781C17.403 58.2849 17.1388 58.5144 16.9883 58.816C16.8377 59.1176 16.8132 59.4667 16.92 59.7864C17.0269 60.1061 17.2563 60.3703 17.558 60.5208L27.0202 65.2519V69.3816C26.8876 69.4431 26.7595 69.5139 26.6369 69.5933C24.5326 71.0107 22.0382 71.7355 19.5021 71.6667C16.7276 71.5966 14.0586 70.589 11.93 68.8081C9.80143 67.0272 8.33871 64.5778 7.78021 61.8593C7.2217 59.1407 7.60034 56.3131 8.85442 53.8372C10.1085 51.3613 12.1641 49.3831 14.6862 48.225C15.3601 47.914 15.8929 47.3616 16.1793 46.6769C17.1789 44.2893 18.8619 42.2504 21.0168 40.8164C23.1718 39.3825 25.7024 38.6174 28.2909 38.6174C30.8793 38.6174 33.41 39.3825 35.5649 40.8164C37.7198 42.2504 39.4028 44.2893 40.4024 46.6769C40.6897 47.36 41.2223 47.9108 41.8955 48.2207C44.42 49.3776 46.478 51.3557 47.7338 53.8325C48.9896 56.3092 49.3691 59.1385 48.8103 61.8586C48.2516 64.5788 46.7877 67.0293 44.6572 68.8106C42.5268 70.5918 39.8557 71.5986 37.0796 71.6667Z" fill="#939676"/>
</svg>
