<svg width="146" height="121" viewBox="0 0 146 121" fill="none" xmlns="http://www.w3.org/2000/svg">
<path opacity="0.35" fill-rule="evenodd" clip-rule="evenodd" d="M80.3642 1.28445C96.402 4.44315 104.376 20.902 114.928 33.3856C124.068 44.1983 136.25 53.7991 136.715 67.9496C137.191 82.3986 127.979 95.1422 117.281 104.866C107.129 114.094 94.0189 117.841 80.3642 119.172C64.7292 120.696 48.2296 122.009 35.4755 112.838C20.832 102.309 10.3665 85.9433 9.12918 67.9496C7.81785 48.8797 14.8897 29.4928 28.8462 16.4316C42.4324 3.71694 62.1072 -2.31131 80.3642 1.28445Z" fill="#DBA278"/>
<path fill-rule="evenodd" clip-rule="evenodd" d="M70.8942 87.0211L66.3931 83.2001V93.5038C66.3931 96.124 62.4299 96.1607 62.4299 93.532V79.8357L50.8799 70.0309V93.5038C50.8799 96.1427 46.9167 96.1501 46.9167 93.532V66.6664L35.3667 56.8617V93.5039C35.3667 96.1427 31.4035 96.1503 31.4035 93.5322V21.2315C27.4649 21.2315 27.5818 20.9495 27.5818 16.8721H21.5566C19.6123 20.2496 15.9669 22.5338 11.7854 22.5338C5.55753 22.5338 0.518555 17.4665 0.518555 11.2669C0.518555 5.06724 5.58588 0 11.7854 0C15.9669 0 19.6123 2.28423 21.5566 5.66177H27.5818C27.5818 4.04087 27.1552 1.27385 29.5634 1.27385H114.744C117.153 1.27385 116.726 4.04095 116.726 5.66177H124.372C126.325 2.28423 129.983 0 134.164 0C140.392 0 145.431 5.06724 145.431 11.2669C145.431 17.4665 140.364 22.5338 134.164 22.5338C129.983 22.5338 126.325 20.2496 124.372 16.8721H116.726C116.726 20.738 116.992 21.2315 112.904 21.2315C112.904 45.3228 112.904 69.4123 112.904 93.5038C112.904 96.1427 108.941 96.1501 108.941 93.5321V56.9117L97.3912 66.708V93.504C97.391 96.1429 93.4279 96.1502 93.4279 93.5322V70.0696L81.9063 79.842V93.504C81.9063 96.1241 77.943 96.1609 77.943 93.5322V83.2036L73.4419 87.0213C72.6878 87.6594 71.6483 87.6592 70.8942 87.0211ZM112.763 17.2682V5.2369H31.5451V17.2682C58.6178 17.2682 85.6905 17.2682 112.763 17.2682ZM38.8186 21.2313L46.9169 28.1124V21.2313H38.8186ZM50.8801 21.2313V31.4799L62.4301 41.2939V21.2313L50.8801 21.2313ZM66.3933 21.2313V44.6614L72.1683 49.5684L77.9433 44.6659V21.2313H66.3933ZM81.9065 21.2313V41.3013L93.4282 31.52V21.2313H81.9065ZM97.3914 21.2313V28.1554L105.548 21.2313H97.3914ZM127.142 13.3368C128.049 16.3408 130.85 18.542 134.165 18.542C138.184 18.542 141.468 15.2582 141.468 11.2383C141.468 7.21847 138.184 3.9347 134.165 3.9347C129.156 3.9347 125.804 8.69744 127.142 13.3368ZM116.726 12.9086H122.983C122.824 11.9061 122.824 10.6273 122.983 9.62473H116.726V12.9086ZM11.7857 3.9347C7.76587 3.9347 4.4821 7.21847 4.4821 11.2383C4.4821 15.2582 7.76587 18.542 11.7857 18.542C21.4302 18.542 21.3492 3.9347 11.7857 3.9347ZM22.9394 12.9086H27.582V9.62473H22.9394C23.0983 10.6315 23.0983 11.9018 22.9394 12.9086ZM35.367 51.6462L46.9169 61.4602V49.9924L35.367 40.1877V51.6462ZM35.367 34.9723L46.9169 44.7862V33.3186L35.367 23.5139V34.9723ZM50.8802 64.8276L62.4302 74.6416V63.1616L50.8802 53.3567V64.8276ZM50.8802 48.1537L62.4302 57.9676V46.4877L50.8802 36.6829V48.1537ZM66.3934 78.0089L72.1684 82.916L77.9434 78.0134V66.5291L73.4423 70.3468C72.6882 70.9849 71.6485 70.9849 70.8945 70.3468L66.3934 66.5258L66.3934 78.0089ZM66.3934 61.335L72.1684 66.242L77.9434 61.3394V49.8553L73.4423 53.673C72.6882 54.3111 71.6485 54.3111 70.8945 53.673L66.3934 49.852L66.3934 61.335ZM81.9066 74.6487L93.4283 64.8675V53.3952L81.9066 63.1675V74.6487ZM81.9066 57.9748L93.4283 48.1936V36.7213L81.9066 46.4937V57.9748ZM97.3915 61.5029L108.941 51.6976V40.2373L97.3915 50.0337V61.5029ZM97.3915 44.829L108.941 35.0238V23.5634L97.3915 33.3597V44.829Z" fill="#939676"/>
</svg>
