<svg width="319" height="98" viewBox="0 0 319 98" fill="none" xmlns="http://www.w3.org/2000/svg">
<path d="M124.414 77.4293C124.304 77.4293 124.194 77.4293 124.084 77.4293L123.774 77.3593L123.484 77.2293L123.164 77.0393C121.814 76.1593 120.874 74.5593 120.214 72.8893C118.234 67.6493 116.844 62.1193 116.194 56.5393C115.824 53.2493 115.764 49.9193 115.934 46.6693C115.954 46.4293 115.974 46.1893 115.994 45.9493C118.224 41.8293 120.044 37.5093 121.384 33.0293C121.914 31.2793 122.404 29.5193 122.784 27.7293C122.894 27.1893 123.014 26.6593 123.104 26.1193C123.714 22.7993 124.054 19.4293 124.124 16.0493C124.204 12.6693 123.964 9.29928 123.594 5.95928C123.554 5.50928 123.514 5.05928 123.454 4.60928C123.344 3.82928 123.224 3.05928 123.054 2.27928C122.974 1.93928 122.854 1.38928 122.664 0.949278C122.564 0.729278 122.464 0.519278 122.334 0.359278C122.204 0.189278 122.044 0.0492773 121.814 0.00927734C121.414 0.0192773 121.164 0.309278 120.954 0.609278C120.734 0.929278 120.574 1.31928 120.424 1.71928C120.194 2.35928 120.034 2.98928 119.884 3.62928C119.584 4.90928 119.354 6.18928 119.134 7.47928C118.714 10.0593 118.374 12.6393 118.054 15.2193C117.754 17.6893 117.474 20.2093 117.144 22.6293C116.744 25.5193 116.374 28.3393 116.184 31.3093C116.084 32.8693 115.874 34.5093 115.704 36.1093C115.584 37.1493 115.474 38.1893 115.354 39.2193L114.954 42.4793L114.854 43.5493C114.774 44.2793 114.694 44.9293 114.584 45.6893C114.564 45.7993 114.564 45.9193 114.554 46.0293C113.534 47.8393 112.444 49.6093 111.264 51.3293C110.604 52.2893 109.914 53.2193 109.204 54.1393C108.074 55.6193 106.874 57.0393 105.634 58.4193C104.234 59.9793 102.774 61.5093 101.214 62.8893C99.6037 64.2793 97.8237 65.5193 95.8137 66.2093C94.6637 66.6093 93.4337 66.7893 92.2337 66.6493C91.0237 66.5093 89.8337 66.1593 88.8337 65.4993C87.3937 64.5993 86.6937 62.8393 86.7837 61.1393C86.8037 60.2893 86.9537 59.4293 87.2237 58.6093C87.4937 57.7893 87.8337 56.9893 88.2737 56.2593C88.7037 55.5193 89.2137 54.8093 89.7937 54.1893C90.0737 53.8593 90.3937 53.5893 90.7037 53.2993C91.0437 53.0393 91.3637 52.7693 91.7237 52.5493C91.7637 52.5293 91.8037 52.5093 91.8437 52.4893C94.0037 52.1593 96.1837 52.0493 98.3637 52.1693C100.114 52.3093 101.854 52.6193 103.524 53.0993C103.944 53.2193 104.364 53.3493 104.764 53.4893L105.374 53.7093L105.544 53.7693H105.564L105.574 53.7793C105.574 53.7793 105.554 53.7793 105.684 53.8093C105.784 53.8293 105.924 53.8393 106.074 53.7793C106.234 53.7293 106.374 53.6093 106.454 53.4993C106.534 53.3893 106.564 53.2893 106.584 53.2193C106.594 53.1393 106.604 53.0393 106.584 52.9193C106.544 52.6793 106.344 52.4693 106.214 52.4093L106.184 52.3893L106.124 52.3593C105.994 52.2893 105.894 52.2393 105.784 52.1793C104.934 51.7693 104.084 51.4293 103.204 51.1293C101.104 50.4193 98.8837 49.8793 96.5637 49.9093C94.7337 49.9393 92.8037 50.3093 91.1237 51.3393C90.4637 51.4493 89.7737 51.6693 89.1137 51.8793C88.7937 51.8793 88.5037 51.8493 88.1637 51.9293C86.3937 52.3193 84.6237 52.8893 82.9437 53.5593C82.2937 53.8093 81.5337 54.0993 80.9937 54.3693C79.9137 54.9093 78.9837 55.2793 77.9537 55.4493C77.7337 55.4893 77.3037 55.6493 76.9737 55.7693C72.4137 57.4693 67.8237 59.0993 63.2237 60.6793C62.7337 60.8493 62.2737 61.0593 61.8037 61.2493L56.7037 62.9293C53.6437 63.9193 50.6637 64.5393 47.5137 65.5793C44.4737 66.5793 41.3837 67.4893 38.4437 68.4993L36.3637 69.1193C35.5137 69.3593 34.6537 69.5993 33.8137 69.8293C29.7637 70.9793 25.6837 72.0193 21.4637 72.6993C17.5737 73.3093 13.6337 73.8593 9.72368 73.8693C8.33368 73.8493 6.92368 73.7693 5.62368 73.4993C4.30368 73.2193 2.92368 72.8193 2.02368 72.0193C1.57368 71.6293 1.28368 71.1493 1.17368 70.5993C1.06368 70.0493 1.10368 69.4293 1.24368 68.8393C1.32368 68.5093 1.33368 67.7893 1.45368 67.2293C1.70368 66.4493 2.21368 65.4293 2.35368 64.9693C2.69368 63.6693 3.48368 62.2893 4.32368 60.8493C4.15368 60.8093 4.00368 60.7793 3.86368 60.7493C3.37368 61.6093 3.12368 62.0393 2.82368 62.5493C2.66368 62.7993 2.49368 63.0793 2.27368 63.4493C2.04368 63.8093 1.77368 64.2693 1.43368 64.8893C1.09368 65.0793 0.723678 65.9293 0.443678 66.8293C0.203679 67.6293 0.033678 68.4693 0.00367797 69.3193C-0.026322 70.1693 0.123678 71.0593 0.583678 71.8093C0.993678 72.4593 1.58368 72.9593 2.22368 73.3193C2.87368 73.6993 3.58368 73.8993 4.29368 74.0993C5.72368 74.4393 7.18368 74.5493 8.63368 74.5693C11.5437 74.5993 14.4337 74.2993 17.3037 73.8793C20.4037 73.4393 23.4837 72.8493 26.5437 72.1893C30.2637 71.4293 33.9537 70.5493 37.6237 69.6093L38.1437 69.4793C40.7337 68.8693 43.3137 68.2493 45.8937 67.5493C47.6937 67.0593 49.4937 66.4893 51.2937 65.9293C51.5437 65.8593 51.7937 65.8093 52.0437 65.7293C56.7637 64.2393 61.4537 62.6493 66.1337 61.0493C71.1637 59.3293 76.1937 57.5993 81.1737 55.7193C82.1737 55.3393 83.1637 54.9193 84.1537 54.5093L85.3137 54.1193C86.5637 53.6693 87.8437 53.2993 89.1437 52.9893C89.0537 53.0793 88.9537 53.1593 88.8737 53.2593C88.2237 53.9593 87.6837 54.7393 87.2137 55.5493C86.2837 57.1793 85.6337 58.9993 85.5437 60.9693C85.4937 61.9493 85.6237 62.9793 86.0237 63.9493C86.4137 64.9193 87.0937 65.8193 87.9337 66.4193C88.8237 67.0793 89.8137 67.4793 90.8237 67.7293C91.3337 67.8493 91.8337 67.9293 92.3537 67.9793C92.8837 68.0193 93.4037 68.0193 93.9237 67.9693C96.0037 67.7593 97.8637 66.9093 99.5237 65.8893C101.174 64.8393 102.634 63.5593 103.984 62.2493C105.334 60.9293 106.614 59.5393 107.834 58.1093C109.534 56.0993 111.034 53.9593 112.464 51.7793C113.124 50.7893 113.754 49.7793 114.374 48.7593C114.264 53.0893 114.704 57.4093 115.494 61.6593C115.954 63.9193 116.454 66.1793 117.134 68.3893C117.444 69.4993 117.814 70.5993 118.194 71.6893C118.554 72.7793 118.964 73.8993 119.524 74.9793C119.904 75.7193 120.404 76.4993 121.034 77.1093C121.664 77.7193 122.404 78.1493 123.044 78.2393C123.884 78.6293 124.884 78.5193 125.604 78.1593C126.264 77.8493 126.604 77.5293 126.764 77.3193C126.924 77.1093 126.904 76.9993 126.744 76.9593C127.284 76.4893 127.774 75.9693 128.394 75.1993C127.604 75.7893 126.774 76.4793 125.844 76.9593C125.384 77.1993 124.894 77.3793 124.434 77.4093M121.914 28.6493C121.774 29.3393 121.634 30.0393 121.464 30.7593C121.374 31.1993 121.284 31.6493 121.184 32.0993C121.274 31.6493 121.364 31.2093 121.464 30.7593C121.634 30.0393 121.774 29.3393 121.914 28.6493C122.034 27.9493 122.124 27.2593 122.224 26.5593C122.124 27.2593 122.034 27.9593 121.914 28.6493ZM117.654 28.9293C117.824 27.5193 117.954 26.0793 118.104 24.6593C118.494 21.0993 118.854 17.5193 119.514 14.0893C119.564 13.8293 119.604 13.2393 119.594 13.2293C119.404 13.0993 119.544 12.3593 119.614 11.8093C119.884 9.82928 120.184 7.84928 120.554 5.89928C120.734 4.92928 120.944 3.95928 121.194 3.02928C121.264 2.79928 121.324 2.56928 121.404 2.33928L121.494 2.06928L121.524 1.99928C121.564 1.91928 121.604 1.80928 121.694 1.79928C121.764 1.81928 121.784 1.89928 121.804 1.94928L121.834 2.04928L121.904 2.33928C122.054 3.00928 122.174 3.71928 122.274 4.41928C122.324 4.77928 122.454 5.12928 122.534 5.47928C122.934 8.52928 123.304 11.5493 123.204 14.6993C123.184 16.0093 123.084 17.3293 123.004 18.6493C122.874 19.9593 122.764 21.2793 122.554 22.5893C122.454 23.4393 122.304 24.2693 122.144 25.1093C122.004 25.9493 121.824 26.7793 121.644 27.6093C121.274 29.3593 120.844 31.0893 120.324 32.8093C119.624 35.0293 118.764 37.1993 117.854 39.3293C117.354 40.4893 116.824 41.6293 116.264 42.7593C116.664 38.1393 117.094 33.5193 117.664 28.9193" fill="#182828"/>
<path d="M162.734 94.6393C161.924 93.9893 161.054 93.3393 160.244 92.6593C157.794 90.5793 155.704 88.0593 154.454 85.1293C154.274 84.6993 154.124 84.2593 153.964 83.8193C153.834 83.3593 153.684 82.9093 153.564 82.4493C153.324 81.5393 153.114 80.6093 152.914 79.6893C152.184 76.3793 151.974 72.9693 152.084 69.5493C152.114 68.7293 152.084 67.8993 152.104 67.0693C152.154 64.9993 152.164 62.9093 152.444 60.8893C152.464 60.7393 152.444 60.3893 152.424 60.3893C152.224 60.3293 152.274 59.8893 152.284 59.5693C152.384 56.3993 152.504 53.2293 152.644 50.0593C152.644 49.8493 152.584 49.6293 152.554 49.4193C152.594 47.6193 152.504 45.8493 152.674 44.0093C152.824 42.4793 152.904 40.9293 153.024 39.3793L153.214 36.3893C153.274 35.3393 153.294 34.2993 153.354 33.2493C153.454 31.8893 153.554 30.5293 153.644 29.1693L153.824 25.9193C155.264 25.8993 156.714 25.8493 158.154 25.7893C158.674 25.7693 159.184 25.6493 159.694 25.5693L163.814 25.3293L164.894 25.3493L165.214 25.3293L169.214 25.1993C169.304 25.1993 169.394 25.2193 169.484 25.2193H173.514C174.004 25.2193 174.514 25.2093 174.994 25.2893C175.574 25.3893 176.134 25.4693 176.724 25.3793C177.034 25.3293 177.364 25.3793 177.684 25.3993C177.894 25.4093 178.094 25.4393 178.304 25.4593L178.954 25.5493H179.164C179.454 25.5793 179.734 25.6293 180.024 25.6393L185.464 25.7693C185.774 25.7693 186.124 25.8193 186.344 25.4793C186.484 25.4793 186.634 25.4793 186.774 25.4793C187.034 25.4593 187.114 25.2993 187.074 25.0593C187.214 25.0293 187.354 24.9993 187.554 24.9593C187.164 24.5593 186.704 24.4393 186.254 24.3393C185.894 24.2593 185.514 24.2693 185.144 24.2593L181.754 24.2293C181.094 24.2193 180.424 24.1293 179.764 24.1693C178.584 24.2493 177.404 24.2793 176.224 24.1393C175.944 24.1093 175.654 24.1293 175.374 24.1193C174.664 24.0993 173.944 24.1193 173.254 23.8993C173.204 23.8793 173.084 23.9193 173.084 23.9293C173.064 24.1293 172.914 24.0893 172.804 24.0893L169.544 24.0693C169.474 24.0693 169.394 24.1493 169.324 24.1893C168.704 24.2293 168.104 24.4093 167.474 24.3293C166.944 24.2593 166.414 24.2593 165.884 24.2293C165.544 24.2293 165.204 24.2093 164.854 24.2093C164.494 24.2093 164.134 24.2593 163.774 24.2593C163.304 24.2593 162.844 24.2193 162.374 24.2193C161.464 24.2493 160.544 24.2793 159.624 24.3093C159.394 24.3093 159.154 24.3093 158.924 24.3093C158.554 24.3093 158.174 24.3093 157.804 24.3293C157.384 24.3493 156.964 24.3993 156.544 24.4293L155.244 24.5393C154.804 24.5693 154.354 24.5793 153.914 24.6193C154.594 22.7293 155.224 20.8293 155.744 18.8893C155.824 18.5393 155.894 18.1793 155.964 17.8193C155.894 18.1793 155.824 18.5293 155.744 18.8893C156.384 16.8893 156.934 14.8593 157.374 12.7993C157.634 11.5593 157.884 10.2993 158.004 9.02933C158.214 6.97933 158.294 4.90933 158.224 2.83933V2.44933V2.27933C158.224 2.16933 158.224 2.04933 158.204 1.93933C158.134 1.48933 157.934 1.06933 157.634 0.739329C157.334 0.409329 156.924 0.149328 156.444 0.0493285C155.964 -0.0606715 155.454 0.0193288 155.044 0.229329C154.624 0.429329 154.294 0.759329 154.064 1.14933C153.954 1.34933 153.874 1.54933 153.814 1.77933L153.774 1.95933V2.11933L153.754 2.30933L153.654 3.82933C153.384 8.12933 153.134 12.4393 152.904 16.7393C152.824 18.2493 152.844 19.7493 152.814 21.2493L152.674 24.3693C152.624 24.4793 152.584 24.5793 152.534 24.6893C151.544 24.6893 150.544 24.5693 149.554 24.5293C148.564 24.4893 147.574 24.4093 146.584 24.5193C145.974 24.4093 145.364 24.2793 144.744 24.1893C144.604 24.1693 144.444 24.2693 144.294 24.3193C144.234 24.2593 144.184 24.1593 144.114 24.1393C143.764 24.0793 143.404 24.0293 143.044 23.9993C142.904 23.9893 142.744 23.9793 142.624 24.0393C142.384 24.1593 142.184 24.1693 141.984 23.9693C141.944 23.9293 141.844 23.9293 141.784 23.9293C140.814 23.9493 139.844 23.9593 138.864 23.9993C138.764 23.9993 138.664 24.0593 138.554 24.0993L137.474 24.1293C136.824 24.1493 136.204 23.8893 135.524 24.0193C134.884 24.1493 134.224 24.2293 133.614 24.5293L133.184 24.6493C133.004 24.6893 132.834 24.7293 132.654 24.7893C131.824 25.0493 131.024 25.3393 130.164 25.5193C129.364 25.6693 128.594 25.9593 127.834 26.2593C127.554 26.3593 127.284 26.4793 126.994 26.5693C126.704 26.6693 126.444 26.8093 126.144 26.9693C125.834 27.1693 125.514 27.3493 125.124 27.7593C125.004 27.8893 125.014 28.2293 125.054 28.4493C124.994 28.7693 125.044 29.2293 125.224 29.3093C125.464 29.4393 125.684 29.5393 125.934 29.5993C126.044 29.6293 126.204 29.6393 126.234 29.6193C126.234 29.6193 126.244 29.6193 126.234 29.6093L126.184 29.5793L126.134 29.5393L125.964 29.3893C125.744 29.3093 125.754 29.1693 125.834 28.9993C125.914 28.9993 125.984 28.9993 126.054 28.9593C126.184 29.1393 126.304 29.1793 126.414 29.1893C126.474 29.1893 126.534 29.1893 126.574 29.1393L126.604 29.1093C126.604 29.1093 126.604 29.0693 126.594 29.0493C126.594 29.0293 126.534 28.9593 126.504 28.9193C126.434 28.8793 126.534 28.7793 126.554 28.7093C126.404 28.6793 126.274 28.6193 126.184 28.4593C126.174 28.4793 126.154 28.5093 126.134 28.5393C126.154 28.3093 126.314 28.0993 126.514 27.9093C127.404 27.2493 128.434 26.6893 129.494 26.2693C130.074 26.0493 130.674 25.8793 131.274 25.7293C132.014 25.5793 132.754 25.4893 133.504 25.4193H133.614C134.144 25.4193 134.674 25.4793 135.204 25.4893C135.574 25.4993 135.934 25.4393 136.304 25.4293C136.354 25.4293 136.404 25.4593 136.454 25.4493C137.424 25.3793 138.404 25.2993 139.384 25.2993C140.434 25.2993 141.494 25.3593 142.554 25.3893C142.764 25.3893 142.974 25.3693 143.194 25.3593C143.274 25.3793 143.354 25.4093 143.444 25.4093L146.124 25.4393C146.244 25.4193 146.374 25.3993 146.494 25.3893C146.374 25.4093 146.244 25.4293 146.124 25.4393C146.834 25.5493 147.544 25.6493 148.264 25.7593C148.694 25.8193 149.124 25.9093 149.554 25.9093C150.374 25.9193 151.194 25.9093 152.014 25.9193C151.864 26.2593 151.724 26.5993 151.574 26.9393C151.414 27.3093 151.234 27.7393 151.144 28.0793C150.984 28.7593 150.774 29.3093 150.354 29.7693C150.264 29.8693 150.154 30.1093 150.074 30.2893C148.954 32.8593 147.704 35.3693 146.394 37.8593C146.254 38.1193 146.164 38.4093 146.054 38.6793C145.554 39.5893 145.054 40.4893 144.544 41.3893C143.624 43.0093 142.484 44.3693 141.564 46.0593C140.674 47.6893 139.714 49.2893 138.944 50.9293L138.334 52.0293C138.074 52.4693 137.814 52.9193 137.564 53.3593C136.324 55.5293 135.444 57.8293 134.024 59.8193C133.374 60.7293 132.664 61.6093 131.814 62.2293L131.494 62.4593C131.384 62.5193 131.274 62.5693 131.154 62.6293C130.934 62.7693 130.694 62.7993 130.464 62.8693C130.354 62.9093 130.234 62.8893 130.114 62.9093C129.994 62.9093 129.884 62.9393 129.764 62.9193C129.524 62.8993 129.294 62.8493 129.064 62.7693C128.424 62.5193 127.814 62.0593 127.394 61.4893C126.964 60.9293 126.604 60.2693 126.414 59.5493C126.214 58.8293 126.174 58.0493 126.324 57.3393C126.374 57.1393 126.254 56.7193 126.254 56.3893C126.314 55.9293 126.544 55.3293 126.534 55.0493C126.494 54.2793 126.814 53.4393 127.174 52.5693C127.004 52.5293 126.874 52.4893 126.734 52.4593C126.514 52.9793 126.414 53.2493 126.284 53.5693C126.204 53.7293 126.124 53.8893 126.024 54.1193C125.914 54.3393 125.784 54.6193 125.644 55.0093C125.364 55.1293 125.244 55.6593 125.184 56.2093C125.084 57.1793 125.104 58.1793 125.314 59.1393C125.494 59.9793 125.804 60.7993 126.314 61.4993C126.824 62.1993 127.474 62.7893 128.244 63.1793C128.634 63.3793 129.044 63.5093 129.484 63.5693C129.704 63.5993 129.914 63.5993 130.134 63.5693C130.354 63.5493 130.574 63.5393 130.774 63.4593C131.604 63.2193 132.314 62.6793 132.904 62.0693C134.174 60.7393 135.084 59.1393 135.954 57.5493C136.504 56.5893 137.014 55.6193 137.584 54.6793C138.164 53.7493 138.774 52.8293 139.364 51.9093L139.534 51.6493C140.424 50.3893 141.314 49.1293 142.174 47.8293C142.774 46.9293 143.314 45.9693 143.874 45.0293C143.954 44.9093 144.054 44.7893 144.134 44.6593C145.574 42.1693 146.944 39.6393 148.284 37.0993C149.724 34.3593 151.114 31.5993 152.334 28.7493C152.404 28.5893 152.464 28.4293 152.534 28.2593L152.304 33.2393L152.094 36.3993L152.054 37.3493C151.874 41.2393 151.704 45.1293 151.574 49.0193C151.554 49.2793 151.534 49.5393 151.514 49.7993C151.344 53.7193 151.214 57.6393 151.124 61.5693C151.084 63.0193 151.064 64.4793 150.964 65.8993C150.844 67.5893 150.744 69.2493 150.874 70.9793C150.944 71.8893 150.934 72.8593 150.964 73.7993C150.994 74.4093 151.004 75.0193 151.054 75.6293C151.084 76.2693 151.124 76.9093 151.174 77.5593L151.264 78.1893C151.364 79.0293 151.464 79.8793 151.634 80.7093C151.914 82.0293 152.254 83.3393 152.724 84.6293C153.164 85.9393 153.804 87.1693 154.514 88.3493C155.974 90.6993 157.904 92.7093 160.024 94.3993C160.744 94.9793 161.584 95.6293 162.314 95.7093C162.664 95.9493 163.024 96.1893 163.384 96.4093C164.034 96.8093 164.324 96.7893 164.354 96.5193C164.714 96.7093 165.084 96.8993 165.594 97.1593C164.834 96.2393 163.764 95.4293 162.744 94.6093M164.254 24.7593C164.404 24.7393 164.544 24.7093 164.684 24.6793C164.544 24.7193 164.404 24.7493 164.254 24.7593ZM160.594 24.6193C160.254 24.5893 159.914 24.5493 159.584 24.5293C159.924 24.5493 160.264 24.5893 160.594 24.6193ZM154.244 19.1193C154.314 18.0293 154.384 16.9493 154.454 15.8593L154.604 12.1693L154.754 8.37933C154.824 6.91933 154.924 5.44933 154.964 3.99933C154.984 3.48933 155.004 2.97933 155.024 2.46933C155.034 2.18933 155.034 1.99933 155.144 1.80933C155.234 1.61933 155.394 1.45933 155.574 1.34933C155.944 1.12933 156.434 1.20933 156.724 1.52933C156.874 1.67933 156.974 1.87933 157.004 2.08933C157.024 2.19933 157.024 2.27933 157.004 2.42933V2.81933C157.034 4.83933 156.894 6.86933 156.684 8.86933C156.394 11.7293 155.794 14.5393 155.224 17.3593C154.894 18.4193 154.524 19.4593 154.144 20.4993L154.244 19.1193Z" fill="#182828"/>
<path d="M125.884 45.6992L125.424 46.0092L126.124 46.0292L126.064 46.9492L126.834 46.0592H127.164C127.224 46.0692 127.274 46.0792 127.334 46.0792C127.404 46.0792 127.504 46.0992 127.534 46.0692C127.624 45.9792 127.714 45.8792 127.774 45.7592C127.834 45.6292 127.874 45.4892 127.894 45.3392C127.894 45.2892 127.834 45.1792 127.794 45.0992L127.814 44.6492L127.884 44.5792V44.5492L127.994 44.1692C128.004 44.1692 128.024 44.1692 128.024 44.1692C128.094 44.0692 128.154 43.9592 128.234 43.8592C128.264 43.8192 128.284 43.7792 128.374 43.7892C128.484 43.7892 128.584 43.8092 128.534 43.7092C128.514 43.6592 128.574 43.6592 128.604 43.6492C128.624 43.6392 128.654 43.6392 128.684 43.6292H128.794L128.804 43.6192C128.844 43.6192 128.894 43.6192 128.924 43.5992C129.064 43.4892 129.204 43.3792 129.324 43.2492C129.344 43.2292 129.404 43.2292 129.124 43.0192C129.124 43.0092 129.144 42.9992 129.144 42.9792C129.144 42.9492 129.014 42.8492 128.814 42.7192C128.794 42.6892 128.784 42.6592 128.754 42.6292C128.404 42.4292 128.274 42.3992 128.174 42.3792C128.094 42.3592 128.074 42.3992 128.054 42.4192C127.984 42.4992 127.924 42.5892 127.854 42.6592C127.814 42.7092 127.704 42.7092 127.704 42.7792C127.704 42.9192 127.664 43.0192 127.494 43.0392C127.454 43.0392 127.454 43.0792 127.434 43.0992C127.374 43.1392 127.364 43.2092 127.144 43.1392C127.124 43.1392 127.144 43.1592 127.164 43.1692C127.324 43.2892 127.284 43.2792 127.284 43.2792C127.234 43.3392 127.184 43.3992 127.144 43.4592C126.984 43.4592 126.854 43.4692 126.714 43.4792C126.714 43.4792 126.657 43.5126 126.544 43.5792C126.304 43.5892 126.304 43.6092 126.304 43.6292L126.354 43.7192L126.464 44.0392V44.2092L126.384 44.4192C126.304 44.4792 126.204 44.5292 126.154 44.5892C126.114 44.6292 126.154 44.6592 126.154 44.6992C126.144 44.6992 126.124 44.7092 126.124 44.7192C126.154 44.8092 126.214 44.8992 126.214 44.9892C126.214 45.0892 126.154 45.1892 126.134 45.2892C126.134 45.3092 126.154 45.3292 126.164 45.3492C126.144 45.3492 126.114 45.3692 126.114 45.3692C126.114 45.4592 126.104 45.5392 126.094 45.6192C126.114 45.6292 126.134 45.6392 126.144 45.6492C126.124 45.6392 126.104 45.6292 126.094 45.6192L125.924 45.7392L125.884 45.6992ZM127.374 44.2992C127.374 44.2992 127.364 44.2792 127.354 44.2692C127.354 44.2792 127.374 44.2992 127.374 44.3092M127.214 43.7692C127.214 43.7692 127.214 43.8092 127.174 43.8092C127.154 43.8092 127.154 43.8092 127.134 43.8092C127.154 43.7892 127.174 43.7792 127.204 43.7592" fill="#182828"/>
<path d="M217.603 79.1894C216.833 79.9994 216.023 80.8594 215.133 81.5394C213.803 82.5794 212.193 83.3094 210.693 82.9394C209.183 82.6094 207.983 81.2794 207.083 79.8394C206.013 78.1094 205.253 76.1294 204.513 74.2094C203.173 70.7494 202.383 67.0694 201.993 63.3594C201.913 62.4694 201.773 61.5694 201.683 60.6794C201.603 59.5594 201.523 58.4294 201.453 57.3094C201.433 56.1894 201.453 55.0694 201.513 53.9694C201.523 53.8094 201.473 53.4294 201.463 53.4294C201.253 53.3694 201.293 52.8894 201.293 52.5394L201.323 49.9494C201.323 49.5194 201.323 49.0894 201.343 48.6594L201.413 47.3694C201.463 46.5294 201.503 45.6894 201.543 44.8494C201.923 44.1894 202.303 43.5394 202.663 42.8694C203.323 41.6494 203.963 40.4094 204.513 39.1294C205.393 37.0594 206.123 34.9194 206.773 32.7694C207.413 30.6094 207.903 28.4094 208.303 26.1894C208.493 25.0094 208.683 23.8194 208.823 22.6294C208.963 21.4394 209.073 20.2494 209.153 19.0594C209.233 17.8694 209.293 16.6694 209.313 15.4794C209.323 14.8794 209.333 14.2794 209.313 13.6794L209.293 12.7794L209.263 12.1194C209.243 11.8494 209.233 11.5694 209.213 11.3094C209.153 10.5694 209.043 9.86936 208.853 9.44936C208.653 9.00936 208.453 8.81936 208.143 8.67936C208.103 8.65936 208.053 8.63935 208.003 8.61935L207.913 8.58936L207.813 8.60936C207.703 8.62936 207.613 8.66936 207.543 8.69936C207.393 8.75936 207.263 8.85935 207.133 9.00935C206.873 9.29935 206.603 9.78935 206.383 10.3994C206.233 10.7994 206.083 11.2194 205.953 11.6494L205.773 12.2494L205.663 12.6494C205.513 13.1894 205.383 13.7194 205.243 14.2594C204.983 15.3294 204.733 16.4094 204.503 17.4794C204.023 19.6294 203.623 21.7894 203.213 23.9494C202.983 25.0794 202.703 26.2094 202.503 27.3494L202.343 28.3794L201.833 31.5494C201.753 32.0794 201.663 32.5994 201.583 33.1294L201.393 34.7194L201.003 37.8994C200.853 38.9594 200.813 40.0294 200.713 41.0894C200.683 41.3694 200.643 41.6594 200.613 41.9394C200.523 42.7994 200.463 43.6694 200.413 44.5294C199.973 45.3894 199.523 46.2494 199.083 47.1094C198.043 48.7594 196.923 50.3594 195.833 51.9894C195.583 52.3594 195.403 52.8394 195.193 53.2794C195.043 53.4094 194.863 53.4994 194.733 53.6794C194.093 54.6094 193.453 55.5494 192.813 56.4794C192.563 56.8394 192.273 57.2694 192.113 57.6194C191.783 58.3094 191.443 58.8493 190.903 59.2494C190.793 59.3394 190.623 59.5694 190.493 59.7494C189.603 60.9694 188.663 62.1694 187.613 63.1494C186.573 64.1394 185.363 64.8894 184.273 64.7094C184.043 64.6594 183.793 64.6594 183.533 64.5694C182.693 64.1894 181.953 63.4194 181.343 62.5794C180.233 61.0294 180.043 59.2194 179.853 57.2794C179.763 56.3294 179.783 55.3594 179.873 54.4094C179.893 54.1694 179.923 53.9294 179.953 53.6994L180.003 53.3594L180.023 53.2194C180.023 53.2194 180.053 53.2194 179.993 53.2094L179.693 53.1094C179.693 53.1094 179.603 53.0794 179.553 53.0594V52.9494L179.533 52.9094V52.8894V52.8794V52.8594C179.533 52.8594 179.393 52.5794 179.173 52.6494C179.023 52.7094 179.043 52.7494 179.033 52.7394L179.013 52.7594C178.963 52.8494 178.983 52.8194 178.973 52.8494V52.8794L178.943 52.9294L178.923 52.9894C178.803 53.0094 178.643 53.0394 178.443 53.0794V53.0994L178.463 53.1894L178.623 53.8794L178.663 54.0994C178.543 54.7194 178.443 55.3394 178.393 55.9794C178.343 56.8094 178.383 57.6494 178.493 58.4894C178.023 60.6794 176.973 62.8094 175.313 64.3994C174.883 64.8094 174.393 65.2294 173.943 65.5494C173.483 65.8494 172.943 66.0394 172.393 66.1194C171.323 66.2494 170.103 65.8994 169.193 65.2794C168.583 64.8694 168.253 64.1693 168.103 63.3894C167.803 61.8093 167.833 59.8994 168.383 58.2894C168.463 58.0594 168.433 57.5694 168.453 57.1994C168.593 56.6794 168.853 55.9994 168.873 55.6894C168.873 54.8094 169.243 53.8794 169.563 52.8694C169.393 52.8494 169.253 52.8194 169.113 52.7994C168.723 53.9994 168.693 53.9794 167.973 55.6394C167.683 55.7593 167.533 56.3294 167.393 56.9094C167.183 57.9494 167.033 58.9994 166.973 60.0594C166.923 60.9894 166.943 61.9294 167.103 62.8494C167.273 63.7594 167.573 64.6994 168.233 65.4094C168.933 66.0794 169.823 66.4594 170.733 66.6494C171.193 66.7494 171.663 66.7894 172.133 66.7594C172.603 66.7194 173.063 66.6094 173.493 66.4294C173.963 66.2394 174.393 65.9494 174.763 65.6094C175.153 65.2894 175.503 64.9294 175.853 64.5794C176.533 63.8494 177.123 63.0294 177.633 62.1694C178.073 61.4394 178.443 60.6594 178.743 59.8594C178.763 59.9594 178.773 60.0594 178.803 60.1594C179.233 61.7494 180.083 63.2094 181.233 64.3894C181.813 64.9794 182.493 65.4994 183.313 65.7994C184.123 66.1094 185.073 66.1194 185.873 65.8294C187.623 65.1994 188.843 63.8794 189.993 62.6194C191.123 61.3294 192.133 59.9494 193.093 58.5494C193.473 57.9794 193.833 57.3994 194.183 56.8194C194.343 56.6094 194.503 56.3994 194.653 56.1794C196.183 53.7594 197.693 51.3294 199.143 48.8494C199.533 48.2394 199.903 47.6194 200.283 47.0094C200.263 47.4794 200.243 47.9494 200.213 48.4194C200.173 49.4994 200.193 50.5694 200.173 51.6494V53.2694L200.213 54.8794C200.243 55.6694 200.263 56.4694 200.293 57.2694C200.343 58.0594 200.393 58.8594 200.413 59.6394C200.423 60.1094 200.443 60.5694 200.453 61.0294L200.573 62.4094C200.673 63.3294 200.753 64.2594 200.983 65.1794C201.213 66.1594 201.303 67.2094 201.533 68.2194C201.673 68.8794 201.763 69.5394 201.923 70.1894L202.383 72.2494L202.583 72.9094C202.823 73.8094 203.093 74.6994 203.403 75.5794C203.933 76.9694 204.513 78.3194 205.223 79.6394C205.943 80.9493 206.783 82.2694 208.043 83.3094C208.673 83.8194 209.433 84.2494 210.273 84.4594C211.113 84.6694 211.993 84.6594 212.813 84.4694C214.453 84.0694 215.773 83.1293 216.903 82.1094C217.683 81.4094 218.503 80.5394 218.673 79.7694C218.973 79.3994 219.253 79.0294 219.523 78.6494C219.993 77.9494 220.003 77.6394 219.733 77.6094C219.953 77.2194 220.173 76.8294 220.453 76.2594C219.493 77.1194 218.573 78.2494 217.593 79.2694M206.013 14.6594C205.733 15.8194 205.473 16.9894 205.213 18.1594C205.463 16.9894 205.733 15.8194 206.013 14.6594ZM203.613 23.6894L203.463 25.4294C203.383 25.8894 203.313 26.3394 203.263 26.7894C203.313 26.3394 203.373 25.8894 203.463 25.4294L203.613 23.6894ZM201.843 38.6194C201.933 37.6494 202.033 36.6694 202.213 35.6794C202.353 34.8494 202.483 34.0194 202.603 33.1794C202.753 32.3494 202.913 31.5194 203.063 30.6894L203.633 27.4694C203.833 26.3394 204.043 25.2194 204.273 24.0994C204.593 22.6494 204.913 21.1894 205.233 19.7394C205.553 18.3094 205.873 16.8894 206.213 15.4794C206.383 14.7694 206.563 14.0694 206.753 13.3694L207.003 12.4694C207.043 12.3294 207.083 12.1794 207.133 12.0294C207.183 11.8794 207.233 11.7294 207.303 11.5894C207.343 11.5194 207.373 11.4494 207.423 11.3894C207.443 11.3594 207.473 11.3294 207.513 11.3194C207.553 11.2994 207.593 11.3294 207.613 11.3594C207.733 11.5694 207.743 11.8394 207.763 12.0794L207.793 12.4494L207.813 13.0394C207.853 14.3694 207.853 15.7094 207.813 17.0494C207.773 18.4294 207.703 19.7994 207.593 21.1694C207.463 22.7594 207.213 24.3394 207.013 25.9194C206.693 28.1294 206.193 30.2994 205.533 32.4194C204.863 34.5394 204.093 36.6194 203.203 38.6494C202.733 39.7594 202.223 40.8493 201.693 41.9294C201.673 41.7994 201.663 41.6694 201.643 41.5494C201.713 40.5694 201.743 39.5994 201.803 38.6194" fill="#182828"/>
<path d="M318.054 41.0093C316.274 43.0093 314.544 45.0393 312.994 47.2093C311.264 49.6293 309.754 52.2993 307.454 54.2193C304.694 57.3093 298.944 63.2193 291.474 67.1393C290.444 67.6793 285.964 69.9793 281.564 70.1593C278.684 70.2793 276.014 69.6093 276.014 69.6093C275.574 69.4993 274.864 69.3193 273.974 68.9693C273.104 68.6293 271.154 67.7693 269.154 65.9793C267.194 64.2093 266.124 62.3593 265.644 61.4193C264.764 59.6993 264.244 57.7993 263.954 55.8593C263.804 54.8693 263.734 53.8693 263.614 52.8393C263.594 52.6693 263.564 52.4893 263.544 52.3093C263.504 52.1093 263.494 51.9893 263.404 51.6893C263.254 51.1793 262.944 50.7293 262.434 50.6293C262.084 50.5793 261.744 50.6993 261.454 50.9093C261.304 51.0193 261.164 51.1393 261.044 51.2693C260.954 51.3693 260.864 51.4693 260.784 51.5693C260.464 51.9793 260.204 52.3993 259.964 52.8193C259.044 54.4793 258.354 56.1993 257.664 57.9093L255.724 62.9093C255.594 63.2393 255.454 63.5693 255.294 63.9093C255.214 64.0793 255.134 64.2493 255.044 64.4093C254.994 64.4893 254.944 64.5693 254.894 64.6493C254.834 64.7193 254.774 64.8193 254.674 64.7993C254.594 64.7493 254.594 64.6493 254.584 64.5593C254.584 64.4693 254.584 64.3793 254.584 64.2893L254.614 63.7493L254.684 62.6193L254.724 61.6593L254.764 60.5093C254.784 59.7393 254.784 58.9793 254.764 58.2093C254.724 56.6693 254.654 55.1593 254.554 53.6193C254.414 52.0993 254.304 50.5493 253.694 49.0593C253.504 48.6993 253.324 48.3093 252.944 48.0293C252.864 47.9493 252.754 47.8993 252.644 47.8493C252.534 47.7993 252.424 47.7493 252.304 47.7293C252.064 47.6793 251.814 47.7193 251.604 47.7693C251.164 47.8893 250.814 48.1193 250.484 48.3593C250.164 48.6093 249.874 48.8793 249.604 49.1593C248.084 50.7993 246.944 52.6693 245.834 54.5493C244.764 56.4393 243.754 58.3693 242.914 60.3893C242.514 61.1893 242.144 61.9993 241.784 62.8193C241.824 62.5093 241.854 62.1993 241.864 61.9393C241.904 60.8993 242.024 60.0293 242.374 59.1993C242.444 59.0193 242.524 58.6293 242.574 58.3393C242.934 56.2493 243.394 54.2293 243.724 52.0493C243.754 51.7593 243.804 51.4993 243.794 51.0993C243.794 51.0493 243.794 50.9893 243.774 50.9193C243.774 50.8793 243.774 50.8593 243.754 50.8093C243.744 50.7493 243.724 50.6993 243.714 50.6493C243.714 50.6193 243.654 50.4793 243.594 50.3893C243.554 50.3393 243.544 50.3093 243.484 50.2393C243.414 50.1693 243.324 50.0993 243.234 50.0493C243.074 49.9393 242.764 49.8993 242.564 49.9393C242.474 49.9593 242.384 49.9893 242.304 50.0293C242.234 50.0693 242.204 50.0893 242.154 50.1193C242.054 50.1893 242.024 50.2293 241.974 50.2793C241.924 50.3293 241.904 50.3593 241.884 50.3893C241.824 50.4593 241.804 50.4993 241.774 50.5593C241.724 50.6493 241.684 50.7293 241.644 50.8093C241.384 51.3793 241.224 51.8593 241.034 52.3493C240.664 53.3293 240.274 54.2893 239.844 55.2193C239.664 55.6093 239.524 56.0193 239.344 56.4093C238.634 57.7393 237.804 58.9993 236.844 60.1393C235.984 61.1593 234.974 61.9993 233.894 62.6993C233.624 62.8793 233.344 63.0393 233.064 63.1993C232.774 63.3593 232.484 63.5193 232.184 63.6893C231.604 63.9993 231.024 64.2893 230.424 64.5193C229.854 64.7393 229.274 64.8793 228.764 64.8693C228.244 64.8493 227.834 64.6893 227.454 64.3593C226.684 63.6793 226.224 62.4193 225.964 61.1893C225.914 60.8993 225.864 60.5993 225.844 60.2993C225.814 59.9993 225.784 59.6993 225.774 59.3993C225.764 59.0293 225.754 58.6493 225.774 58.2793C225.774 57.9093 225.794 57.5293 225.824 57.1593C225.934 55.2893 226.254 53.4193 226.734 51.5793L226.434 51.5093L226.404 51.4893L226.244 51.4493H226.214L225.914 51.3793C225.614 53.0793 225.124 54.7593 224.414 56.3593C223.734 57.8993 222.914 59.3893 221.944 60.7793C221.474 61.4793 220.954 62.1493 220.414 62.7893C219.874 63.4093 219.284 63.9693 218.614 64.3193C218.114 64.5693 217.694 64.6693 217.214 64.5693C216.734 64.4793 216.254 64.2393 215.874 63.9193C215.684 63.7593 215.464 63.5493 215.374 63.3993C215.264 63.2393 215.174 63.0193 215.104 62.7693C214.954 62.2693 214.894 61.6793 214.874 61.0893C214.854 59.8993 214.994 58.6693 215.294 57.5393C215.374 57.2193 215.344 56.5393 215.384 56.0293C215.524 55.2993 215.834 54.3393 215.854 53.9093C215.904 52.7293 216.314 51.4093 216.754 50.0393C216.584 50.0393 216.434 50.0293 216.294 50.0193C216.024 50.8393 215.914 51.2493 215.734 51.7393C215.564 52.2293 215.334 52.7993 214.934 53.9693C214.644 54.1793 214.454 54.9593 214.314 55.7593C214.084 57.1893 213.904 58.6293 213.884 60.0793C213.864 60.7093 213.884 61.3493 213.974 61.9893C214.064 62.6193 214.204 63.2693 214.564 63.8393C214.974 64.3893 215.514 64.7593 216.104 65.0393C216.694 65.3093 217.364 65.4493 218.024 65.3093C219.324 64.9793 220.264 63.9993 221.054 63.0393C221.844 62.0493 222.564 61.0093 223.194 59.9193C224.094 58.4093 224.804 56.8093 225.384 55.1593C225.084 56.8693 224.914 58.6093 225.004 60.3593C225.004 60.5193 225.004 60.6793 225.024 60.8293C225.104 61.9893 225.304 63.1793 225.864 64.2793C225.984 64.5593 226.184 64.8093 226.374 65.0593C226.594 65.2893 226.804 65.5393 227.094 65.6993C227.634 66.0793 228.304 66.2493 228.944 66.2493C229.844 66.2693 230.684 65.9993 231.474 65.6693C232.254 65.3293 232.994 64.9093 233.694 64.4793C233.894 64.3693 234.104 64.2593 234.294 64.1293C236.134 62.8893 237.664 61.2493 238.894 59.4493C240.134 57.6493 241.094 55.6693 241.904 53.6693L242.244 52.8093C242.134 53.4293 241.994 54.0493 241.874 54.6693C241.404 56.9293 240.944 59.1993 240.584 61.4893C240.434 62.4093 240.334 63.3393 240.234 64.2593C240.174 64.6193 240.104 64.9693 240.054 65.3293C239.944 66.3093 239.864 67.2993 239.774 68.2893C239.684 68.6493 239.624 69.0293 239.564 69.4193L239.664 69.4393C239.664 69.4393 239.664 69.4993 239.664 69.5293L240.664 69.6893C240.664 69.6593 240.684 69.6293 240.694 69.5993H240.794C240.794 69.4793 240.794 69.3693 240.794 69.2493C240.824 69.1193 240.864 68.9793 240.904 68.8493C240.954 68.6993 241.014 68.5493 241.034 68.3793V68.3593C241.574 66.4093 242.214 64.4793 242.974 62.5993C243.594 61.1893 244.274 59.8093 245.014 58.4593C245.754 57.0993 246.524 55.7593 247.344 54.4593C248.324 52.9093 249.384 51.3693 250.564 50.0993C250.794 49.8493 251.044 49.6193 251.284 49.4193C251.524 49.2293 251.774 49.0693 251.954 49.0293C252.134 48.9893 252.114 49.0193 252.204 49.0493C252.224 49.0793 252.254 49.0993 252.284 49.1093L252.384 49.2393C252.454 49.3093 252.514 49.4693 252.584 49.5793C252.834 50.1193 253.004 50.8193 253.134 51.5193C253.254 52.2293 253.344 52.9493 253.414 53.6893C253.534 55.1493 253.624 56.6993 253.664 58.1593C253.684 58.8993 253.674 59.6393 253.654 60.3793L253.604 61.4893L253.574 62.0693L253.484 63.1993L253.344 64.9093C253.304 65.4693 253.324 65.9293 253.404 66.1993C253.484 66.4693 253.594 66.6093 253.694 66.7093C253.744 66.7593 253.804 66.7893 253.864 66.8193L254.144 66.9693C254.364 66.9793 254.434 66.9793 254.534 66.9793C254.624 66.9793 254.714 66.9593 254.814 66.9193C255.004 66.8293 255.224 66.6893 255.474 66.3493C255.724 66.0093 255.994 65.4893 256.254 64.9093C256.514 64.3393 256.764 63.7393 257.014 63.1393L258.544 59.2993C259.034 58.0693 259.534 56.8493 260.074 55.6693C260.614 54.4993 261.184 53.2793 261.884 52.3593C261.944 52.2893 262.014 52.1993 262.054 52.1493C262.054 52.1493 262.074 52.1193 262.084 52.1093C262.114 52.0893 262.144 52.0593 262.184 52.0593C262.224 52.0593 262.254 52.0893 262.274 52.1193C262.284 52.1393 262.294 52.1593 262.304 52.1693V52.1993C262.304 52.1993 262.344 52.2893 262.354 52.3393C262.444 52.7293 262.504 53.1593 262.564 53.5993C262.684 54.4793 262.804 55.3793 262.974 56.2793C263.464 59.2993 264.624 62.2993 266.594 64.6893C267.584 65.9193 268.754 66.9893 270.034 67.8993C270.034 67.8993 270.024 67.9093 270.014 67.9193C270.284 68.0993 270.564 68.2693 270.834 68.4393C270.874 68.4593 270.914 68.4893 270.944 68.5093C271.044 68.5693 271.134 68.6393 271.244 68.6993C272.384 69.3893 273.564 69.9393 274.774 70.3393C274.984 70.4193 275.114 70.4693 275.114 70.4693C275.824 70.6993 276.434 70.8193 276.884 70.8993C276.884 70.8993 276.864 70.8893 276.854 70.8793C277.954 71.0893 279.084 71.2093 280.244 71.2093C292.464 71.2093 307.394 59.6493 318.284 41.1193L318.114 41.0193L318.054 41.0093Z" fill="#182828"/>
</svg>
