<svg width="92" height="64" viewBox="0 0 92 64" fill="none" xmlns="http://www.w3.org/2000/svg">
<path d="M86.8342 8.56243C84.939 5.85327 82.4698 3.76256 79.4945 2.34937C76.3794 0.869718 72.6028 0.0814313 68.2696 0.00666414C62.6889 -0.0893332 57.376 0.852176 52.4807 2.8072C48.1042 4.55546 44.0664 7.10401 40.4793 10.3845C34.3696 15.9708 29.7439 23.5713 27.788 31.2344C26.7631 35.2497 27.1633 39.2161 28.9738 43.0633C28.6877 43.1492 28.4007 43.2387 28.11 43.3347C26.3132 43.9255 24.4843 44.4682 22.7473 45.0664L21.5173 45.4328C21.0131 45.574 20.5071 45.7153 20.0066 45.8546C17.611 46.5359 15.2006 47.1543 12.7019 47.5577C10.4019 47.9186 8.07154 48.2463 5.75775 48.2509C4.93712 48.238 4.10085 48.1946 3.33541 48.0312C2.55341 47.8669 1.73737 47.6297 1.20377 47.1561C0.937896 46.9226 0.766777 46.6411 0.698698 46.3116C0.630618 45.983 0.65454 45.6193 0.73826 45.2704C0.783339 45.0747 0.787938 44.6464 0.863378 44.3131C1.00966 43.8489 1.31326 43.2452 1.39514 42.971C1.59569 42.2003 2.06581 41.3815 2.55893 40.524C2.45589 40.5028 2.37217 40.4853 2.28753 40.4686C1.99497 40.9772 1.85145 41.232 1.67113 41.5375C1.57729 41.6889 1.47334 41.8523 1.34454 42.0711C1.2093 42.2861 1.05106 42.5575 0.848657 42.9258C0.647178 43.0384 0.426381 43.5424 0.260782 44.0796C0.116342 44.5559 0.0188229 45.0525 0.00226302 45.5583C-0.0161369 46.0614 0.0758628 46.5894 0.344502 47.0334C0.58462 47.4183 0.93422 47.7155 1.31786 47.9297C1.70058 48.1521 2.12285 48.2758 2.54053 48.3903C3.38509 48.5906 4.24896 48.657 5.10824 48.6718C6.82863 48.6903 8.53982 48.5121 10.2354 48.2638C12.0708 48.0044 13.8914 47.6555 15.7029 47.2632C17.9008 46.8109 20.0839 46.2885 22.2579 45.73L22.5661 45.6516C24.0979 45.2888 25.6232 44.9205 27.1495 44.5042C27.8873 44.303 28.627 44.0768 29.3658 43.8489C29.7227 44.5319 30.1229 45.2104 30.5691 45.8851C34.3089 51.536 40.2852 55.519 44.6405 57.8654C50.0804 60.7961 56.2931 62.9394 61.6871 63.7452C62.8251 63.9151 63.9548 64 65.0717 64C70.4813 64 75.6038 62.0182 80.0474 58.1746C83.6704 55.0408 86.6999 50.7616 88.8085 45.7983C90.8969 40.884 92 35.5008 92 30.2292C92 20.6193 90.3109 13.5321 86.8361 8.56335L86.8342 8.56243ZM88.3844 45.6165C86.3034 50.5151 83.3162 54.7363 79.7457 57.8248C74.4879 62.3727 68.265 64.2621 61.7515 63.2892C56.4081 62.4908 50.2497 60.3659 44.8539 57.4592C38.6743 54.1307 33.8655 50.0398 30.9482 45.6303C30.5268 44.9944 30.1487 44.3538 29.8092 43.7104C29.9868 43.655 30.1643 43.6005 30.3419 43.5452C30.49 43.5064 30.64 43.4723 30.7853 43.4261C33.5766 42.5409 36.3476 41.5966 39.1168 40.6486C42.093 39.6268 45.0664 38.6041 48.0122 37.489C48.602 37.2656 49.1917 37.0155 49.7713 36.77L50.4585 36.5364C51.1991 36.2678 51.9553 36.0472 52.7217 35.8663C52.6693 35.9208 52.6113 35.9697 52.5607 36.026C52.178 36.4395 51.8597 36.901 51.5781 37.3838C51.0271 38.3512 50.6416 39.4321 50.5901 40.6006C50.5606 41.1812 50.6388 41.7941 50.8753 42.371C51.108 42.947 51.5073 43.4824 52.0069 43.8369C52.5313 44.2291 53.1219 44.4664 53.7135 44.6131C54.0134 44.687 54.3087 44.7341 54.616 44.7618C54.9269 44.7867 55.2397 44.7858 55.5452 44.7534C56.7734 44.6298 57.8774 44.1276 58.8572 43.5184C59.8342 42.8935 60.699 42.1366 61.4948 41.3557C62.2943 40.5711 63.0514 39.7514 63.7727 38.9013C64.7782 37.7096 65.6679 36.4414 66.5088 35.1417C66.9016 34.5556 67.2742 33.9565 67.6376 33.351C67.5741 35.9235 67.8354 38.485 68.2982 41.0068C68.5714 42.3489 68.8676 43.6892 69.2706 44.999C69.4527 45.6599 69.6745 46.3079 69.8971 46.9558C70.1087 47.6011 70.3507 48.2647 70.6855 48.9063C70.9109 49.3438 71.2081 49.8062 71.5789 50.1718C71.9496 50.5364 72.3903 50.7874 72.7647 50.8437C73.2615 51.0745 73.8531 51.0108 74.2781 50.7994C74.67 50.6139 74.8715 50.4247 74.9654 50.3001C75.0592 50.1745 75.0463 50.1081 74.9534 50.0878C75.2736 49.809 75.5606 49.4998 75.9314 49.0419C75.4649 49.3927 74.9746 49.7988 74.4253 50.085C74.153 50.2262 73.8632 50.3333 73.5918 50.3499C73.5237 50.3545 73.4593 50.3444 73.394 50.3453L73.2091 50.3056L73.0361 50.2299L72.8429 50.1145C72.0435 49.5921 71.4924 48.6432 71.0986 47.6491C69.9256 44.5375 69.105 41.2588 68.7177 37.945C68.5015 35.9955 68.4619 34.0183 68.565 32.0901C68.5769 31.9479 68.5889 31.8058 68.6008 31.6636C69.9183 29.2212 70.9993 26.6533 71.7859 23.9949C72.0987 22.9565 72.3903 21.9107 72.6148 20.8482C72.6773 20.5289 72.7491 20.2113 72.8034 19.891C73.1622 17.9194 73.3637 15.9191 73.4069 13.918C73.4557 11.914 73.3149 9.9147 73.0913 7.93106C73.0665 7.6643 73.0426 7.39754 73.0058 7.1317C72.9432 6.67018 72.8724 6.20957 72.773 5.74989C72.7279 5.54866 72.6525 5.2219 72.5439 4.95883C72.4869 4.82868 72.4262 4.70592 72.348 4.60807C72.2725 4.50746 72.1778 4.42531 72.0398 4.40131C71.8052 4.40777 71.658 4.58038 71.5283 4.75946C71.3995 4.94684 71.3019 5.18222 71.2173 5.41852C71.0839 5.79974 70.9873 6.17357 70.8962 6.55387C70.7187 7.31262 70.5807 8.07506 70.4537 8.83935C70.2035 10.367 70.002 11.9002 69.8143 13.4343C69.6349 14.9029 69.4739 16.3927 69.2743 17.8336C69.0369 19.5477 68.818 21.223 68.7039 22.9823C68.6432 23.9109 68.5189 24.8811 68.4196 25.8318C68.3497 26.4484 68.2807 27.0641 68.2117 27.6807L67.9762 29.6145L67.9154 30.2505C67.8676 30.6824 67.8198 31.0692 67.759 31.5196C67.7508 31.588 67.7498 31.6563 67.7425 31.7246C67.139 32.7999 66.495 33.8513 65.7994 34.8703C65.4103 35.4371 65.0018 35.9928 64.5795 36.5374C63.9098 37.4124 63.2005 38.2579 62.4691 39.0794C61.6392 40.008 60.7799 40.9154 59.8535 41.7351C58.8986 42.5584 57.8461 43.2978 56.662 43.7039C55.9803 43.9384 55.2535 44.0473 54.5451 43.9661C53.8303 43.8849 53.1228 43.6725 52.5331 43.2821C51.6803 42.7458 51.2672 41.7046 51.3187 40.6948C51.3325 40.188 51.419 39.6794 51.5818 39.1957C51.7391 38.7102 51.9415 38.2367 52.2037 37.7992C52.4595 37.3579 52.7576 36.9398 53.1035 36.5697C53.2682 36.3758 53.4614 36.2115 53.6445 36.038C53.8432 35.8838 54.0364 35.7214 54.2498 35.594C54.2728 35.5801 54.2995 35.5709 54.3225 35.5571C55.5985 35.3632 56.892 35.2949 58.1791 35.366C59.216 35.4518 60.2417 35.6355 61.2344 35.9198C61.4819 35.99 61.7275 36.0675 61.9695 36.1524L62.3311 36.2854L62.4304 36.3223L62.4442 36.3278L62.4516 36.3306C62.4516 36.3306 62.4387 36.3306 62.5141 36.3472C62.5712 36.3574 62.6549 36.362 62.7478 36.3306C62.8407 36.3001 62.9263 36.23 62.9714 36.1635C63.0183 36.0961 63.0367 36.0417 63.0459 35.9983C63.0533 35.9512 63.056 35.8894 63.0413 35.822C63.0165 35.6817 62.8987 35.558 62.8233 35.5183L62.8067 35.5082L62.7736 35.4888C62.6954 35.4454 62.6365 35.4168 62.5712 35.3845C62.0679 35.1408 61.5638 34.9405 61.0449 34.7605C59.8029 34.3387 58.4938 34.0174 57.1193 34.0387C56.0383 34.0571 54.8938 34.2777 53.9048 34.8897C53.5175 34.9553 53.1081 35.0882 52.7171 35.2072C52.5313 35.2109 52.3574 35.1897 52.155 35.2368C51.1099 35.4657 50.0602 35.8082 49.0684 36.2041C48.6838 36.3518 48.2358 36.5226 47.9156 36.6841C47.2781 37.0063 46.7242 37.225 46.1152 37.3284C45.9846 37.3506 45.7297 37.4438 45.5375 37.5167C42.8428 38.5275 40.1288 39.4948 37.4056 40.4317C37.1186 40.5305 36.8444 40.6588 36.5647 40.7723L33.5481 41.7665C32.1662 42.216 30.8148 42.5353 29.4219 42.936C27.6325 39.1653 27.2323 35.2811 28.2351 31.3526C30.1698 23.7734 34.7468 16.2561 40.7912 10.7288C44.3369 7.48615 48.3278 4.96622 52.6527 3.23919C57.2665 1.39678 62.2556 0.464494 67.4941 0.464494C67.7498 0.464494 68.0065 0.466341 68.2641 0.470956C72.532 0.5448 76.2451 1.31832 79.3004 2.76936C82.203 4.1484 84.6124 6.18742 86.4616 8.83104C89.8803 13.7195 91.5418 20.7199 91.5418 30.232C91.5418 35.4417 90.4507 40.7631 88.3872 45.6202L88.3844 45.6165ZM70.7233 12.2666C70.6119 12.1919 70.692 11.7497 70.7371 11.4248C70.899 10.2488 71.0719 9.07472 71.2918 7.91721C71.4013 7.33938 71.5237 6.76525 71.6736 6.21234C71.7123 6.07388 71.7518 5.93727 71.7951 5.80527L71.8493 5.64651L71.8641 5.60774C71.8871 5.56159 71.9082 5.49697 71.9662 5.48866C72.0076 5.49789 72.0186 5.54682 72.0343 5.58005L72.0517 5.63728L72.0931 5.80989C72.1824 6.20957 72.2505 6.62679 72.3103 7.04678C72.3397 7.25908 72.4142 7.46584 72.4639 7.67722C72.6985 9.48733 72.9202 11.279 72.8604 13.1454C72.8475 13.9235 72.7859 14.7044 72.7399 15.4872C72.6617 16.2681 72.5982 17.0517 72.4731 17.8253C72.4124 18.3265 72.325 18.824 72.233 19.3206C72.1529 19.819 72.0416 20.312 71.9376 20.8058C71.7205 21.8433 71.4611 22.8725 71.1584 23.8888C70.7435 25.2051 70.2393 26.4918 69.6993 27.7591C69.4049 28.4468 69.0875 29.1243 68.7563 29.7954C68.99 27.0558 69.2476 24.3106 69.5815 21.5812C69.6837 20.7458 69.7563 19.891 69.8456 19.0464C70.0774 16.9354 70.2909 14.8087 70.6791 12.7771C70.7085 12.6257 70.7343 12.2722 70.7242 12.2648L70.7233 12.2666Z" fill="#182828"/>
</svg>
